<svg xmlns="http://www.w3.org/2000/svg" xmlns:xlink="http://www.w3.org/1999/xlink" width="500" zoomAndPan="magnify" viewBox="0 0 375 374.999991" height="500" preserveAspectRatio="xMidYMid meet" version="1.0"><defs><filter x="0%" y="0%" width="100%" height="100%" id="436777644f"><feColorMatrix values="0 0 0 0 1 0 0 0 0 1 0 0 0 0 1 0 0 0 1 0" color-interpolation-filters="sRGB"/></filter><mask id="ca3fe366de"><g filter="url(#436777644f)"><rect x="-37.5" width="450" fill="#000000" y="-37.499999" height="449.999989" fill-opacity="0.25"/></g></mask><clipPath id="0c6ab23207"><path d="M 97 270 L 152 270 L 152 323 L 97 323 Z M 97 270 " clip-rule="nonzero"/></clipPath><clipPath id="4308a2f536"><path d="M 133.28125 -47.203125 L 462.078125 87.964844 L 330.046875 409.136719 L 1.246094 273.96875 Z M 133.28125 -47.203125 " clip-rule="nonzero"/></clipPath><clipPath id="39a4572025"><path d="M 133.28125 -47.203125 L 462.078125 87.964844 L 330.046875 409.136719 L 1.246094 273.96875 Z M 133.28125 -47.203125 " clip-rule="nonzero"/></clipPath><clipPath id="039a69f890"><path d="M 199 309 L 243 309 L 243 360 L 199 360 Z M 199 309 " clip-rule="nonzero"/></clipPath><clipPath id="503761ad30"><path d="M 133.28125 -47.203125 L 462.078125 87.964844 L 330.046875 409.136719 L 1.246094 273.96875 Z M 133.28125 -47.203125 " clip-rule="nonzero"/></clipPath><clipPath id="88b67829f2"><path d="M 133.28125 -47.203125 L 462.078125 87.964844 L 330.046875 409.136719 L 1.246094 273.96875 Z M 133.28125 -47.203125 " clip-rule="nonzero"/></clipPath><clipPath id="9519a319ad"><path d="M 157 301 L 185 301 L 185 344 L 157 344 Z M 157 301 " clip-rule="nonzero"/></clipPath><clipPath id="88b51e9dcd"><path d="M 133.28125 -47.203125 L 462.078125 87.964844 L 330.046875 409.136719 L 1.246094 273.96875 Z M 133.28125 -47.203125 " clip-rule="nonzero"/></clipPath><clipPath id="26faca4f40"><path d="M 133.28125 -47.203125 L 462.078125 87.964844 L 330.046875 409.136719 L 1.246094 273.96875 Z M 133.28125 -47.203125 " clip-rule="nonzero"/></clipPath><clipPath id="f355a9a39f"><path d="M 155 11 L 208 11 L 208 67 L 155 67 Z M 155 11 " clip-rule="nonzero"/></clipPath><clipPath id="9f713f7cb5"><path d="M 133.28125 -47.203125 L 462.078125 87.964844 L 330.046875 409.136719 L 1.246094 273.96875 Z M 133.28125 -47.203125 " clip-rule="nonzero"/></clipPath><clipPath id="6f82679ceb"><path d="M 133.28125 -47.203125 L 462.078125 87.964844 L 330.046875 409.136719 L 1.246094 273.96875 Z M 133.28125 -47.203125 " clip-rule="nonzero"/></clipPath><clipPath id="b40a0a7659"><path d="M 74 80 L 125 80 L 125 123 L 74 123 Z M 74 80 " clip-rule="nonzero"/></clipPath><clipPath id="6ab3df1abc"><path d="M 133.28125 -47.203125 L 462.078125 87.964844 L 330.046875 409.136719 L 1.246094 273.96875 Z M 133.28125 -47.203125 " clip-rule="nonzero"/></clipPath><clipPath id="42447aa80f"><path d="M 133.28125 -47.203125 L 462.078125 87.964844 L 330.046875 409.136719 L 1.246094 273.96875 Z M 133.28125 -47.203125 " clip-rule="nonzero"/></clipPath><clipPath id="c6368dffca"><path d="M 48 173 L 107 173 L 107 230 L 48 230 Z M 48 173 " clip-rule="nonzero"/></clipPath><clipPath id="6e3fed785c"><path d="M 133.28125 -47.203125 L 462.078125 87.964844 L 330.046875 409.136719 L 1.246094 273.96875 Z M 133.28125 -47.203125 " clip-rule="nonzero"/></clipPath><clipPath id="7d1c57c8c3"><path d="M 133.28125 -47.203125 L 462.078125 87.964844 L 330.046875 409.136719 L 1.246094 273.96875 Z M 133.28125 -47.203125 " clip-rule="nonzero"/></clipPath><clipPath id="7a1803e5b8"><path d="M 113 50 L 157 50 L 157 77 L 113 77 Z M 113 50 " clip-rule="nonzero"/></clipPath><clipPath id="4885a0b167"><path d="M 133.28125 -47.203125 L 462.078125 87.964844 L 330.046875 409.136719 L 1.246094 273.96875 Z M 133.28125 -47.203125 " clip-rule="nonzero"/></clipPath><clipPath id="6385f313f2"><path d="M 133.28125 -47.203125 L 462.078125 87.964844 L 330.046875 409.136719 L 1.246094 273.96875 Z M 133.28125 -47.203125 " clip-rule="nonzero"/></clipPath><clipPath id="d6ca71fb58"><path d="M 61 134 L 98 134 L 98 162 L 61 162 Z M 61 134 " clip-rule="nonzero"/></clipPath><clipPath id="349fc78947"><path d="M 133.28125 -47.203125 L 462.078125 87.964844 L 330.046875 409.136719 L 1.246094 273.96875 Z M 133.28125 -47.203125 " clip-rule="nonzero"/></clipPath><clipPath id="1d1715f252"><path d="M 133.28125 -47.203125 L 462.078125 87.964844 L 330.046875 409.136719 L 1.246094 273.96875 Z M 133.28125 -47.203125 " clip-rule="nonzero"/></clipPath><clipPath id="8de8d1ba32"><path d="M 78 235 L 105 235 L 105 265 L 78 265 Z M 78 235 " clip-rule="nonzero"/></clipPath><clipPath id="1b7510007d"><path d="M 133.28125 -47.203125 L 462.078125 87.964844 L 330.046875 409.136719 L 1.246094 273.96875 Z M 133.28125 -47.203125 " clip-rule="nonzero"/></clipPath><clipPath id="a16a00333e"><path d="M 133.28125 -47.203125 L 462.078125 87.964844 L 330.046875 409.136719 L 1.246094 273.96875 Z M 133.28125 -47.203125 " clip-rule="nonzero"/></clipPath><clipPath id="60e0f5c2b3"><path d="M 225 19 L 250 19 L 250 50 L 225 50 Z M 225 19 " clip-rule="nonzero"/></clipPath><clipPath id="f63fe30a6c"><path d="M 133.28125 -47.203125 L 462.078125 87.964844 L 330.046875 409.136719 L 1.246094 273.96875 Z M 133.28125 -47.203125 " clip-rule="nonzero"/></clipPath><clipPath id="86a2691faa"><path d="M 133.28125 -47.203125 L 462.078125 87.964844 L 330.046875 409.136719 L 1.246094 273.96875 Z M 133.28125 -47.203125 " clip-rule="nonzero"/></clipPath><clipPath id="483f9f8eeb"><rect x="0" width="254" y="0" height="375"/></clipPath></defs><rect x="-37.5" width="450" fill="#ffffff" y="-37.499999" height="449.999989" fill-opacity="1"/><rect x="-37.5" width="450" fill="#ffffff" y="-37.499999" height="449.999989" fill-opacity="1"/><g mask="url(#ca3fe366de)"><g transform="matrix(1, 0, 0, 1, 121, 0)"><g clip-path="url(#483f9f8eeb)"><g clip-path="url(#0c6ab23207)"><g clip-path="url(#4308a2f536)"><g clip-path="url(#39a4572025)"><path fill="#3d8fd4" d="M 98.863281 303.953125 C 99.507812 305.742188 100.324219 307.480469 101.328125 309.105469 C 102.367188 310.691406 103.5625 312.1875 104.875 313.570312 C 105.53125 314.261719 106.214844 314.925781 106.925781 315.558594 C 107.660156 316.160156 108.421875 316.730469 109.203125 317.269531 C 110.761719 318.34375 112.402344 319.28125 114.078125 320.0625 C 117.511719 321.535156 121.113281 322.367188 124.597656 322.433594 C 128.136719 322.4375 131.53125 321.71875 134.554688 320.238281 C 135.59375 319.730469 136.367188 319.058594 136.929688 318.292969 C 143.234375 315.058594 147.707031 309.148438 149.933594 302.753906 C 150.492188 301.15625 150.910156 299.523438 151.179688 297.894531 C 151.453125 296.265625 151.617188 294.582031 151.605469 292.949219 C 151.605469 289.652344 150.910156 286.578125 149.632812 283.550781 C 146.980469 277.847656 142.238281 274.246094 136.207031 272.417969 C 133.28125 271.421875 129.910156 271 126.621094 270.867188 C 124.957031 270.820312 123.257812 270.902344 121.558594 271.113281 C 120.707031 271.21875 119.859375 271.359375 119.015625 271.53125 C 118.179688 271.699219 117.363281 271.890625 116.546875 272.125 C 110.164062 273.964844 104.433594 278.011719 100.929688 283.671875 C 100.054688 285.085938 99.316406 286.601562 98.738281 288.199219 C 98.1875 289.777344 97.804688 291.429688 97.605469 293.152344 C 97.214844 296.582031 97.511719 300.328125 98.863281 303.953125 Z M 98.863281 303.953125 " fill-opacity="1" fill-rule="nonzero"/></g></g></g><g clip-path="url(#039a69f890)"><g clip-path="url(#503761ad30)"><g clip-path="url(#88b67829f2)"><path fill="#d986ba" d="M 218.328125 309.621094 C 217.660156 309.792969 216.984375 309.984375 216.304688 310.207031 C 214.53125 310.113281 212.816406 310.585938 211.203125 311.382812 C 209.597656 312.140625 208.085938 313.3125 206.734375 314.785156 C 206.175781 315.152344 205.628906 315.535156 205.101562 315.933594 C 203.957031 316.816406 203.03125 317.71875 202.273438 318.726562 C 201.519531 319.734375 200.933594 320.832031 200.488281 322.007812 C 199.59375 324.363281 199.257812 327.035156 199.164062 329.929688 C 199.089844 332.121094 199.257812 334.414062 199.722656 336.699219 C 200.1875 338.964844 200.957031 341.164062 202.070312 343.253906 C 203.136719 345.515625 204.695312 347.664062 206.90625 349.347656 L 207.015625 349.417969 C 207.121094 349.496094 207.230469 349.578125 207.335938 349.65625 C 209.960938 353.199219 213.601562 356.511719 217.816406 358.074219 C 222.007812 359.792969 226.753906 359.75 231.148438 357.382812 C 233.753906 355.871094 235.945312 353.878906 237.597656 351.628906 C 238.101562 351.183594 238.566406 350.71875 238.996094 350.238281 C 239.421875 349.746094 239.808594 349.226562 240.160156 348.699219 C 240.863281 347.640625 241.421875 346.53125 241.847656 345.382812 C 242.703125 343.089844 243.039062 340.640625 242.988281 338.15625 C 242.882812 333.183594 241.269531 328.050781 239.09375 323.664062 C 238.523438 322.519531 237.914062 321.433594 237.261719 320.335938 C 236.609375 319.242188 235.921875 318.195312 235.195312 317.210938 C 233.746094 315.234375 232.160156 313.554688 230.449219 312.21875 C 228.738281 310.828125 226.902344 309.839844 224.902344 309.417969 C 222.902344 308.910156 220.742188 308.898438 218.328125 309.621094 Z M 218.328125 309.621094 " fill-opacity="1" fill-rule="nonzero"/></g></g></g><g clip-path="url(#9519a319ad)"><g clip-path="url(#88b51e9dcd)"><g clip-path="url(#26faca4f40)"><path fill="#837ab8" d="M 163.425781 335.730469 C 164.421875 338.964844 166.644531 340.992188 169.210938 342.152344 C 170.5 342.710938 171.859375 343.097656 173.25 343.152344 C 174.640625 343.21875 176.023438 343.066406 177.3125 342.71875 C 179.890625 342.011719 182.058594 340.539062 183.253906 338.421875 C 184.457031 336.308594 184.652344 333.6875 183.460938 330.636719 C 182.722656 328.757812 182.015625 326.894531 181.347656 325.042969 C 180.679688 323.1875 180.035156 321.367188 179.464844 319.457031 C 178.308594 315.664062 177.261719 312.003906 176.398438 308.261719 C 175.714844 305.21875 174.179688 303.285156 172.222656 302.261719 C 170.320312 301.125 167.984375 300.894531 165.691406 301.386719 C 163.414062 301.859375 161.226562 302.964844 159.652344 304.796875 C 158.089844 306.621094 157.183594 309.113281 157.683594 312.28125 C 157.984375 314.265625 158.367188 316.167969 158.769531 318.109375 C 159.175781 320.050781 159.613281 322.007812 160.085938 323.980469 C 160.320312 324.960938 160.558594 325.964844 160.816406 326.941406 L 161.636719 329.851562 C 162.199219 331.796875 162.796875 333.757812 163.425781 335.730469 Z M 163.425781 335.730469 " fill-opacity="1" fill-rule="nonzero"/></g></g></g><g clip-path="url(#f355a9a39f)"><g clip-path="url(#9f713f7cb5)"><g clip-path="url(#6f82679ceb)"><path fill="#3d8fd4" d="M 188.449219 12.164062 C 186.585938 11.78125 184.679688 11.589844 182.765625 11.578125 C 180.863281 11.613281 178.96875 11.871094 177.101562 12.265625 C 176.167969 12.464844 175.246094 12.707031 174.335938 12.984375 C 173.425781 13.265625 172.546875 13.640625 171.679688 14.019531 C 169.945312 14.789062 168.289062 15.699219 166.746094 16.726562 C 165.207031 17.769531 163.808594 19.011719 162.539062 20.300781 C 161.277344 21.609375 160.140625 22.957031 159.210938 24.460938 C 157.355469 27.480469 156.191406 30.746094 155.871094 34.097656 C 155.761719 35.246094 155.9375 36.265625 156.296875 37.148438 C 155.769531 44.226562 158.484375 51.101562 162.785156 56.34375 C 164.945312 58.980469 167.460938 61.144531 170.273438 62.878906 C 171.671875 63.726562 173.128906 64.433594 174.628906 64.960938 C 175.382812 65.234375 176.132812 65.429688 176.917969 65.636719 C 177.703125 65.84375 178.5 66.003906 179.304688 66.109375 C 185.542969 66.839844 191.078125 64.660156 195.796875 60.5 C 196.980469 59.496094 198.105469 58.355469 199.160156 57.097656 C 200.210938 55.804688 201.21875 54.5625 202.125 53.144531 C 203.941406 50.339844 205.410156 47.136719 206.324219 43.902344 C 208.09375 37.488281 207.644531 30.488281 204.652344 24.550781 C 203.164062 21.585938 201.03125 18.84375 198.3125 16.746094 C 196.953125 15.679688 195.441406 14.738281 193.789062 13.949219 C 192.960938 13.558594 192.097656 13.183594 191.207031 12.890625 C 190.320312 12.605469 189.398438 12.363281 188.449219 12.164062 Z M 188.449219 12.164062 " fill-opacity="1" fill-rule="nonzero"/></g></g></g><g clip-path="url(#b40a0a7659)"><g clip-path="url(#6ab3df1abc)"><g clip-path="url(#42447aa80f)"><path fill="#d986ba" d="M 122.40625 111.300781 C 122.582031 110.640625 122.730469 109.949219 122.863281 109.25 C 123.328125 108.503906 123.632812 107.675781 123.902344 106.863281 C 124.167969 106.046875 124.324219 105.191406 124.382812 104.300781 C 124.496094 102.527344 124.195312 100.605469 123.597656 98.710938 C 123.566406 98.054688 123.523438 97.402344 123.449219 96.757812 C 122.828125 91.164062 119.214844 87.644531 114.316406 84.597656 C 110.613281 82.277344 106.078125 80.605469 101.289062 80.402344 C 98.804688 80.203125 96.222656 80.539062 93.628906 81.609375 L 93.507812 81.664062 C 93.386719 81.714844 93.257812 81.769531 93.132812 81.820312 C 90.867188 82.03125 88.648438 82.578125 86.511719 83.40625 C 85.441406 83.820312 84.394531 84.300781 83.386719 84.859375 C 82.386719 85.417969 81.394531 86.027344 80.542969 86.765625 C 78.8125 88.214844 77.320312 89.953125 76.234375 91.953125 C 75.671875 92.941406 75.304688 94.050781 75.015625 95.191406 C 74.738281 96.339844 74.582031 97.550781 74.566406 98.808594 C 74.558594 100.3125 74.664062 101.761719 74.996094 103.195312 C 75.320312 104.625 75.785156 105.996094 76.371094 107.277344 C 76.960938 109.9375 78.117188 112.175781 79.671875 114.035156 C 81.253906 115.90625 83.246094 117.410156 85.4375 118.582031 C 89.851562 120.933594 95.023438 121.992188 99.992188 122.292969 C 102.5625 122.4375 105.121094 122.375 107.515625 122.074219 C 108.722656 121.925781 109.851562 121.695312 110.988281 121.4375 C 112.128906 121.175781 113.207031 120.851562 114.214844 120.445312 C 116.246094 119.644531 117.90625 118.488281 119.359375 117.046875 C 120.789062 115.585938 121.71875 113.648438 122.40625 111.300781 Z M 122.40625 111.300781 " fill-opacity="1" fill-rule="nonzero"/></g></g></g><g clip-path="url(#c6368dffca)"><g clip-path="url(#6e3fed785c)"><g clip-path="url(#7d1c57c8c3)"><path fill="#837ab8" d="M 52.570312 183.699219 C 52.304688 184.128906 52.054688 184.5625 51.808594 185.007812 C 51.585938 185.453125 51.371094 185.902344 51.167969 186.363281 C 50.757812 187.28125 50.390625 188.234375 50.066406 189.210938 C 49.738281 190.183594 49.453125 191.1875 49.210938 192.207031 C 49.089844 192.714844 48.976562 193.230469 48.875 193.75 C 48.792969 194.265625 48.722656 194.789062 48.664062 195.3125 C 48.421875 197.410156 48.347656 199.5625 48.429688 201.71875 C 48.542969 203.867188 48.917969 206.007812 49.386719 208.105469 C 49.632812 209.152344 49.894531 210.195312 50.234375 211.207031 C 50.59375 212.21875 50.988281 213.214844 51.417969 214.183594 C 52.292969 216.117188 53.242188 217.972656 54.4375 219.65625 C 55.640625 221.339844 56.96875 222.886719 58.40625 224.25 C 59.128906 224.929688 59.859375 225.570312 60.652344 226.152344 C 61.457031 226.730469 62.285156 227.261719 63.136719 227.738281 C 71.40625 232.359375 80.652344 227.671875 88.167969 221.554688 C 93.511719 221.535156 98.398438 219.832031 101.914062 216.363281 C 102.742188 215.550781 103.414062 214.757812 104.023438 213.960938 C 104.636719 213.164062 105.132812 212.378906 105.523438 211.601562 C 106.316406 210.046875 106.636719 208.542969 106.667969 207.054688 C 106.742188 205.558594 106.453125 204.097656 105.867188 202.65625 C 105.722656 202.296875 105.550781 201.9375 105.382812 201.582031 C 105.222656 201.21875 105.046875 200.863281 104.851562 200.503906 C 104.464844 199.792969 104.015625 199.082031 103.507812 198.382812 C 103.808594 193.660156 102.496094 189.113281 99.476562 185.140625 C 98.683594 184.152344 97.894531 183.199219 96.949219 182.292969 C 96.007812 181.390625 94.957031 180.539062 93.792969 179.75 C 92.636719 178.960938 91.355469 178.238281 89.988281 177.601562 C 88.644531 176.96875 87.1875 176.417969 85.621094 175.976562 C 84.480469 175.660156 83.339844 175.429688 82.210938 175.269531 C 77.054688 173.402344 71.386719 172.726562 66.089844 173.925781 C 63.453125 174.523438 60.863281 175.589844 58.5625 177.203125 C 56.292969 178.8125 54.253906 180.96875 52.570312 183.699219 Z M 52.570312 183.699219 " fill-opacity="1" fill-rule="nonzero"/></g></g></g><g clip-path="url(#7a1803e5b8)"><g clip-path="url(#4885a0b167)"><g clip-path="url(#6385f313f2)"><path fill="#837ab8" d="M 127.539062 50.800781 C 124.320312 50.09375 121.355469 50.894531 119.011719 52.496094 C 116.742188 54.1875 115.09375 56.664062 114.347656 59.210938 C 113.652344 61.820312 113.863281 64.496094 115.0625 66.585938 C 116.261719 68.6875 118.457031 70.21875 121.648438 70.6875 C 129.566406 71.894531 137.203125 73.722656 144.460938 76.082031 C 150.300781 77.980469 154.21875 74.859375 155.808594 70.515625 C 156.558594 68.292969 156.738281 65.84375 155.996094 63.5625 C 155.25 61.285156 153.59375 59.210938 150.617188 57.980469 C 146.996094 56.570312 143.234375 55.21875 139.363281 53.976562 C 135.546875 52.832031 131.589844 51.742188 127.539062 50.800781 Z M 127.539062 50.800781 " fill-opacity="1" fill-rule="nonzero"/></g></g></g><g clip-path="url(#d6ca71fb58)"><g clip-path="url(#349fc78947)"><g clip-path="url(#1d1715f252)"><path fill="#009ba2" d="M 62.96875 139.871094 C 62.300781 141.15625 61.832031 142.59375 61.675781 144.074219 C 61.542969 145.558594 61.652344 147.066406 61.996094 148.464844 C 62.335938 149.863281 62.910156 151.15625 63.707031 152.21875 C 64.515625 153.289062 65.585938 154.136719 66.816406 154.652344 C 73.160156 157.296875 79.628906 159.375 86.191406 161.199219 C 88.746094 161.902344 91.355469 161.066406 93.390625 159.605469 C 93.898438 159.238281 94.371094 158.828125 94.796875 158.390625 C 95.246094 157.957031 95.664062 157.496094 96.023438 157.011719 C 96.738281 156.042969 97.242188 154.996094 97.453125 153.941406 C 97.589844 153.292969 97.628906 152.664062 97.628906 152.0625 C 97.644531 151.460938 97.59375 150.882812 97.476562 150.324219 C 97.242188 149.203125 96.753906 148.160156 96.074219 147.199219 C 94.714844 145.285156 92.570312 143.703125 90.152344 142.648438 C 85.539062 140.644531 81.054688 138.308594 76.671875 135.785156 C 74.375 134.457031 71.722656 134.046875 69.226562 134.691406 C 67.988281 135.019531 66.746094 135.59375 65.691406 136.460938 C 64.644531 137.328125 63.710938 138.46875 62.96875 139.871094 Z M 62.96875 139.871094 " fill-opacity="1" fill-rule="nonzero"/></g></g></g><g clip-path="url(#8de8d1ba32)"><g clip-path="url(#1b7510007d)"><g clip-path="url(#a16a00333e)"><path fill="#cdddf4" d="M 96.980469 235.382812 C 92.988281 234.980469 88.929688 237.515625 85.753906 240.640625 C 84.871094 241.289062 83.9375 242.125 83.042969 243.101562 C 82.171875 244.070312 81.351562 245.171875 80.667969 246.363281 C 79.363281 246.816406 78.394531 247.917969 78.414062 249.820312 C 78.390625 253.25 79.253906 257.226562 81.105469 260.308594 C 83.027344 263.347656 86.078125 265.363281 90.332031 264.824219 C 93.90625 264.34375 96.832031 262.1875 99.128906 259.511719 C 101.457031 256.808594 103.199219 253.570312 104.207031 250.746094 C 104.660156 249.476562 104.445312 248.429688 103.929688 247.585938 C 104.023438 247.269531 104.109375 246.957031 104.179688 246.65625 C 105.292969 241.605469 103.332031 236.015625 96.980469 235.382812 Z M 96.980469 235.382812 " fill-opacity="1" fill-rule="nonzero"/></g></g></g><g clip-path="url(#60e0f5c2b3)"><g clip-path="url(#f63fe30a6c)"><g clip-path="url(#86a2691faa)"><path fill="#cdddf4" d="M 247.894531 46.429688 C 250.320312 43.234375 250.273438 38.445312 249.261719 34.105469 C 249.171875 33.015625 248.949219 31.773438 248.582031 30.511719 C 248.210938 29.265625 247.699219 27.988281 247.039062 26.785156 C 247.335938 25.4375 246.902344 24.03125 245.269531 23.058594 C 244.539062 22.621094 243.757812 22.199219 242.933594 21.804688 C 242.523438 21.605469 242.101562 21.410156 241.671875 21.238281 C 241.242188 21.078125 240.804688 20.929688 240.359375 20.789062 C 238.585938 20.238281 236.726562 19.886719 234.929688 19.875 C 234.484375 19.875 234.039062 19.890625 233.601562 19.9375 C 233.164062 20 232.730469 20.082031 232.308594 20.195312 C 231.464844 20.414062 230.65625 20.738281 229.90625 21.179688 C 228.410156 22.0625 227.144531 23.417969 226.261719 25.382812 C 225.527344 27.003906 225.242188 28.742188 225.269531 30.480469 C 225.300781 32.210938 225.644531 33.953125 226.183594 35.660156 C 227.273438 39.054688 229.121094 42.226562 231.003906 44.558594 C 231.425781 45.078125 231.886719 45.4375 232.367188 45.652344 C 232.847656 45.886719 233.347656 45.996094 233.84375 45.980469 C 234.0625 46.226562 234.285156 46.460938 234.507812 46.679688 C 238.234375 50.257812 244.03125 51.527344 247.894531 46.429688 Z M 247.894531 46.429688 " fill-opacity="1" fill-rule="nonzero"/></g></g></g></g></g></g></svg>