<svg xmlns="http://www.w3.org/2000/svg" xmlns:xlink="http://www.w3.org/1999/xlink" width="500" zoomAndPan="magnify" viewBox="0 0 375 374.999991" height="500" preserveAspectRatio="xMidYMid meet" version="1.0"><defs><clipPath id="03a53ab577"><path d="M 6 139 L 98 139 L 98 222 L 6 222 Z M 6 139 " clip-rule="nonzero"/></clipPath><clipPath id="772aeea2d8"><path d="M -4.917969 154.519531 L 74.925781 122.34375 L 108.941406 206.75 L 29.097656 238.925781 Z M -4.917969 154.519531 " clip-rule="nonzero"/></clipPath><clipPath id="975a22765d"><path d="M -4.917969 154.519531 L 74.925781 122.34375 L 108.941406 206.75 L 29.097656 238.925781 Z M -4.917969 154.519531 " clip-rule="nonzero"/></clipPath><clipPath id="a0ee10b4b3"><path d="M -4.886719 154.601562 L 75.207031 122.324219 L 109.320312 206.972656 L 29.230469 239.25 Z M -4.886719 154.601562 " clip-rule="nonzero"/></clipPath><clipPath id="f51804e5b6"><path d="M -4.886719 154.601562 L 74.835938 122.472656 L 108.699219 206.507812 L 28.980469 238.632812 Z M -4.886719 154.601562 " clip-rule="nonzero"/></clipPath><clipPath id="713a5a81a3"><path d="M 42 171 L 61 171 L 61 190 L 42 190 Z M 42 171 " clip-rule="nonzero"/></clipPath><clipPath id="4b4726c432"><path d="M -4.917969 154.519531 L 74.925781 122.34375 L 108.941406 206.75 L 29.097656 238.925781 Z M -4.917969 154.519531 " clip-rule="nonzero"/></clipPath><clipPath id="bc7a5167c9"><path d="M -4.917969 154.519531 L 74.925781 122.34375 L 108.941406 206.75 L 29.097656 238.925781 Z M -4.917969 154.519531 " clip-rule="nonzero"/></clipPath><clipPath id="02a6deb16f"><path d="M 59 139 L 151 139 L 151 222 L 59 222 Z M 59 139 " clip-rule="nonzero"/></clipPath><clipPath id="722d70c7d8"><path d="M 48.402344 154.519531 L 128.246094 122.34375 L 162.261719 206.75 L 82.417969 238.925781 Z M 48.402344 154.519531 " clip-rule="nonzero"/></clipPath><clipPath id="07e8ec7c0c"><path d="M 48.402344 154.519531 L 128.246094 122.34375 L 162.261719 206.75 L 82.417969 238.925781 Z M 48.402344 154.519531 " clip-rule="nonzero"/></clipPath><clipPath id="6f10643bf1"><path d="M 48.433594 154.601562 L 128.527344 122.324219 L 162.640625 206.972656 L 82.546875 239.25 Z M 48.433594 154.601562 " clip-rule="nonzero"/></clipPath><clipPath id="b489ce1634"><path d="M 48.433594 154.601562 L 128.15625 122.472656 L 162.019531 206.507812 L 82.296875 238.632812 Z M 48.433594 154.601562 " clip-rule="nonzero"/></clipPath><clipPath id="dfef538160"><path d="M 96 171 L 115 171 L 115 190 L 96 190 Z M 96 171 " clip-rule="nonzero"/></clipPath><clipPath id="0bf60c04f3"><path d="M 48.402344 154.519531 L 128.246094 122.34375 L 162.261719 206.75 L 82.417969 238.925781 Z M 48.402344 154.519531 " clip-rule="nonzero"/></clipPath><clipPath id="309e3cb9d8"><path d="M 48.402344 154.519531 L 128.246094 122.34375 L 162.261719 206.75 L 82.417969 238.925781 Z M 48.402344 154.519531 " clip-rule="nonzero"/></clipPath><clipPath id="129a3bfff6"><path d="M 112 139 L 205 139 L 205 222 L 112 222 Z M 112 139 " clip-rule="nonzero"/></clipPath><clipPath id="163c5c38ad"><path d="M 101.660156 154.519531 L 181.503906 122.34375 L 215.515625 206.75 L 135.671875 238.925781 Z M 101.660156 154.519531 " clip-rule="nonzero"/></clipPath><clipPath id="fb2b8d512a"><path d="M 101.660156 154.519531 L 181.503906 122.34375 L 215.515625 206.75 L 135.671875 238.925781 Z M 101.660156 154.519531 " clip-rule="nonzero"/></clipPath><clipPath id="e4285de0d5"><path d="M 101.691406 154.601562 L 181.78125 122.324219 L 215.898438 206.972656 L 135.804688 239.25 Z M 101.691406 154.601562 " clip-rule="nonzero"/></clipPath><clipPath id="6d7a198460"><path d="M 101.691406 154.601562 L 181.410156 122.472656 L 215.277344 206.507812 L 135.554688 238.632812 Z M 101.691406 154.601562 " clip-rule="nonzero"/></clipPath><clipPath id="a04cd29954"><path d="M 149 171 L 168 171 L 168 190 L 149 190 Z M 149 171 " clip-rule="nonzero"/></clipPath><clipPath id="1f70aef328"><path d="M 101.660156 154.519531 L 181.503906 122.34375 L 215.515625 206.75 L 135.671875 238.925781 Z M 101.660156 154.519531 " clip-rule="nonzero"/></clipPath><clipPath id="408b9822be"><path d="M 101.660156 154.519531 L 181.503906 122.34375 L 215.515625 206.75 L 135.671875 238.925781 Z M 101.660156 154.519531 " clip-rule="nonzero"/></clipPath><clipPath id="09badae440"><path d="M 166 139 L 258 139 L 258 222 L 166 222 Z M 166 139 " clip-rule="nonzero"/></clipPath><clipPath id="9cf70fd4dd"><path d="M 155.097656 154.519531 L 234.941406 122.34375 L 268.957031 206.75 L 189.113281 238.925781 Z M 155.097656 154.519531 " clip-rule="nonzero"/></clipPath><clipPath id="c5aae6901c"><path d="M 155.097656 154.519531 L 234.941406 122.34375 L 268.957031 206.75 L 189.113281 238.925781 Z M 155.097656 154.519531 " clip-rule="nonzero"/></clipPath><clipPath id="4d95f2610e"><path d="M 155.132812 154.601562 L 235.222656 122.324219 L 269.335938 206.972656 L 189.246094 239.25 Z M 155.132812 154.601562 " clip-rule="nonzero"/></clipPath><clipPath id="fc97abccb0"><path d="M 155.132812 154.601562 L 234.851562 122.472656 L 268.71875 206.507812 L 188.996094 238.632812 Z M 155.132812 154.601562 " clip-rule="nonzero"/></clipPath><clipPath id="0bb9ebe874"><path d="M 202 171 L 221 171 L 221 190 L 202 190 Z M 202 171 " clip-rule="nonzero"/></clipPath><clipPath id="d77daa64b8"><path d="M 155.097656 154.519531 L 234.941406 122.34375 L 268.957031 206.75 L 189.113281 238.925781 Z M 155.097656 154.519531 " clip-rule="nonzero"/></clipPath><clipPath id="3b2e5fa662"><path d="M 155.097656 154.519531 L 234.941406 122.34375 L 268.957031 206.75 L 189.113281 238.925781 Z M 155.097656 154.519531 " clip-rule="nonzero"/></clipPath><clipPath id="a523832ad2"><path d="M 221 139 L 313 139 L 313 222 L 221 222 Z M 221 139 " clip-rule="nonzero"/></clipPath><clipPath id="8abbe73def"><path d="M 209.90625 154.519531 L 289.75 122.34375 L 323.765625 206.75 L 243.921875 238.925781 Z M 209.90625 154.519531 " clip-rule="nonzero"/></clipPath><clipPath id="4593e8288a"><path d="M 209.90625 154.519531 L 289.75 122.34375 L 323.765625 206.75 L 243.921875 238.925781 Z M 209.90625 154.519531 " clip-rule="nonzero"/></clipPath><clipPath id="f478672e21"><path d="M 209.941406 154.601562 L 290.03125 122.324219 L 324.144531 206.972656 L 244.054688 239.25 Z M 209.941406 154.601562 " clip-rule="nonzero"/></clipPath><clipPath id="26f700f751"><path d="M 209.941406 154.601562 L 289.660156 122.472656 L 323.523438 206.507812 L 243.804688 238.632812 Z M 209.941406 154.601562 " clip-rule="nonzero"/></clipPath><clipPath id="a1e95cad77"><path d="M 257 171 L 276 171 L 276 190 L 257 190 Z M 257 171 " clip-rule="nonzero"/></clipPath><clipPath id="3be6f7a345"><path d="M 209.90625 154.519531 L 289.75 122.34375 L 323.765625 206.75 L 243.921875 238.925781 Z M 209.90625 154.519531 " clip-rule="nonzero"/></clipPath><clipPath id="7c2aed0954"><path d="M 209.90625 154.519531 L 289.75 122.34375 L 323.765625 206.75 L 243.921875 238.925781 Z M 209.90625 154.519531 " clip-rule="nonzero"/></clipPath><clipPath id="60cf92db59"><path d="M 276 139 L 368 139 L 368 222 L 276 222 Z M 276 139 " clip-rule="nonzero"/></clipPath><clipPath id="e8167f83b9"><path d="M 264.914062 154.519531 L 344.757812 122.34375 L 378.773438 206.75 L 298.929688 238.925781 Z M 264.914062 154.519531 " clip-rule="nonzero"/></clipPath><clipPath id="6de29d92dc"><path d="M 264.914062 154.519531 L 344.757812 122.34375 L 378.773438 206.75 L 298.929688 238.925781 Z M 264.914062 154.519531 " clip-rule="nonzero"/></clipPath><clipPath id="8ede235e96"><path d="M 264.945312 154.601562 L 345.039062 122.324219 L 379.152344 206.972656 L 299.058594 239.25 Z M 264.945312 154.601562 " clip-rule="nonzero"/></clipPath><clipPath id="08837633f1"><path d="M 264.945312 154.601562 L 344.667969 122.472656 L 378.53125 206.507812 L 298.8125 238.632812 Z M 264.945312 154.601562 " clip-rule="nonzero"/></clipPath><clipPath id="340691660f"><path d="M 312 171 L 331 171 L 331 190 L 312 190 Z M 312 171 " clip-rule="nonzero"/></clipPath><clipPath id="f26863aa08"><path d="M 264.914062 154.519531 L 344.757812 122.34375 L 378.773438 206.75 L 298.929688 238.925781 Z M 264.914062 154.519531 " clip-rule="nonzero"/></clipPath><clipPath id="86eaf1e2d3"><path d="M 264.914062 154.519531 L 344.757812 122.34375 L 378.773438 206.75 L 298.929688 238.925781 Z M 264.914062 154.519531 " clip-rule="nonzero"/></clipPath><clipPath id="d9f4030e6d"><path d="M 42.539062 167.417969 L 339.78125 167.417969 L 339.78125 194.078125 L 42.539062 194.078125 Z M 42.539062 167.417969 " clip-rule="nonzero"/></clipPath><clipPath id="f9f3622c19"><path d="M 55.867188 167.417969 L 326.429688 167.417969 C 329.96875 167.417969 333.359375 168.820312 335.859375 171.320312 C 338.359375 173.820312 339.761719 177.210938 339.761719 180.75 C 339.761719 184.285156 338.359375 187.675781 335.859375 190.175781 C 333.359375 192.675781 329.96875 194.078125 326.429688 194.078125 L 55.867188 194.078125 C 52.332031 194.078125 48.941406 192.675781 46.441406 190.175781 C 43.941406 187.675781 42.539062 184.285156 42.539062 180.75 C 42.539062 177.210938 43.941406 173.820312 46.441406 171.320312 C 48.941406 168.820312 52.332031 167.417969 55.867188 167.417969 Z M 55.867188 167.417969 " clip-rule="nonzero"/></clipPath><clipPath id="5241a17a46"><path d="M 145 168 L 172 168 L 172 195 L 145 195 Z M 145 168 " clip-rule="nonzero"/></clipPath><clipPath id="c21a1b09f6"><path d="M 178.90625 19.546875 L 338.90625 179.546875 L 177.167969 341.289062 L 17.164062 181.289062 Z M 178.90625 19.546875 " clip-rule="nonzero"/></clipPath><clipPath id="aa7f27a8d4"><path d="M 178.90625 19.546875 L 338.90625 179.546875 L 177.167969 341.289062 L 17.164062 181.289062 Z M 178.90625 19.546875 " clip-rule="nonzero"/></clipPath><clipPath id="06df4b7f7c"><path d="M 95 170 L 118 170 L 118 196 L 95 196 Z M 95 170 " clip-rule="nonzero"/></clipPath><clipPath id="8909c1b9ce"><path d="M 178.90625 19.546875 L 338.90625 179.546875 L 177.167969 341.289062 L 17.164062 181.289062 Z M 178.90625 19.546875 " clip-rule="nonzero"/></clipPath><clipPath id="452637294f"><path d="M 178.90625 19.546875 L 338.90625 179.546875 L 177.167969 341.289062 L 17.164062 181.289062 Z M 178.90625 19.546875 " clip-rule="nonzero"/></clipPath><clipPath id="bcfea35965"><path d="M 40 168 L 68 168 L 68 198 L 40 198 Z M 40 168 " clip-rule="nonzero"/></clipPath><clipPath id="71da8809aa"><path d="M 178.90625 19.546875 L 338.90625 179.546875 L 177.167969 341.289062 L 17.164062 181.289062 Z M 178.90625 19.546875 " clip-rule="nonzero"/></clipPath><clipPath id="f0662eb536"><path d="M 178.90625 19.546875 L 338.90625 179.546875 L 177.167969 341.289062 L 17.164062 181.289062 Z M 178.90625 19.546875 " clip-rule="nonzero"/></clipPath><clipPath id="c9bd88537c"><path d="M 123 173 L 142 173 L 142 192 L 123 192 Z M 123 173 " clip-rule="nonzero"/></clipPath><clipPath id="591456e278"><path d="M 178.90625 19.546875 L 338.90625 179.546875 L 177.167969 341.289062 L 17.164062 181.289062 Z M 178.90625 19.546875 " clip-rule="nonzero"/></clipPath><clipPath id="1aebee8106"><path d="M 178.90625 19.546875 L 338.90625 179.546875 L 177.167969 341.289062 L 17.164062 181.289062 Z M 178.90625 19.546875 " clip-rule="nonzero"/></clipPath><clipPath id="e77e7494fa"><path d="M 74 173 L 86 173 L 86 193 L 74 193 Z M 74 173 " clip-rule="nonzero"/></clipPath><clipPath id="3960040b3b"><path d="M 178.90625 19.546875 L 338.90625 179.546875 L 177.167969 341.289062 L 17.164062 181.289062 Z M 178.90625 19.546875 " clip-rule="nonzero"/></clipPath><clipPath id="741918354f"><path d="M 178.90625 19.546875 L 338.90625 179.546875 L 177.167969 341.289062 L 17.164062 181.289062 Z M 178.90625 19.546875 " clip-rule="nonzero"/></clipPath><clipPath id="c8cb61c711"><path d="M 21 175 L 35 175 L 35 191 L 21 191 Z M 21 175 " clip-rule="nonzero"/></clipPath><clipPath id="d86dff7edd"><path d="M 178.90625 19.546875 L 338.90625 179.546875 L 177.167969 341.289062 L 17.164062 181.289062 Z M 178.90625 19.546875 " clip-rule="nonzero"/></clipPath><clipPath id="56441e807e"><path d="M 178.90625 19.546875 L 338.90625 179.546875 L 177.167969 341.289062 L 17.164062 181.289062 Z M 178.90625 19.546875 " clip-rule="nonzero"/></clipPath><clipPath id="a26b9366fd"><path d="M 306 167 L 332 167 L 332 195 L 306 195 Z M 306 167 " clip-rule="nonzero"/></clipPath><clipPath id="8140b31e92"><path d="M 178.90625 19.546875 L 338.90625 179.546875 L 177.167969 341.289062 L 17.164062 181.289062 Z M 178.90625 19.546875 " clip-rule="nonzero"/></clipPath><clipPath id="5285ca5db2"><path d="M 178.90625 19.546875 L 338.90625 179.546875 L 177.167969 341.289062 L 17.164062 181.289062 Z M 178.90625 19.546875 " clip-rule="nonzero"/></clipPath><clipPath id="1bd03ee461"><path d="M 255 169 L 279 169 L 279 195 L 255 195 Z M 255 169 " clip-rule="nonzero"/></clipPath><clipPath id="6f99ac2ea4"><path d="M 178.90625 19.546875 L 338.90625 179.546875 L 177.167969 341.289062 L 17.164062 181.289062 Z M 178.90625 19.546875 " clip-rule="nonzero"/></clipPath><clipPath id="81af551e72"><path d="M 178.90625 19.546875 L 338.90625 179.546875 L 177.167969 341.289062 L 17.164062 181.289062 Z M 178.90625 19.546875 " clip-rule="nonzero"/></clipPath><clipPath id="7b641656dd"><path d="M 201 167 L 229 167 L 229 197 L 201 197 Z M 201 167 " clip-rule="nonzero"/></clipPath><clipPath id="20607de11f"><path d="M 178.90625 19.546875 L 338.90625 179.546875 L 177.167969 341.289062 L 17.164062 181.289062 Z M 178.90625 19.546875 " clip-rule="nonzero"/></clipPath><clipPath id="51194c91da"><path d="M 178.90625 19.546875 L 338.90625 179.546875 L 177.167969 341.289062 L 17.164062 181.289062 Z M 178.90625 19.546875 " clip-rule="nonzero"/></clipPath><clipPath id="743c0cc05c"><path d="M 284 172 L 302 172 L 302 192 L 284 192 Z M 284 172 " clip-rule="nonzero"/></clipPath><clipPath id="df54d9459b"><path d="M 178.90625 19.546875 L 338.90625 179.546875 L 177.167969 341.289062 L 17.164062 181.289062 Z M 178.90625 19.546875 " clip-rule="nonzero"/></clipPath><clipPath id="1536bbe32c"><path d="M 178.90625 19.546875 L 338.90625 179.546875 L 177.167969 341.289062 L 17.164062 181.289062 Z M 178.90625 19.546875 " clip-rule="nonzero"/></clipPath><clipPath id="ba8e1e5abb"><path d="M 235 172 L 247 172 L 247 192 L 235 192 Z M 235 172 " clip-rule="nonzero"/></clipPath><clipPath id="2723442348"><path d="M 178.90625 19.546875 L 338.90625 179.546875 L 177.167969 341.289062 L 17.164062 181.289062 Z M 178.90625 19.546875 " clip-rule="nonzero"/></clipPath><clipPath id="434c43073f"><path d="M 178.90625 19.546875 L 338.90625 179.546875 L 177.167969 341.289062 L 17.164062 181.289062 Z M 178.90625 19.546875 " clip-rule="nonzero"/></clipPath><clipPath id="e64307abfe"><path d="M 182 174 L 196 174 L 196 190 L 182 190 Z M 182 174 " clip-rule="nonzero"/></clipPath><clipPath id="a291ec0aa2"><path d="M 178.90625 19.546875 L 338.90625 179.546875 L 177.167969 341.289062 L 17.164062 181.289062 Z M 178.90625 19.546875 " clip-rule="nonzero"/></clipPath><clipPath id="94606f2309"><path d="M 178.90625 19.546875 L 338.90625 179.546875 L 177.167969 341.289062 L 17.164062 181.289062 Z M 178.90625 19.546875 " clip-rule="nonzero"/></clipPath></defs><rect x="-37.5" width="450" fill="#ffffff" y="-37.499999" height="449.999989" fill-opacity="1"/><rect x="-37.5" width="450" fill="#ffffff" y="-37.499999" height="449.999989" fill-opacity="1"/><g clip-path="url(#03a53ab577)"><g clip-path="url(#772aeea2d8)"><g clip-path="url(#975a22765d)"><g clip-path="url(#a0ee10b4b3)"><g clip-path="url(#f51804e5b6)"><path fill="#72cbf2" d="M 45.863281 213.449219 C 48.492188 209.535156 50.472656 203.585938 51.703125 197.804688 C 52.800781 203.613281 54.644531 209.609375 57.175781 213.578125 C 62.488281 221.910156 68.566406 223.347656 74.234375 220.304688 C 79.785156 217.042969 81.722656 211.105469 77.371094 202.238281 C 75.285156 197.984375 71.089844 193.300781 66.675781 189.332031 C 72.269531 191.296875 78.414062 192.710938 83.144531 192.503906 C 93.015625 192.066406 97.296875 187.523438 97.492188 181.089844 C 97.449219 174.65625 93.273438 170.011719 83.417969 169.34375 C 78.691406 169.023438 72.519531 170.292969 66.878906 172.128906 C 71.382812 168.265625 75.6875 163.679688 77.875 159.480469 C 82.433594 150.710938 80.636719 144.734375 75.167969 141.34375 C 69.570312 138.167969 63.457031 139.460938 57.953125 147.664062 C 55.324219 151.574219 53.339844 157.523438 52.109375 163.304688 C 51.015625 157.496094 49.171875 151.503906 46.640625 147.527344 C 41.324219 139.199219 35.25 137.761719 29.578125 140.808594 C 24.027344 144.0625 22.09375 150.003906 26.445312 158.871094 C 28.53125 163.125 32.726562 167.808594 37.140625 171.777344 C 31.542969 169.808594 25.402344 168.398438 20.675781 168.605469 C 10.800781 169.042969 6.519531 173.585938 6.320312 180.019531 C 6.367188 186.453125 10.542969 191.097656 20.398438 191.765625 C 25.121094 192.085938 31.300781 190.816406 36.9375 188.984375 C 32.433594 192.84375 28.128906 197.429688 25.941406 201.628906 C 21.382812 210.398438 23.175781 216.378906 28.648438 219.765625 C 34.246094 222.941406 40.355469 221.652344 45.863281 213.449219 " fill-opacity="1" fill-rule="nonzero"/></g></g></g></g></g><g clip-path="url(#713a5a81a3)"><g clip-path="url(#4b4726c432)"><g clip-path="url(#bc7a5167c9)"><path fill="#7bc0e8" d="M 51.800781 189.5625 C 46.824219 189.503906 42.839844 185.421875 42.898438 180.449219 C 42.957031 175.472656 47.039062 171.484375 52.015625 171.542969 C 56.988281 171.605469 60.972656 175.6875 60.914062 180.660156 C 60.859375 185.632812 56.777344 189.621094 51.800781 189.5625 " fill-opacity="1" fill-rule="nonzero"/></g></g></g><g clip-path="url(#02a6deb16f)"><g clip-path="url(#722d70c7d8)"><g clip-path="url(#07e8ec7c0c)"><g clip-path="url(#6f10643bf1)"><g clip-path="url(#b489ce1634)"><path fill="#72cbf2" d="M 99.179688 213.449219 C 101.808594 209.535156 103.792969 203.585938 105.023438 197.804688 C 106.117188 203.613281 107.960938 209.609375 110.496094 213.578125 C 115.808594 221.910156 121.886719 223.347656 127.554688 220.304688 C 133.105469 217.042969 135.042969 211.105469 130.691406 202.238281 C 128.605469 197.984375 124.40625 193.300781 119.992188 189.332031 C 125.589844 191.296875 131.734375 192.710938 136.464844 192.503906 C 146.335938 192.066406 150.617188 187.523438 150.8125 181.089844 C 150.769531 174.65625 146.59375 170.011719 136.734375 169.34375 C 132.011719 169.023438 125.839844 170.292969 120.195312 172.128906 C 124.703125 168.265625 129.007812 163.679688 131.191406 159.480469 C 135.753906 150.710938 133.953125 144.734375 128.484375 141.34375 C 122.886719 138.167969 116.777344 139.460938 111.273438 147.664062 C 108.644531 151.574219 106.660156 157.523438 105.429688 163.304688 C 104.335938 157.496094 102.492188 151.503906 99.960938 147.527344 C 94.644531 139.199219 88.566406 137.761719 82.898438 140.808594 C 77.347656 144.0625 75.410156 150.003906 79.761719 158.871094 C 81.851562 163.125 86.046875 167.808594 90.460938 171.777344 C 84.863281 169.808594 78.71875 168.398438 73.992188 168.605469 C 64.121094 169.042969 59.839844 173.585938 59.640625 180.019531 C 59.6875 186.453125 63.859375 191.097656 73.71875 191.765625 C 78.441406 192.085938 84.617188 190.816406 90.257812 188.984375 C 85.75 192.84375 81.445312 197.429688 79.261719 201.628906 C 74.703125 210.398438 76.496094 216.378906 81.96875 219.765625 C 87.566406 222.941406 93.675781 221.652344 99.179688 213.449219 " fill-opacity="1" fill-rule="nonzero"/></g></g></g></g></g><g clip-path="url(#dfef538160)"><g clip-path="url(#0bf60c04f3)"><g clip-path="url(#309e3cb9d8)"><path fill="#7bc0e8" d="M 105.121094 189.5625 C 100.144531 189.503906 96.160156 185.421875 96.214844 180.449219 C 96.277344 175.472656 100.355469 171.484375 105.332031 171.542969 C 110.304688 171.605469 114.292969 175.6875 114.234375 180.660156 C 114.175781 185.632812 110.097656 189.621094 105.121094 189.5625 " fill-opacity="1" fill-rule="nonzero"/></g></g></g><g clip-path="url(#129a3bfff6)"><g clip-path="url(#163c5c38ad)"><g clip-path="url(#fb2b8d512a)"><g clip-path="url(#e4285de0d5)"><g clip-path="url(#6d7a198460)"><path fill="#72cbf2" d="M 152.4375 213.449219 C 155.066406 209.535156 157.050781 203.585938 158.28125 197.804688 C 159.375 203.613281 161.21875 209.609375 163.753906 213.578125 C 169.066406 221.910156 175.144531 223.347656 180.8125 220.304688 C 186.359375 217.042969 188.300781 211.105469 183.949219 202.238281 C 181.863281 197.984375 177.664062 193.300781 173.25 189.332031 C 178.847656 191.296875 184.992188 192.710938 189.71875 192.503906 C 199.589844 192.066406 203.875 187.523438 204.070312 181.089844 C 204.027344 174.65625 199.851562 170.011719 189.992188 169.34375 C 185.269531 169.023438 179.09375 170.292969 173.453125 172.128906 C 177.960938 168.265625 182.265625 163.679688 184.449219 159.480469 C 189.011719 150.710938 187.210938 144.734375 181.742188 141.34375 C 176.144531 138.167969 170.035156 139.460938 164.53125 147.664062 C 161.902344 151.574219 159.917969 157.523438 158.6875 163.304688 C 157.59375 157.496094 155.75 151.503906 153.21875 147.527344 C 147.902344 139.199219 141.824219 137.761719 136.15625 140.808594 C 130.605469 144.0625 128.667969 150.003906 133.019531 158.871094 C 135.109375 163.125 139.304688 167.808594 143.71875 171.777344 C 138.121094 169.808594 131.976562 168.398438 127.25 168.605469 C 117.378906 169.042969 113.097656 173.585938 112.898438 180.019531 C 112.945312 186.453125 117.117188 191.097656 126.976562 191.765625 C 131.699219 192.085938 137.875 190.816406 143.515625 188.984375 C 139.007812 192.84375 134.703125 197.429688 132.519531 201.628906 C 127.960938 210.398438 129.753906 216.378906 135.226562 219.765625 C 140.824219 222.941406 146.929688 221.652344 152.4375 213.449219 " fill-opacity="1" fill-rule="nonzero"/></g></g></g></g></g><g clip-path="url(#a04cd29954)"><g clip-path="url(#1f70aef328)"><g clip-path="url(#408b9822be)"><path fill="#7bc0e8" d="M 158.378906 189.5625 C 153.402344 189.503906 149.417969 185.421875 149.472656 180.449219 C 149.535156 175.472656 153.613281 171.484375 158.589844 171.542969 C 163.5625 171.605469 167.550781 175.6875 167.492188 180.660156 C 167.433594 185.632812 163.351562 189.621094 158.378906 189.5625 " fill-opacity="1" fill-rule="nonzero"/></g></g></g><g clip-path="url(#09badae440)"><g clip-path="url(#9cf70fd4dd)"><g clip-path="url(#c5aae6901c)"><g clip-path="url(#4d95f2610e)"><g clip-path="url(#fc97abccb0)"><path fill="#72cbf2" d="M 205.878906 213.449219 C 208.507812 209.535156 210.492188 203.585938 211.722656 197.804688 C 212.816406 203.613281 214.660156 209.609375 217.195312 213.578125 C 222.507812 221.910156 228.585938 223.347656 234.253906 220.304688 C 239.800781 217.042969 241.742188 211.105469 237.390625 202.238281 C 235.300781 197.984375 231.105469 193.300781 226.691406 189.332031 C 232.289062 191.296875 238.433594 192.710938 243.160156 192.503906 C 253.03125 192.066406 257.316406 187.523438 257.511719 181.089844 C 257.464844 174.65625 253.292969 170.011719 243.433594 169.34375 C 238.710938 169.023438 232.535156 170.292969 226.894531 172.128906 C 231.402344 168.265625 235.707031 163.679688 237.890625 159.480469 C 242.449219 150.710938 240.652344 144.734375 235.183594 141.34375 C 229.585938 138.167969 223.476562 139.460938 217.96875 147.664062 C 215.34375 151.574219 213.359375 157.523438 212.128906 163.304688 C 211.03125 157.496094 209.191406 151.503906 206.65625 147.527344 C 201.34375 139.199219 195.265625 137.761719 189.597656 140.808594 C 184.042969 144.0625 182.109375 150.003906 186.460938 158.871094 C 188.546875 163.125 192.746094 167.808594 197.15625 171.777344 C 191.5625 169.808594 185.417969 168.398438 180.691406 168.605469 C 170.816406 169.042969 166.539062 173.585938 166.339844 180.019531 C 166.382812 186.453125 170.558594 191.097656 180.417969 191.765625 C 185.140625 192.085938 191.316406 190.816406 196.953125 188.984375 C 192.449219 192.84375 188.144531 197.429688 185.957031 201.628906 C 181.398438 210.398438 183.195312 216.378906 188.667969 219.765625 C 194.261719 222.941406 200.371094 221.652344 205.878906 213.449219 " fill-opacity="1" fill-rule="nonzero"/></g></g></g></g></g><g clip-path="url(#0bb9ebe874)"><g clip-path="url(#d77daa64b8)"><g clip-path="url(#3b2e5fa662)"><path fill="#7bc0e8" d="M 211.816406 189.5625 C 206.84375 189.503906 202.859375 185.421875 202.914062 180.449219 C 202.976562 175.472656 207.054688 171.484375 212.03125 171.542969 C 217.003906 171.605469 220.992188 175.6875 220.933594 180.660156 C 220.875 185.632812 216.792969 189.621094 211.816406 189.5625 " fill-opacity="1" fill-rule="nonzero"/></g></g></g><g clip-path="url(#a523832ad2)"><g clip-path="url(#8abbe73def)"><g clip-path="url(#4593e8288a)"><g clip-path="url(#f478672e21)"><g clip-path="url(#26f700f751)"><path fill="#72cbf2" d="M 260.6875 213.449219 C 263.316406 209.535156 265.296875 203.585938 266.53125 197.804688 C 267.625 203.613281 269.46875 209.609375 272.003906 213.578125 C 277.3125 221.910156 283.390625 223.347656 289.058594 220.304688 C 294.609375 217.042969 296.546875 211.105469 292.195312 202.238281 C 290.109375 197.984375 285.914062 193.300781 281.5 189.332031 C 287.097656 191.296875 293.238281 192.710938 297.96875 192.503906 C 307.839844 192.066406 312.121094 187.523438 312.320312 181.089844 C 312.273438 174.65625 308.097656 170.011719 298.242188 169.34375 C 293.519531 169.023438 287.34375 170.292969 281.703125 172.128906 C 286.207031 168.265625 290.511719 163.679688 292.699219 159.480469 C 297.257812 150.710938 295.460938 144.734375 289.992188 141.34375 C 284.394531 138.167969 278.28125 139.460938 272.777344 147.664062 C 270.148438 151.574219 268.167969 157.523438 266.933594 163.304688 C 265.839844 157.496094 263.996094 151.503906 261.464844 147.527344 C 256.152344 139.199219 250.074219 137.761719 244.40625 140.808594 C 238.851562 144.0625 236.917969 150.003906 241.269531 158.871094 C 243.355469 163.125 247.550781 167.808594 251.964844 171.777344 C 246.367188 169.808594 240.226562 168.398438 235.5 168.605469 C 225.625 169.042969 221.34375 173.585938 221.144531 180.019531 C 221.191406 186.453125 225.367188 191.097656 235.222656 191.765625 C 239.945312 192.085938 246.125 190.816406 251.761719 188.984375 C 247.257812 192.84375 242.953125 197.429688 240.765625 201.628906 C 236.207031 210.398438 238 216.378906 243.472656 219.765625 C 249.070312 222.941406 255.179688 221.652344 260.6875 213.449219 " fill-opacity="1" fill-rule="nonzero"/></g></g></g></g></g><g clip-path="url(#a1e95cad77)"><g clip-path="url(#3be6f7a345)"><g clip-path="url(#7c2aed0954)"><path fill="#7bc0e8" d="M 266.625 189.5625 C 261.648438 189.503906 257.667969 185.421875 257.722656 180.449219 C 257.78125 175.472656 261.863281 171.484375 266.839844 171.542969 C 271.8125 171.605469 275.796875 175.6875 275.738281 180.660156 C 275.683594 185.632812 271.601562 189.621094 266.625 189.5625 " fill-opacity="1" fill-rule="nonzero"/></g></g></g><g clip-path="url(#60cf92db59)"><g clip-path="url(#e8167f83b9)"><g clip-path="url(#6de29d92dc)"><g clip-path="url(#8ede235e96)"><g clip-path="url(#08837633f1)"><path fill="#72cbf2" d="M 315.695312 213.449219 C 318.320312 209.535156 320.304688 203.585938 321.535156 197.804688 C 322.632812 203.613281 324.472656 209.609375 327.007812 213.578125 C 332.320312 221.910156 338.398438 223.347656 344.066406 220.304688 C 349.617188 217.042969 351.554688 211.105469 347.203125 202.238281 C 345.117188 197.984375 340.917969 193.300781 336.503906 189.332031 C 342.101562 191.296875 348.246094 192.710938 352.976562 192.503906 C 362.847656 192.066406 367.128906 187.523438 367.324219 181.089844 C 367.28125 174.65625 363.105469 170.011719 353.246094 169.34375 C 348.523438 169.023438 342.351562 170.292969 336.710938 172.128906 C 341.214844 168.265625 345.519531 163.679688 347.707031 159.480469 C 352.265625 150.710938 350.46875 144.734375 344.996094 141.34375 C 339.402344 138.167969 333.289062 139.460938 327.785156 147.664062 C 325.15625 151.574219 323.171875 157.523438 321.941406 163.304688 C 320.847656 157.496094 319.003906 151.503906 316.472656 147.527344 C 311.15625 139.199219 305.078125 137.761719 299.410156 140.804688 C 293.859375 144.0625 291.921875 150.003906 296.277344 158.871094 C 298.363281 163.125 302.558594 167.808594 306.972656 171.777344 C 301.375 169.808594 295.230469 168.398438 290.503906 168.605469 C 280.632812 169.042969 276.351562 173.585938 276.152344 180.019531 C 276.199219 186.453125 280.375 191.097656 290.230469 191.765625 C 294.953125 192.085938 301.128906 190.816406 306.769531 188.984375 C 302.265625 192.84375 297.957031 197.429688 295.773438 201.628906 C 291.214844 210.398438 293.007812 216.378906 298.480469 219.765625 C 304.078125 222.941406 310.1875 221.652344 315.695312 213.449219 " fill-opacity="1" fill-rule="nonzero"/></g></g></g></g></g><g clip-path="url(#340691660f)"><g clip-path="url(#f26863aa08)"><g clip-path="url(#86eaf1e2d3)"><path fill="#7bc0e8" d="M 321.632812 189.5625 C 316.65625 189.503906 312.671875 185.421875 312.730469 180.449219 C 312.789062 175.472656 316.871094 171.484375 321.84375 171.542969 C 326.820312 171.605469 330.804688 175.6875 330.746094 180.660156 C 330.691406 185.632812 326.609375 189.621094 321.632812 189.5625 " fill-opacity="1" fill-rule="nonzero"/></g></g></g><g clip-path="url(#d9f4030e6d)"><g clip-path="url(#f9f3622c19)"><path fill="#72cbf2" d="M 42.539062 167.417969 L 339.78125 167.417969 L 339.78125 194.078125 L 42.539062 194.078125 Z M 42.539062 167.417969 " fill-opacity="1" fill-rule="nonzero"/></g></g><g clip-path="url(#5241a17a46)"><g clip-path="url(#c21a1b09f6)"><g clip-path="url(#aa7f27a8d4)"><path fill="#37a1df" d="M 164.101562 169.300781 C 158.136719 166.230469 150.480469 168.835938 147.457031 174.742188 C 147.195312 175.246094 147.074219 175.746094 147.058594 176.21875 C 143.90625 182.359375 145.550781 190.941406 152.296875 193.980469 C 158.882812 196.945312 167.15625 192.722656 169.949219 186.429688 C 172.679688 180.273438 170.195312 172.441406 164.101562 169.300781 Z M 164.101562 169.300781 " fill-opacity="1" fill-rule="nonzero"/></g></g></g><g clip-path="url(#06df4b7f7c)"><g clip-path="url(#8909c1b9ce)"><g clip-path="url(#452637294f)"><path fill="#d986ba" d="M 108.449219 194.714844 C 108.832031 194.589844 109.21875 194.449219 109.601562 194.296875 C 111.6875 194.152344 113.46875 193.003906 114.667969 191.324219 C 114.941406 191.09375 115.203125 190.859375 115.449219 190.617188 C 117.585938 188.523438 117.570312 186.007812 117.050781 183.167969 C 116.65625 181.015625 115.78125 178.773438 114.417969 176.914062 C 113.742188 175.886719 112.878906 174.988281 111.78125 174.3125 C 111.761719 174.300781 111.746094 174.296875 111.726562 174.285156 C 111.675781 174.25 111.621094 174.21875 111.570312 174.1875 C 108.765625 170.984375 104.613281 168.726562 100.800781 171.1875 C 99.671875 171.917969 98.6875 172.890625 97.914062 173.992188 C 94.171875 177.464844 94.488281 183.394531 96.570312 187.914062 C 98.730469 192.609375 102.914062 196.488281 108.449219 194.714844 Z M 108.449219 194.714844 " fill-opacity="1" fill-rule="nonzero"/></g></g></g><g clip-path="url(#bcfea35965)"><g clip-path="url(#71da8809aa)"><g clip-path="url(#f0662eb536)"><path fill="#837ab8" d="M 62.488281 171.296875 C 56.609375 167.15625 47.582031 168 42.703125 173.476562 C 39.742188 176.804688 40.285156 181.894531 42.304688 186.347656 C 41.550781 188.914062 41.609375 191.496094 43.011719 193.664062 C 45.628906 197.714844 49.609375 197.851562 53.320312 196.21875 C 58.976562 197.179688 64.976562 194.078125 66.53125 187.71875 C 66.671875 187.140625 66.761719 186.566406 66.8125 185.996094 C 68.476562 180.738281 67.195312 174.613281 62.488281 171.296875 Z M 62.488281 171.296875 " fill-opacity="1" fill-rule="nonzero"/></g></g></g><g clip-path="url(#c9bd88537c)"><g clip-path="url(#591456e278)"><g clip-path="url(#1aebee8106)"><path fill="#837ab8" d="M 132.511719 174.914062 C 128.496094 169.925781 120.46875 175.8125 124.496094 180.8125 L 131.960938 190.085938 C 135.976562 195.070312 144.003906 189.183594 139.976562 184.183594 Z M 132.511719 174.914062 " fill-opacity="1" fill-rule="nonzero"/></g></g></g><g clip-path="url(#e77e7494fa)"><g clip-path="url(#3960040b3b)"><g clip-path="url(#741918354f)"><path fill="#009ba2" d="M 82.164062 173.644531 C 79.644531 173.007812 76.535156 174.542969 76.003906 177.152344 C 75.324219 180.496094 74.828125 183.851562 74.414062 187.234375 C 74.09375 189.867188 77.058594 192.101562 79.53125 192.070312 C 82.554688 192.027344 84.1875 189.738281 84.507812 187.097656 C 84.8125 184.59375 85.269531 182.101562 85.773438 179.628906 C 86.304688 177.03125 84.914062 174.339844 82.164062 173.644531 Z M 82.164062 173.644531 " fill-opacity="1" fill-rule="nonzero"/></g></g></g><g clip-path="url(#c8cb61c711)"><g clip-path="url(#d86dff7edd)"><g clip-path="url(#56441e807e)"><path fill="#cdddf4" d="M 33.847656 188.253906 C 34.855469 186.472656 34.367188 184.121094 33.550781 182.070312 C 33.296875 181.015625 32.742188 179.71875 31.972656 178.609375 C 32.023438 177.921875 31.730469 177.253906 30.929688 176.871094 C 28.046875 175.503906 23.765625 174.691406 22.125 178.664062 C 20.765625 181.949219 22.617188 185.894531 24.742188 188.171875 C 25.214844 188.683594 25.769531 188.859375 26.304688 188.808594 C 26.429688 188.925781 26.558594 189.03125 26.6875 189.132812 C 28.816406 190.808594 32.242188 191.089844 33.847656 188.253906 Z M 33.847656 188.253906 " fill-opacity="1" fill-rule="nonzero"/></g></g></g><g clip-path="url(#a26b9366fd)"><g clip-path="url(#8140b31e92)"><g clip-path="url(#5285ca5db2)"><path fill="#37a1df" d="M 324.828125 168.417969 C 318.863281 165.34375 311.207031 167.949219 308.183594 173.855469 C 307.921875 174.363281 307.800781 174.859375 307.785156 175.332031 C 304.632812 181.472656 306.277344 190.054688 313.023438 193.09375 C 319.609375 196.058594 327.882812 191.835938 330.675781 185.546875 C 333.40625 179.386719 330.925781 171.554688 324.828125 168.417969 Z M 324.828125 168.417969 " fill-opacity="1" fill-rule="nonzero"/></g></g></g><g clip-path="url(#1bd03ee461)"><g clip-path="url(#6f99ac2ea4)"><g clip-path="url(#81af551e72)"><path fill="#d986ba" d="M 269.175781 193.828125 C 269.558594 193.707031 269.945312 193.5625 270.328125 193.410156 C 272.414062 193.265625 274.195312 192.121094 275.394531 190.4375 C 275.667969 190.210938 275.929688 189.976562 276.175781 189.734375 C 278.3125 187.636719 278.296875 185.125 277.777344 182.28125 C 277.386719 180.132812 276.511719 177.890625 275.144531 176.03125 C 274.46875 175.003906 273.605469 174.105469 272.507812 173.429688 C 272.488281 173.417969 272.472656 173.410156 272.453125 173.398438 C 272.402344 173.363281 272.347656 173.335938 272.296875 173.300781 C 269.492188 170.101562 265.339844 167.839844 261.527344 170.300781 C 260.398438 171.03125 259.414062 172.003906 258.640625 173.109375 C 254.898438 176.578125 255.214844 182.507812 257.296875 187.027344 C 259.460938 191.726562 263.640625 195.605469 269.175781 193.828125 Z M 269.175781 193.828125 " fill-opacity="1" fill-rule="nonzero"/></g></g></g><g clip-path="url(#7b641656dd)"><g clip-path="url(#20607de11f)"><g clip-path="url(#51194c91da)"><path fill="#837ab8" d="M 223.214844 170.414062 C 217.335938 166.269531 208.308594 167.113281 203.429688 172.59375 C 200.46875 175.917969 201.011719 181.007812 203.03125 185.460938 C 202.277344 188.027344 202.335938 190.609375 203.738281 192.777344 C 206.355469 196.828125 210.335938 196.964844 214.046875 195.335938 C 219.703125 196.296875 225.703125 193.191406 227.257812 186.832031 C 227.398438 186.253906 227.488281 185.679688 227.539062 185.109375 C 229.203125 179.851562 227.921875 173.726562 223.214844 170.414062 Z M 223.214844 170.414062 " fill-opacity="1" fill-rule="nonzero"/></g></g></g><g clip-path="url(#743c0cc05c)"><g clip-path="url(#df54d9459b)"><g clip-path="url(#1536bbe32c)"><path fill="#837ab8" d="M 293.238281 174.027344 C 289.222656 169.042969 281.195312 174.929688 285.222656 179.929688 L 292.6875 189.199219 C 296.703125 194.183594 304.730469 188.296875 300.703125 183.296875 Z M 293.238281 174.027344 " fill-opacity="1" fill-rule="nonzero"/></g></g></g><g clip-path="url(#ba8e1e5abb)"><g clip-path="url(#2723442348)"><g clip-path="url(#434c43073f)"><path fill="#009ba2" d="M 242.890625 172.757812 C 240.371094 172.125 237.261719 173.660156 236.730469 176.269531 C 236.050781 179.609375 235.554688 182.964844 235.140625 186.347656 C 234.820312 188.984375 237.785156 191.21875 240.257812 191.183594 C 243.28125 191.140625 244.914062 188.855469 245.234375 186.210938 C 245.539062 183.707031 245.996094 181.214844 246.5 178.742188 C 247.03125 176.148438 245.640625 173.453125 242.890625 172.757812 Z M 242.890625 172.757812 " fill-opacity="1" fill-rule="nonzero"/></g></g></g><g clip-path="url(#e64307abfe)"><g clip-path="url(#a291ec0aa2)"><g clip-path="url(#94606f2309)"><path fill="#cdddf4" d="M 194.574219 187.367188 C 195.582031 185.585938 195.09375 183.238281 194.277344 181.1875 C 194.023438 180.128906 193.46875 178.835938 192.699219 177.722656 C 192.75 177.035156 192.457031 176.367188 191.65625 175.988281 C 188.773438 174.621094 184.492188 173.804688 182.851562 177.777344 C 181.492188 181.066406 183.34375 185.007812 185.46875 187.289062 C 185.941406 187.796875 186.496094 187.976562 187.03125 187.925781 C 187.15625 188.039062 187.285156 188.148438 187.414062 188.246094 C 189.542969 189.925781 192.96875 190.203125 194.574219 187.367188 Z M 194.574219 187.367188 " fill-opacity="1" fill-rule="nonzero"/></g></g></g></svg>