<svg xmlns="http://www.w3.org/2000/svg" xmlns:xlink="http://www.w3.org/1999/xlink" width="500" zoomAndPan="magnify" viewBox="0 0 375 374.999991" height="500" preserveAspectRatio="xMidYMid meet" version="1.0"><defs><g/><clipPath id="ae6e94f24f"><path d="M 215 85 L 331 85 L 331 202 L 215 202 Z M 215 85 " clip-rule="nonzero"/></clipPath><clipPath id="269a596a2b"><path d="M 239.1875 62.9375 L 353.902344 110.09375 L 306.742188 224.808594 L 192.03125 177.652344 Z M 239.1875 62.9375 " clip-rule="nonzero"/></clipPath><clipPath id="cd5cfdef0d"><path d="M 239.1875 62.9375 L 353.902344 110.09375 L 306.742188 224.808594 L 192.03125 177.652344 Z M 239.1875 62.9375 " clip-rule="nonzero"/></clipPath><clipPath id="6331a65237"><path d="M 226 176 L 246 176 L 246 196 L 226 196 Z M 226 176 " clip-rule="nonzero"/></clipPath><clipPath id="365273cdd0"><path d="M 238.988281 63.425781 L 355.867188 111.472656 L 308.707031 226.1875 L 191.828125 178.136719 Z M 238.988281 63.425781 " clip-rule="nonzero"/></clipPath><clipPath id="7655652647"><path d="M 238.988281 63.425781 L 355.867188 111.472656 L 308.707031 226.1875 L 191.828125 178.136719 Z M 238.988281 63.425781 " clip-rule="nonzero"/></clipPath><clipPath id="4c3878802d"><path d="M 262 190 L 279 190 L 279 209 L 262 209 Z M 262 190 " clip-rule="nonzero"/></clipPath><clipPath id="0982992c2c"><path d="M 238.988281 63.425781 L 355.867188 111.472656 L 308.707031 226.1875 L 191.828125 178.136719 Z M 238.988281 63.425781 " clip-rule="nonzero"/></clipPath><clipPath id="a0b6f014e3"><path d="M 238.988281 63.425781 L 355.867188 111.472656 L 308.707031 226.1875 L 191.828125 178.136719 Z M 238.988281 63.425781 " clip-rule="nonzero"/></clipPath><clipPath id="59bbc3877a"><path d="M 295 178 L 317 178 L 317 201 L 295 201 Z M 295 178 " clip-rule="nonzero"/></clipPath><clipPath id="c1cd1f9d92"><path d="M 238.988281 63.425781 L 355.867188 111.472656 L 308.707031 226.1875 L 191.828125 178.136719 Z M 238.988281 63.425781 " clip-rule="nonzero"/></clipPath><clipPath id="9b3123124f"><path d="M 238.988281 63.425781 L 355.867188 111.472656 L 308.707031 226.1875 L 191.828125 178.136719 Z M 238.988281 63.425781 " clip-rule="nonzero"/></clipPath><clipPath id="cf9c902d95"><path d="M 247 187 L 258 187 L 258 203 L 247 203 Z M 247 187 " clip-rule="nonzero"/></clipPath><clipPath id="82d02c7e94"><path d="M 238.988281 63.425781 L 355.867188 111.472656 L 308.707031 226.1875 L 191.828125 178.136719 Z M 238.988281 63.425781 " clip-rule="nonzero"/></clipPath><clipPath id="e0e6cc2ea0"><path d="M 238.988281 63.425781 L 355.867188 111.472656 L 308.707031 226.1875 L 191.828125 178.136719 Z M 238.988281 63.425781 " clip-rule="nonzero"/></clipPath><clipPath id="23b2b59219"><path d="M 284 190 L 293 190 L 293 205 L 284 205 Z M 284 190 " clip-rule="nonzero"/></clipPath><clipPath id="3d4f39fd0e"><path d="M 238.988281 63.425781 L 355.867188 111.472656 L 308.707031 226.1875 L 191.828125 178.136719 Z M 238.988281 63.425781 " clip-rule="nonzero"/></clipPath><clipPath id="b3a2535af4"><path d="M 238.988281 63.425781 L 355.867188 111.472656 L 308.707031 226.1875 L 191.828125 178.136719 Z M 238.988281 63.425781 " clip-rule="nonzero"/></clipPath><clipPath id="b244e84494"><path d="M 312 172 L 324 172 L 324 181 L 312 181 Z M 312 172 " clip-rule="nonzero"/></clipPath><clipPath id="076660e9f9"><path d="M 238.988281 63.425781 L 355.867188 111.472656 L 308.707031 226.1875 L 191.828125 178.136719 Z M 238.988281 63.425781 " clip-rule="nonzero"/></clipPath><clipPath id="18a6a3bb19"><path d="M 238.988281 63.425781 L 355.867188 111.472656 L 308.707031 226.1875 L 191.828125 178.136719 Z M 238.988281 63.425781 " clip-rule="nonzero"/></clipPath><clipPath id="a934cce3c0"><path d="M 247 84 L 266 84 L 266 104 L 247 104 Z M 247 84 " clip-rule="nonzero"/></clipPath><clipPath id="f9254eeab7"><path d="M 238.988281 63.425781 L 355.867188 111.472656 L 308.707031 226.1875 L 191.828125 178.136719 Z M 238.988281 63.425781 " clip-rule="nonzero"/></clipPath><clipPath id="9ddcb19c78"><path d="M 238.988281 63.425781 L 355.867188 111.472656 L 308.707031 226.1875 L 191.828125 178.136719 Z M 238.988281 63.425781 " clip-rule="nonzero"/></clipPath><clipPath id="731a4471ec"><path d="M 218 108 L 236 108 L 236 124 L 218 124 Z M 218 108 " clip-rule="nonzero"/></clipPath><clipPath id="878103b0ad"><path d="M 238.988281 63.425781 L 355.867188 111.472656 L 308.707031 226.1875 L 191.828125 178.136719 Z M 238.988281 63.425781 " clip-rule="nonzero"/></clipPath><clipPath id="ee620b9e8e"><path d="M 238.988281 63.425781 L 355.867188 111.472656 L 308.707031 226.1875 L 191.828125 178.136719 Z M 238.988281 63.425781 " clip-rule="nonzero"/></clipPath><clipPath id="285ece8687"><path d="M 208 142 L 230 142 L 230 163 L 208 163 Z M 208 142 " clip-rule="nonzero"/></clipPath><clipPath id="827ecb978f"><path d="M 238.988281 63.425781 L 355.867188 111.472656 L 308.707031 226.1875 L 191.828125 178.136719 Z M 238.988281 63.425781 " clip-rule="nonzero"/></clipPath><clipPath id="b7231d3f52"><path d="M 238.988281 63.425781 L 355.867188 111.472656 L 308.707031 226.1875 L 191.828125 178.136719 Z M 238.988281 63.425781 " clip-rule="nonzero"/></clipPath><clipPath id="e6a6aa3333"><path d="M 232 98 L 248 98 L 248 108 L 232 108 Z M 232 98 " clip-rule="nonzero"/></clipPath><clipPath id="a2e648384d"><path d="M 238.988281 63.425781 L 355.867188 111.472656 L 308.707031 226.1875 L 191.828125 178.136719 Z M 238.988281 63.425781 " clip-rule="nonzero"/></clipPath><clipPath id="a1f04d279f"><path d="M 238.988281 63.425781 L 355.867188 111.472656 L 308.707031 226.1875 L 191.828125 178.136719 Z M 238.988281 63.425781 " clip-rule="nonzero"/></clipPath><clipPath id="d8c42bb6e8"><path d="M 213 128 L 227 128 L 227 138 L 213 138 Z M 213 128 " clip-rule="nonzero"/></clipPath><clipPath id="c17f461019"><path d="M 238.988281 63.425781 L 355.867188 111.472656 L 308.707031 226.1875 L 191.828125 178.136719 Z M 238.988281 63.425781 " clip-rule="nonzero"/></clipPath><clipPath id="bd6b72e87e"><path d="M 238.988281 63.425781 L 355.867188 111.472656 L 308.707031 226.1875 L 191.828125 178.136719 Z M 238.988281 63.425781 " clip-rule="nonzero"/></clipPath><clipPath id="9c9d0266f6"><path d="M 219 164 L 229 164 L 229 175 L 219 175 Z M 219 164 " clip-rule="nonzero"/></clipPath><clipPath id="bf155b6168"><path d="M 238.988281 63.425781 L 355.867188 111.472656 L 308.707031 226.1875 L 191.828125 178.136719 Z M 238.988281 63.425781 " clip-rule="nonzero"/></clipPath><clipPath id="3874fbb67f"><path d="M 238.988281 63.425781 L 355.867188 111.472656 L 308.707031 226.1875 L 191.828125 178.136719 Z M 238.988281 63.425781 " clip-rule="nonzero"/></clipPath><clipPath id="ca81dd4ab3"><path d="M 317 149 L 337 149 L 337 168 L 317 168 Z M 317 149 " clip-rule="nonzero"/></clipPath><clipPath id="0d9bd371be"><path d="M 238.988281 63.425781 L 355.867188 111.472656 L 308.707031 226.1875 L 191.828125 178.136719 Z M 238.988281 63.425781 " clip-rule="nonzero"/></clipPath><clipPath id="47040ecb9a"><path d="M 238.988281 63.425781 L 355.867188 111.472656 L 308.707031 226.1875 L 191.828125 178.136719 Z M 238.988281 63.425781 " clip-rule="nonzero"/></clipPath><clipPath id="dcc0226eeb"><path d="M 312 113 L 330 113 L 330 131 L 312 131 Z M 312 113 " clip-rule="nonzero"/></clipPath><clipPath id="0af2f56fc3"><path d="M 238.988281 63.425781 L 355.867188 111.472656 L 308.707031 226.1875 L 191.828125 178.136719 Z M 238.988281 63.425781 " clip-rule="nonzero"/></clipPath><clipPath id="5e6ce15365"><path d="M 238.988281 63.425781 L 355.867188 111.472656 L 308.707031 226.1875 L 191.828125 178.136719 Z M 238.988281 63.425781 " clip-rule="nonzero"/></clipPath><clipPath id="0b8d2ffb37"><path d="M 284 86 L 305 86 L 305 107 L 284 107 Z M 284 86 " clip-rule="nonzero"/></clipPath><clipPath id="7511b27742"><path d="M 238.988281 63.425781 L 355.867188 111.472656 L 308.707031 226.1875 L 191.828125 178.136719 Z M 238.988281 63.425781 " clip-rule="nonzero"/></clipPath><clipPath id="d4780b7cf9"><path d="M 238.988281 63.425781 L 355.867188 111.472656 L 308.707031 226.1875 L 191.828125 178.136719 Z M 238.988281 63.425781 " clip-rule="nonzero"/></clipPath><clipPath id="a9a2a1b9f1"><path d="M 320 132 L 334 132 L 334 146 L 320 146 Z M 320 132 " clip-rule="nonzero"/></clipPath><clipPath id="71d331617e"><path d="M 238.988281 63.425781 L 355.867188 111.472656 L 308.707031 226.1875 L 191.828125 178.136719 Z M 238.988281 63.425781 " clip-rule="nonzero"/></clipPath><clipPath id="4c9cd482ed"><path d="M 238.988281 63.425781 L 355.867188 111.472656 L 308.707031 226.1875 L 191.828125 178.136719 Z M 238.988281 63.425781 " clip-rule="nonzero"/></clipPath><clipPath id="0d20906343"><path d="M 303 101 L 317 101 L 317 113 L 303 113 Z M 303 101 " clip-rule="nonzero"/></clipPath><clipPath id="06da159713"><path d="M 238.988281 63.425781 L 355.867188 111.472656 L 308.707031 226.1875 L 191.828125 178.136719 Z M 238.988281 63.425781 " clip-rule="nonzero"/></clipPath><clipPath id="eabefb0b32"><path d="M 238.988281 63.425781 L 355.867188 111.472656 L 308.707031 226.1875 L 191.828125 178.136719 Z M 238.988281 63.425781 " clip-rule="nonzero"/></clipPath><clipPath id="74885a6ab4"><path d="M 271 87 L 281 87 L 281 99 L 271 99 Z M 271 87 " clip-rule="nonzero"/></clipPath><clipPath id="1a127d4795"><path d="M 238.988281 63.425781 L 355.867188 111.472656 L 308.707031 226.1875 L 191.828125 178.136719 Z M 238.988281 63.425781 " clip-rule="nonzero"/></clipPath><clipPath id="bd59f549e3"><path d="M 238.988281 63.425781 L 355.867188 111.472656 L 308.707031 226.1875 L 191.828125 178.136719 Z M 238.988281 63.425781 " clip-rule="nonzero"/></clipPath></defs><rect x="-37.5" width="450" fill="#ffffff" y="-37.499999" height="449.999989" fill-opacity="1"/><rect x="-37.5" width="450" fill="#ffffff" y="-37.499999" height="449.999989" fill-opacity="1"/><g clip-path="url(#ae6e94f24f)"><g clip-path="url(#269a596a2b)"><g clip-path="url(#cd5cfdef0d)"><path fill="#72cbf2" d="M 295.117188 127.878906 C 300.578125 122.351562 305.285156 115.613281 306.710938 107.839844 C 307.695312 102.484375 306.601562 96.546875 303.09375 92.277344 C 299.996094 88.507812 295.269531 86 290.34375 85.957031 C 284.492188 85.902344 279.308594 88.542969 275.558594 93.007812 C 270.082031 99.515625 268.539062 108.703125 268.535156 116.953125 C 271.453125 117.308594 274.371094 117.664062 277.292969 118.019531 C 277.242188 109.933594 276.089844 101.628906 271.46875 94.777344 C 268.367188 90.175781 263.355469 86.683594 257.75 86.113281 C 252.652344 85.589844 247.578125 87.386719 243.949219 90.988281 C 239.910156 94.992188 238.316406 100.585938 238.808594 106.179688 C 239.59375 115.082031 245.457031 122.671875 251.539062 128.765625 C 253.339844 126.441406 255.140625 124.117188 256.941406 121.792969 C 251.414062 116.328125 244.671875 111.625 236.898438 110.195312 C 231.542969 109.214844 225.609375 110.308594 221.335938 113.816406 C 217.566406 116.914062 215.0625 121.636719 215.015625 126.5625 C 214.964844 132.417969 217.605469 137.597656 222.066406 141.351562 C 228.578125 146.828125 237.765625 148.367188 246.011719 148.371094 C 246.367188 145.453125 246.722656 142.535156 247.078125 139.617188 C 238.992188 139.667969 230.6875 140.816406 223.839844 145.4375 C 219.238281 148.542969 215.746094 153.554688 215.171875 159.15625 C 214.652344 164.253906 216.445312 169.328125 220.046875 172.957031 C 224.054688 176.996094 229.644531 178.589844 235.242188 178.097656 C 244.144531 177.316406 251.734375 171.449219 257.824219 165.367188 C 255.5 163.570312 253.175781 161.769531 250.851562 159.96875 C 245.390625 165.496094 240.683594 172.234375 239.257812 180.007812 C 238.273438 185.363281 239.367188 191.300781 242.875 195.570312 C 245.972656 199.339844 250.699219 201.847656 255.621094 201.890625 C 261.476562 201.945312 266.660156 199.304688 270.410156 194.84375 C 275.886719 188.332031 277.429688 179.144531 277.433594 170.894531 C 274.515625 170.539062 271.59375 170.183594 268.675781 169.828125 C 268.726562 177.914062 269.878906 186.21875 274.496094 193.070312 C 277.601562 197.671875 282.613281 201.164062 288.21875 201.734375 C 293.316406 202.257812 298.390625 200.460938 302.019531 196.859375 C 306.058594 192.855469 307.652344 187.261719 307.160156 181.667969 C 306.375 172.765625 300.511719 165.175781 294.429688 159.082031 C 292.628906 161.40625 290.828125 163.730469 289.027344 166.054688 C 294.554688 171.519531 301.296875 176.222656 309.066406 177.652344 C 314.425781 178.632812 320.359375 177.539062 324.632812 174.03125 C 328.402344 170.933594 330.90625 166.210938 330.953125 161.285156 C 331.003906 155.429688 328.363281 150.25 323.902344 146.496094 C 317.390625 141.019531 308.203125 139.480469 299.957031 139.476562 C 299.601562 142.394531 299.246094 145.3125 298.890625 148.230469 C 306.976562 148.179688 315.28125 147.03125 322.128906 142.410156 C 326.730469 139.304688 330.222656 134.292969 330.796875 128.691406 C 331.316406 123.59375 329.523438 118.519531 325.921875 114.890625 C 321.914062 110.851562 316.324219 109.257812 310.726562 109.75 C 301.824219 110.53125 294.234375 116.398438 288.144531 122.480469 C 286.507812 124.113281 287.152344 127.414062 288.929688 128.664062 C 291.089844 130.1875 293.363281 129.628906 295.117188 127.878906 C 294.632812 128.363281 295.59375 127.425781 295.722656 127.304688 C 296.082031 126.964844 296.449219 126.628906 296.816406 126.300781 C 297.566406 125.628906 298.335938 124.980469 299.125 124.355469 C 300.507812 123.261719 301.953125 122.277344 303.445312 121.347656 C 304.113281 120.933594 302.878906 121.628906 303.769531 121.171875 C 304.101562 121 304.429688 120.820312 304.761719 120.65625 C 305.445312 120.316406 306.140625 120.003906 306.847656 119.722656 C 307.46875 119.472656 308.097656 119.265625 308.730469 119.050781 C 309.664062 118.734375 308.085938 119.171875 308.820312 119.019531 C 309.164062 118.945312 309.503906 118.855469 309.847656 118.785156 C 310.421875 118.671875 311.003906 118.582031 311.585938 118.515625 C 311.867188 118.488281 312.148438 118.464844 312.429688 118.445312 C 312.546875 118.4375 312.667969 118.441406 312.785156 118.425781 C 313.613281 118.339844 311.984375 118.382812 312.457031 118.425781 C 313.53125 118.519531 314.566406 118.570312 315.632812 118.765625 C 316.542969 118.929688 315.226562 118.625 315.402344 118.691406 C 315.625 118.777344 315.863281 118.832031 316.089844 118.90625 C 316.5625 119.070312 317.027344 119.257812 317.484375 119.472656 C 317.691406 119.570312 317.890625 119.6875 318.097656 119.78125 C 318.71875 120.066406 317.0625 119.09375 317.828125 119.628906 C 318.222656 119.902344 318.621094 120.15625 319 120.453125 C 319.265625 120.664062 319.671875 121.21875 319.984375 121.324219 C 319.65625 121.210938 319.199219 120.453125 319.757812 121.117188 C 319.917969 121.308594 320.082031 121.492188 320.238281 121.683594 C 320.503906 122.023438 320.742188 122.378906 320.988281 122.730469 C 321.496094 123.472656 320.71875 122.644531 320.847656 122.464844 C 320.824219 122.496094 321.15625 123.066406 321.179688 123.117188 C 321.367188 123.5 321.53125 123.894531 321.675781 124.296875 C 321.734375 124.46875 321.777344 124.652344 321.847656 124.816406 C 322.019531 125.21875 321.605469 123.652344 321.808594 124.707031 C 321.886719 125.097656 321.964844 125.488281 322.015625 125.882812 C 322.046875 126.128906 322.0625 126.375 322.089844 126.621094 C 322.097656 126.710938 322.09375 126.804688 322.105469 126.898438 C 322.171875 127.597656 321.902344 126.480469 322.105469 126.40625 C 322.070312 126.421875 321.859375 128.792969 321.816406 129.039062 C 321.644531 130.050781 322.074219 128.289062 321.875 128.835938 C 321.808594 129.019531 321.761719 129.210938 321.695312 129.394531 C 321.523438 129.902344 321.316406 130.394531 321.085938 130.878906 C 320.996094 131.0625 320.890625 131.238281 320.804688 131.425781 C 320.515625 132.039062 321.441406 130.453125 320.921875 131.210938 C 320.617188 131.65625 320.324219 132.105469 319.988281 132.53125 C 319.664062 132.945312 319.300781 133.320312 318.953125 133.714844 C 318.496094 134.242188 319.734375 133.019531 319.015625 133.644531 C 318.773438 133.855469 318.535156 134.070312 318.289062 134.273438 C 317.738281 134.730469 317.160156 135.152344 316.5625 135.542969 C 316.269531 135.738281 315.960938 135.910156 315.664062 136.101562 C 316.46875 135.585938 315.910156 135.957031 315.4375 136.199219 C 314.003906 136.933594 312.5 137.523438 310.964844 137.996094 C 310.757812 138.058594 310.546875 138.117188 310.339844 138.183594 C 310.65625 138.082031 310.957031 138.027344 310.457031 138.148438 C 310.007812 138.253906 309.5625 138.367188 309.113281 138.464844 C 308.097656 138.683594 307.074219 138.863281 306.042969 139.003906 C 305 139.148438 303.945312 139.257812 302.894531 139.335938 C 302.335938 139.375 301.777344 139.410156 301.21875 139.433594 C 301.007812 139.441406 300.792969 139.449219 300.578125 139.457031 C 300.570312 139.457031 299.214844 139.480469 299.957031 139.476562 C 297.578125 139.492188 295.359375 140.742188 295.046875 143.320312 C 294.78125 145.464844 296.496094 148.230469 298.890625 148.230469 C 302.757812 148.230469 306.570312 148.597656 310.34375 149.460938 C 311.117188 149.636719 310.136719 149.390625 310.046875 149.378906 C 310.222656 149.402344 310.421875 149.480469 310.597656 149.53125 C 310.953125 149.636719 311.308594 149.742188 311.664062 149.859375 C 312.417969 150.105469 313.164062 150.382812 313.898438 150.691406 C 314.507812 150.949219 315.109375 151.230469 315.695312 151.535156 C 315.835938 151.605469 315.976562 151.6875 316.117188 151.757812 C 316.765625 152.078125 315.722656 151.554688 315.707031 151.511719 C 315.765625 151.683594 316.507812 152 316.679688 152.113281 C 317.164062 152.433594 317.636719 152.773438 318.09375 153.136719 C 318.539062 153.488281 319 154.105469 319.488281 154.363281 C 318.964844 154.089844 318.832031 153.671875 319.371094 154.265625 C 319.546875 154.457031 319.714844 154.652344 319.878906 154.851562 C 320.234375 155.289062 320.554688 155.746094 320.875 156.210938 C 321.207031 156.695312 321.085938 157.0625 320.78125 156.007812 C 320.839844 156.21875 321.015625 156.4375 321.113281 156.636719 C 321.347656 157.101562 321.550781 157.582031 321.730469 158.070312 C 321.808594 158.285156 321.867188 158.503906 321.945312 158.71875 C 322.167969 159.3125 321.691406 157.519531 321.867188 158.441406 C 321.957031 158.929688 322.066406 159.410156 322.121094 159.90625 C 322.148438 160.121094 322.160156 160.335938 322.179688 160.554688 C 322.238281 161.128906 321.949219 161.359375 322.199219 160.21875 C 322.101562 160.667969 322.167969 161.199219 322.117188 161.660156 C 322.066406 162.085938 321.980469 162.5 321.910156 162.917969 C 321.753906 163.84375 322.230469 161.933594 322.015625 162.542969 C 321.929688 162.792969 321.863281 163.050781 321.777344 163.296875 C 321.636719 163.695312 321.472656 164.085938 321.292969 164.46875 C 321.203125 164.660156 321.101562 164.84375 321.011719 165.035156 C 320.589844 165.90625 321.683594 164.035156 321.121094 164.832031 C 320.621094 165.546875 319.871094 166.21875 319.429688 166.953125 C 319.683594 166.53125 320.253906 166.203125 319.652344 166.703125 C 319.488281 166.84375 319.324219 166.988281 319.15625 167.125 C 318.789062 167.417969 318.398438 167.675781 318.011719 167.941406 C 317.144531 168.53125 318.605469 167.664062 318.191406 167.84375 C 317.988281 167.933594 317.789062 168.054688 317.585938 168.152344 C 317.140625 168.363281 316.6875 168.546875 316.222656 168.710938 C 316.09375 168.753906 315.527344 168.855469 315.460938 168.949219 C 315.480469 168.917969 316.613281 168.699219 316.023438 168.789062 C 315.90625 168.808594 315.785156 168.851562 315.667969 168.871094 C 315.144531 168.972656 314.628906 169.070312 314.101562 169.128906 C 313.84375 169.15625 313.589844 169.175781 313.332031 169.191406 C 312.679688 169.230469 312.324219 168.949219 313.386719 169.210938 C 312.859375 169.082031 312.183594 169.171875 311.636719 169.113281 C 310.945312 169.042969 310.261719 168.929688 309.585938 168.789062 C 309.4375 168.757812 309.289062 168.71875 309.140625 168.6875 C 308.597656 168.570312 308.546875 168.296875 309.382812 168.757812 C 309.097656 168.597656 308.667969 168.546875 308.351562 168.445312 C 306.773438 167.925781 305.25 167.246094 303.789062 166.457031 C 303.621094 166.367188 303.460938 166.269531 303.289062 166.183594 C 302.789062 165.933594 304.144531 166.707031 303.433594 166.265625 C 303.007812 166 302.582031 165.738281 302.160156 165.464844 C 301.316406 164.910156 300.492188 164.320312 299.6875 163.707031 C 297.832031 162.289062 296.089844 160.726562 294.429688 159.082031 C 292.785156 157.457031 289.5 158.085938 288.242188 159.867188 C 286.71875 162.03125 287.277344 164.300781 289.027344 166.054688 C 288.546875 165.570312 289.484375 166.535156 289.605469 166.664062 C 289.945312 167.023438 290.277344 167.386719 290.609375 167.757812 C 291.277344 168.507812 291.929688 169.277344 292.554688 170.066406 C 293.644531 171.445312 294.628906 172.890625 295.558594 174.386719 C 295.972656 175.050781 295.277344 173.816406 295.738281 174.707031 C 295.910156 175.039062 296.085938 175.367188 296.253906 175.703125 C 296.59375 176.382812 296.90625 177.078125 297.1875 177.785156 C 297.433594 178.40625 297.640625 179.039062 297.855469 179.671875 C 298.171875 180.601562 297.738281 179.023438 297.890625 179.761719 C 297.960938 180.105469 298.054688 180.441406 298.121094 180.785156 C 298.238281 181.363281 298.328125 181.941406 298.390625 182.527344 C 298.421875 182.804688 298.445312 183.085938 298.460938 183.367188 C 298.46875 183.484375 298.46875 183.605469 298.480469 183.722656 C 298.566406 184.550781 298.527344 182.925781 298.484375 183.398438 C 298.386719 184.472656 298.339844 185.507812 298.144531 186.574219 C 297.976562 187.484375 298.28125 186.164062 298.214844 186.34375 C 298.132812 186.566406 298.078125 186.800781 298 187.027344 C 297.839844 187.503906 297.648438 187.96875 297.4375 188.421875 C 297.339844 188.628906 297.222656 188.828125 297.128906 189.039062 C 296.839844 189.660156 297.8125 188 297.28125 188.769531 C 297.007812 189.160156 296.753906 189.5625 296.453125 189.9375 C 296.242188 190.203125 295.691406 190.613281 295.582031 190.925781 C 295.699219 190.59375 296.457031 190.136719 295.789062 190.699219 C 295.601562 190.859375 295.417969 191.023438 295.222656 191.175781 C 294.886719 191.445312 294.53125 191.683594 294.175781 191.925781 C 293.433594 192.433594 294.265625 191.65625 294.445312 191.785156 C 294.414062 191.761719 293.84375 192.097656 293.792969 192.121094 C 293.40625 192.304688 293.011719 192.46875 292.609375 192.613281 C 292.441406 192.675781 292.257812 192.71875 292.089844 192.789062 C 291.691406 192.957031 293.257812 192.542969 292.203125 192.75 C 291.8125 192.828125 291.421875 192.90625 291.023438 192.957031 C 290.78125 192.988281 290.535156 193.003906 290.289062 193.027344 C 290.195312 193.039062 290.101562 193.035156 290.011719 193.042969 C 289.308594 193.113281 290.429688 192.839844 290.5 193.046875 C 290.488281 193.007812 288.113281 192.796875 287.871094 192.757812 C 286.855469 192.582031 288.621094 193.015625 288.074219 192.816406 C 287.890625 192.75 287.699219 192.699219 287.511719 192.636719 C 287.007812 192.460938 286.511719 192.257812 286.03125 192.023438 C 285.847656 191.933594 285.667969 191.832031 285.484375 191.742188 C 284.867188 191.453125 286.457031 192.382812 285.695312 191.859375 C 285.25 191.554688 284.800781 191.265625 284.378906 190.929688 C 283.964844 190.601562 283.589844 190.238281 283.191406 189.894531 C 282.667969 189.433594 283.890625 190.671875 283.265625 189.953125 C 283.054688 189.710938 282.835938 189.476562 282.632812 189.226562 C 282.179688 188.675781 281.757812 188.101562 281.363281 187.503906 C 281.171875 187.207031 280.996094 186.902344 280.804688 186.605469 C 281.320312 187.40625 280.949219 186.851562 280.707031 186.375 C 279.976562 184.945312 279.386719 183.441406 278.914062 181.90625 C 278.847656 181.695312 278.792969 181.484375 278.726562 181.277344 C 278.828125 181.597656 278.878906 181.898438 278.761719 181.398438 C 278.652344 180.949219 278.542969 180.503906 278.445312 180.050781 C 278.222656 179.035156 278.046875 178.011719 277.902344 176.984375 C 277.757812 175.9375 277.648438 174.886719 277.570312 173.832031 C 277.53125 173.277344 277.5 172.71875 277.476562 172.160156 C 277.464844 171.945312 277.457031 171.730469 277.453125 171.515625 C 277.453125 171.511719 277.425781 170.15625 277.433594 170.894531 C 277.417969 168.515625 276.164062 166.300781 273.585938 165.984375 C 271.441406 165.722656 268.679688 167.433594 268.675781 169.828125 C 268.675781 173.699219 268.308594 177.511719 267.449219 181.285156 C 267.273438 182.054688 267.515625 181.074219 267.53125 180.984375 C 267.503906 181.160156 267.429688 181.363281 267.378906 181.535156 C 267.269531 181.890625 267.164062 182.25 267.050781 182.601562 C 266.800781 183.359375 266.523438 184.105469 266.214844 184.835938 C 265.960938 185.445312 265.679688 186.046875 265.375 186.636719 C 265.300781 186.777344 265.222656 186.914062 265.152344 187.058594 C 264.828125 187.707031 265.351562 186.664062 265.394531 186.648438 C 265.222656 186.703125 264.90625 187.445312 264.792969 187.617188 C 264.476562 188.105469 264.132812 188.578125 263.773438 189.03125 C 263.421875 189.476562 262.800781 189.9375 262.542969 190.429688 C 262.820312 189.90625 263.238281 189.773438 262.640625 190.3125 C 262.449219 190.484375 262.253906 190.652344 262.054688 190.816406 C 261.621094 191.175781 261.164062 191.496094 260.699219 191.8125 C 260.210938 192.148438 259.84375 192.023438 260.902344 191.71875 C 260.691406 191.78125 260.46875 191.957031 260.273438 192.054688 C 259.804688 192.285156 259.328125 192.492188 258.835938 192.667969 C 258.625 192.746094 258.402344 192.804688 258.191406 192.882812 C 257.597656 193.105469 259.386719 192.632812 258.46875 192.804688 C 257.980469 192.898438 257.5 193.003906 257.003906 193.0625 C 256.789062 193.085938 256.570312 193.101562 256.355469 193.121094 C 255.78125 193.175781 255.546875 192.890625 256.6875 193.136719 C 256.242188 193.039062 255.707031 193.109375 255.246094 193.054688 C 254.824219 193.007812 254.410156 192.917969 253.988281 192.847656 C 253.066406 192.695312 254.976562 193.171875 254.363281 192.957031 C 254.117188 192.867188 253.859375 192.804688 253.609375 192.714844 C 253.210938 192.574219 252.820312 192.414062 252.441406 192.234375 C 252.25 192.144531 252.066406 192.042969 251.875 191.949219 C 251 191.53125 252.875 192.621094 252.078125 192.0625 C 251.359375 191.558594 250.6875 190.808594 249.957031 190.371094 C 250.375 190.621094 250.707031 191.195312 250.203125 190.59375 C 250.066406 190.425781 249.917969 190.265625 249.785156 190.09375 C 249.488281 189.726562 249.234375 189.339844 248.96875 188.953125 C 248.375 188.085938 249.242188 189.542969 249.066406 189.132812 C 248.972656 188.925781 248.855469 188.730469 248.757812 188.527344 C 248.546875 188.082031 248.359375 187.625 248.199219 187.160156 C 248.152344 187.03125 248.050781 186.464844 247.957031 186.398438 C 247.988281 186.421875 248.207031 187.550781 248.117188 186.960938 C 248.097656 186.84375 248.058594 186.726562 248.035156 186.609375 C 247.9375 186.085938 247.839844 185.566406 247.78125 185.039062 C 247.753906 184.785156 247.730469 184.527344 247.714844 184.269531 C 247.675781 183.621094 247.960938 183.261719 247.695312 184.324219 C 247.828125 183.796875 247.738281 183.125 247.796875 182.574219 C 247.867188 181.886719 247.976562 181.203125 248.121094 180.523438 C 248.152344 180.375 248.1875 180.226562 248.21875 180.078125 C 248.335938 179.535156 248.613281 179.488281 248.152344 180.324219 C 248.308594 180.035156 248.363281 179.605469 248.464844 179.292969 C 248.984375 177.714844 249.660156 176.191406 250.449219 174.730469 C 250.539062 174.5625 250.640625 174.398438 250.722656 174.230469 C 250.976562 173.730469 250.203125 175.082031 250.644531 174.375 C 250.910156 173.949219 251.167969 173.519531 251.445312 173.101562 C 252 172.253906 252.585938 171.433594 253.199219 170.628906 C 254.621094 168.769531 256.183594 167.03125 257.824219 165.367188 C 259.453125 163.722656 258.824219 160.441406 257.039062 159.183594 C 254.878906 157.660156 252.605469 158.21875 250.851562 159.96875 C 251.335938 159.484375 250.375 160.421875 250.246094 160.542969 C 249.886719 160.882812 249.519531 161.21875 249.152344 161.546875 C 248.402344 162.21875 247.632812 162.867188 246.84375 163.492188 C 245.460938 164.585938 244.015625 165.570312 242.523438 166.5 C 241.855469 166.914062 243.089844 166.21875 242.199219 166.675781 C 241.867188 166.847656 241.539062 167.027344 241.207031 167.191406 C 240.523438 167.53125 239.828125 167.84375 239.121094 168.125 C 238.5 168.375 237.871094 168.582031 237.238281 168.796875 C 236.304688 169.113281 237.882812 168.675781 237.144531 168.828125 C 236.804688 168.902344 236.464844 168.992188 236.121094 169.0625 C 235.546875 169.175781 234.964844 169.265625 234.382812 169.332031 C 234.101562 169.359375 233.820312 169.382812 233.539062 169.402344 C 233.421875 169.410156 233.300781 169.40625 233.183594 169.421875 C 232.355469 169.507812 233.984375 169.464844 233.511719 169.421875 C 232.4375 169.328125 231.402344 169.277344 230.335938 169.082031 C 229.425781 168.917969 230.742188 169.222656 230.566406 169.15625 C 230.34375 169.070312 230.105469 169.015625 229.878906 168.941406 C 229.40625 168.777344 228.9375 168.589844 228.484375 168.375 C 228.277344 168.277344 228.078125 168.160156 227.871094 168.066406 C 227.25 167.78125 228.90625 168.753906 228.140625 168.21875 C 227.746094 167.945312 227.347656 167.691406 226.96875 167.394531 C 226.703125 167.183594 226.296875 166.628906 225.984375 166.523438 C 226.3125 166.636719 226.769531 167.394531 226.210938 166.730469 C 226.050781 166.539062 225.886719 166.355469 225.730469 166.164062 C 225.464844 165.824219 225.226562 165.46875 224.980469 165.117188 C 224.472656 164.375 225.25 165.203125 225.121094 165.382812 C 225.144531 165.351562 224.8125 164.78125 224.789062 164.730469 C 224.601562 164.347656 224.4375 163.953125 224.292969 163.550781 C 224.234375 163.378906 224.191406 163.195312 224.121094 163.03125 C 223.949219 162.628906 224.363281 164.195312 224.160156 163.140625 C 224.082031 162.75 224 162.359375 223.953125 161.964844 C 223.921875 161.71875 223.90625 161.472656 223.878906 161.226562 C 223.871094 161.136719 223.875 161.042969 223.863281 160.949219 C 223.796875 160.25 224.066406 161.367188 223.863281 161.441406 C 223.898438 161.425781 224.109375 159.054688 224.152344 158.808594 C 224.324219 157.796875 223.894531 159.558594 224.09375 159.011719 C 224.160156 158.828125 224.207031 158.636719 224.273438 158.453125 C 224.445312 157.945312 224.652344 157.453125 224.882812 156.96875 C 224.972656 156.785156 225.078125 156.609375 225.164062 156.421875 C 225.453125 155.808594 224.527344 157.394531 225.046875 156.636719 C 225.351562 156.191406 225.644531 155.742188 225.980469 155.316406 C 226.304688 154.902344 226.667969 154.527344 227.015625 154.132812 C 227.472656 153.605469 226.234375 154.828125 226.953125 154.203125 C 227.195312 153.992188 227.433594 153.777344 227.679688 153.574219 C 228.230469 153.117188 228.808594 152.695312 229.40625 152.304688 C 229.699219 152.109375 230.007812 151.9375 230.304688 151.746094 C 229.5 152.261719 230.058594 151.890625 230.53125 151.648438 C 231.964844 150.914062 233.46875 150.328125 235.003906 149.851562 C 235.210938 149.789062 235.421875 149.730469 235.628906 149.664062 C 235.308594 149.765625 235.011719 149.820312 235.511719 149.699219 C 235.960938 149.59375 236.40625 149.480469 236.855469 149.382812 C 237.871094 149.164062 238.894531 148.984375 239.925781 148.84375 C 240.96875 148.699219 242.023438 148.589844 243.074219 148.511719 C 243.632812 148.472656 244.191406 148.4375 244.75 148.414062 C 244.960938 148.40625 245.175781 148.398438 245.390625 148.390625 C 245.398438 148.390625 246.753906 148.367188 246.011719 148.371094 C 248.390625 148.355469 250.605469 147.105469 250.921875 144.527344 C 251.1875 142.382812 249.472656 139.617188 247.078125 139.617188 C 243.210938 139.617188 239.398438 139.25 235.625 138.386719 C 234.851562 138.210938 235.832031 138.457031 235.921875 138.472656 C 235.746094 138.445312 235.546875 138.371094 235.371094 138.316406 C 235.015625 138.210938 234.660156 138.105469 234.304688 137.988281 C 233.550781 137.742188 232.804688 137.464844 232.070312 137.15625 C 231.460938 136.898438 230.859375 136.617188 230.273438 136.316406 C 230.132812 136.242188 229.992188 136.160156 229.851562 136.089844 C 229.203125 135.769531 230.246094 136.292969 230.261719 136.335938 C 230.203125 136.164062 229.460938 135.847656 229.289062 135.734375 C 228.804688 135.414062 228.332031 135.074219 227.875 134.710938 C 227.429688 134.359375 226.96875 133.742188 226.480469 133.484375 C 227.003906 133.757812 227.136719 134.179688 226.597656 133.582031 C 226.421875 133.390625 226.253906 133.195312 226.089844 132.996094 C 225.734375 132.5625 225.414062 132.101562 225.09375 131.636719 C 224.761719 131.152344 224.882812 130.785156 225.1875 131.839844 C 225.128906 131.632812 224.953125 131.410156 224.855469 131.210938 C 224.621094 130.746094 224.414062 130.265625 224.238281 129.777344 C 224.160156 129.5625 224.101562 129.34375 224.023438 129.132812 C 223.800781 128.535156 224.277344 130.328125 224.101562 129.40625 C 224.011719 128.917969 223.902344 128.4375 223.847656 127.945312 C 223.820312 127.726562 223.808594 127.511719 223.785156 127.292969 C 223.730469 126.71875 224.019531 126.488281 223.769531 127.628906 C 223.867188 127.179688 223.800781 126.648438 223.851562 126.1875 C 223.902344 125.761719 223.988281 125.347656 224.058594 124.929688 C 224.214844 124.003906 223.738281 125.914062 223.953125 125.304688 C 224.039062 125.054688 224.105469 124.800781 224.191406 124.550781 C 224.332031 124.152344 224.496094 123.761719 224.675781 123.378906 C 224.765625 123.1875 224.867188 123.003906 224.957031 122.8125 C 225.378906 121.941406 224.285156 123.8125 224.847656 123.015625 C 225.347656 122.300781 226.097656 121.628906 226.539062 120.894531 C 226.285156 121.316406 225.714844 121.644531 226.316406 121.144531 C 226.480469 121.003906 226.644531 120.859375 226.8125 120.722656 C 227.179688 120.429688 227.570312 120.171875 227.957031 119.90625 C 228.824219 119.316406 227.363281 120.183594 227.777344 120.003906 C 227.980469 119.914062 228.179688 119.792969 228.382812 119.695312 C 228.828125 119.484375 229.28125 119.300781 229.746094 119.136719 C 229.875 119.09375 230.441406 118.992188 230.507812 118.898438 C 230.488281 118.929688 229.355469 119.148438 229.945312 119.058594 C 230.0625 119.039062 230.183594 118.996094 230.300781 118.976562 C 230.824219 118.875 231.339844 118.777344 231.867188 118.71875 C 232.125 118.691406 232.378906 118.671875 232.636719 118.65625 C 233.289062 118.617188 233.644531 118.898438 232.582031 118.636719 C 233.109375 118.765625 233.785156 118.675781 234.332031 118.734375 C 235.023438 118.804688 235.707031 118.917969 236.382812 119.058594 C 236.53125 119.089844 236.679688 119.128906 236.828125 119.160156 C 237.371094 119.277344 237.421875 119.550781 236.585938 119.089844 C 236.871094 119.25 237.300781 119.300781 237.617188 119.402344 C 239.195312 119.921875 240.71875 120.601562 242.179688 121.390625 C 242.347656 121.480469 242.507812 121.578125 242.675781 121.664062 C 243.179688 121.914062 241.824219 121.140625 242.535156 121.582031 C 242.960938 121.847656 243.386719 122.109375 243.808594 122.382812 C 244.652344 122.9375 245.476562 123.527344 246.28125 124.140625 C 248.136719 125.558594 249.878906 127.121094 251.539062 128.765625 C 253.183594 130.390625 256.46875 129.765625 257.726562 127.980469 C 259.25 125.816406 258.691406 123.546875 256.941406 121.792969 C 257.421875 122.277344 256.484375 121.3125 256.363281 121.183594 C 256.023438 120.824219 255.691406 120.460938 255.359375 120.09375 C 254.691406 119.339844 254.039062 118.570312 253.414062 117.78125 C 252.324219 116.402344 251.339844 114.957031 250.410156 113.460938 C 249.996094 112.796875 250.691406 114.03125 250.230469 113.140625 C 250.058594 112.808594 249.882812 112.480469 249.714844 112.144531 C 249.375 111.464844 249.0625 110.769531 248.78125 110.0625 C 248.535156 109.441406 248.328125 108.808594 248.113281 108.175781 C 247.796875 107.246094 248.230469 108.824219 248.078125 108.085938 C 248.007812 107.742188 247.914062 107.40625 247.847656 107.0625 C 247.730469 106.484375 247.640625 105.90625 247.578125 105.320312 C 247.546875 105.042969 247.523438 104.761719 247.507812 104.480469 C 247.5 104.363281 247.5 104.242188 247.488281 104.125 C 247.402344 103.296875 247.441406 104.921875 247.484375 104.449219 C 247.582031 103.375 247.628906 102.339844 247.824219 101.273438 C 247.992188 100.363281 247.6875 101.683594 247.753906 101.503906 C 247.835938 101.28125 247.890625 101.046875 247.96875 100.820312 C 248.128906 100.34375 248.320312 99.878906 248.53125 99.425781 C 248.628906 99.21875 248.746094 99.019531 248.839844 98.808594 C 249.128906 98.1875 248.15625 99.847656 248.6875 99.078125 C 248.960938 98.6875 249.214844 98.285156 249.515625 97.910156 C 249.726562 97.644531 250.277344 97.234375 250.382812 96.921875 C 250.269531 97.253906 249.511719 97.710938 250.179688 97.148438 C 250.367188 96.988281 250.550781 96.824219 250.746094 96.671875 C 251.082031 96.402344 251.4375 96.164062 251.792969 95.921875 C 252.535156 95.414062 251.703125 96.191406 251.523438 96.0625 C 251.554688 96.085938 252.125 95.75 252.175781 95.726562 C 252.5625 95.542969 252.957031 95.378906 253.359375 95.234375 C 253.527344 95.171875 253.710938 95.128906 253.878906 95.058594 C 254.277344 94.890625 252.710938 95.304688 253.765625 95.097656 C 254.15625 95.023438 254.546875 94.941406 254.945312 94.890625 C 255.1875 94.859375 255.433594 94.84375 255.679688 94.820312 C 255.773438 94.808594 255.867188 94.8125 255.957031 94.804688 C 256.660156 94.734375 255.539062 95.007812 255.46875 94.800781 C 255.480469 94.839844 257.855469 95.050781 258.097656 95.089844 C 259.113281 95.265625 257.347656 94.832031 257.894531 95.03125 C 258.078125 95.097656 258.269531 95.148438 258.457031 95.210938 C 258.960938 95.386719 259.457031 95.589844 259.9375 95.824219 C 260.121094 95.914062 260.300781 96.015625 260.484375 96.105469 C 261.097656 96.394531 259.511719 95.464844 260.273438 95.988281 C 260.71875 96.292969 261.167969 96.582031 261.589844 96.917969 C 262.003906 97.246094 262.378906 97.609375 262.777344 97.953125 C 263.300781 98.414062 262.078125 97.175781 262.703125 97.894531 C 262.914062 98.136719 263.132812 98.371094 263.335938 98.621094 C 263.789062 99.171875 264.210938 99.746094 264.605469 100.34375 C 264.796875 100.640625 264.972656 100.945312 265.164062 101.242188 C 264.648438 100.441406 265.019531 100.996094 265.261719 101.472656 C 265.992188 102.902344 266.582031 104.40625 267.054688 105.941406 C 267.121094 106.152344 267.175781 106.363281 267.242188 106.570312 C 267.140625 106.25 267.089844 105.949219 267.207031 106.449219 C 267.316406 106.898438 267.425781 107.34375 267.523438 107.796875 C 267.746094 108.8125 267.921875 109.835938 268.066406 110.863281 C 268.210938 111.910156 268.320312 112.960938 268.394531 114.015625 C 268.4375 114.570312 268.46875 115.128906 268.492188 115.6875 C 268.503906 115.902344 268.511719 116.117188 268.515625 116.332031 C 268.515625 116.335938 268.542969 117.691406 268.535156 116.953125 C 268.550781 119.332031 269.804688 121.546875 272.382812 121.863281 C 274.527344 122.125 277.289062 120.414062 277.292969 118.019531 C 277.292969 114.148438 277.660156 110.335938 278.519531 106.5625 C 278.695312 105.792969 278.453125 106.773438 278.4375 106.863281 C 278.464844 106.6875 278.539062 106.484375 278.589844 106.3125 C 278.699219 105.957031 278.804688 105.597656 278.917969 105.246094 C 279.167969 104.488281 279.445312 103.742188 279.753906 103.011719 C 280.007812 102.402344 280.289062 101.800781 280.59375 101.210938 C 280.667969 101.070312 280.746094 100.933594 280.816406 100.789062 C 281.140625 100.140625 280.617188 101.183594 280.574219 101.199219 C 280.746094 101.144531 281.0625 100.402344 281.175781 100.230469 C 281.492188 99.742188 281.835938 99.269531 282.195312 98.816406 C 282.546875 98.371094 283.167969 97.910156 283.425781 97.417969 C 283.148438 97.941406 282.730469 98.078125 283.328125 97.535156 C 283.519531 97.363281 283.714844 97.195312 283.914062 97.03125 C 284.347656 96.671875 284.804688 96.351562 285.269531 96.035156 C 285.757812 95.699219 286.125 95.824219 285.066406 96.128906 C 285.277344 96.066406 285.5 95.890625 285.695312 95.792969 C 286.164062 95.5625 286.640625 95.355469 287.132812 95.179688 C 287.34375 95.101562 287.566406 95.042969 287.777344 94.964844 C 288.371094 94.742188 286.582031 95.214844 287.5 95.042969 C 287.988281 94.949219 288.46875 94.84375 288.964844 94.785156 C 289.179688 94.761719 289.398438 94.746094 289.613281 94.726562 C 290.1875 94.671875 290.421875 94.957031 289.28125 94.710938 C 289.726562 94.808594 290.261719 94.738281 290.722656 94.792969 C 291.144531 94.839844 291.558594 94.929688 291.980469 95 C 292.902344 95.152344 290.992188 94.675781 291.605469 94.890625 C 291.851562 94.980469 292.109375 95.042969 292.359375 95.132812 C 292.757812 95.273438 293.148438 95.433594 293.527344 95.613281 C 293.71875 95.703125 293.902344 95.804688 294.09375 95.898438 C 294.96875 96.316406 293.09375 95.226562 293.890625 95.785156 C 294.609375 96.289062 295.28125 97.039062 296.011719 97.476562 C 295.59375 97.226562 295.261719 96.652344 295.765625 97.253906 C 295.902344 97.421875 296.050781 97.582031 296.183594 97.753906 C 296.480469 98.121094 296.734375 98.507812 297 98.894531 C 297.59375 99.761719 296.722656 98.304688 296.902344 98.714844 C 296.996094 98.921875 297.113281 99.117188 297.210938 99.320312 C 297.421875 99.765625 297.609375 100.222656 297.769531 100.6875 C 297.816406 100.816406 297.917969 101.382812 298.011719 101.449219 C 297.980469 101.425781 297.761719 100.296875 297.851562 100.886719 C 297.871094 101.003906 297.910156 101.121094 297.933594 101.242188 C 298.03125 101.761719 298.128906 102.28125 298.1875 102.808594 C 298.214844 103.0625 298.238281 103.320312 298.253906 103.578125 C 298.292969 104.226562 298.007812 104.585938 298.273438 103.523438 C 298.140625 104.050781 298.230469 104.722656 298.171875 105.273438 C 298.101562 105.960938 297.992188 106.648438 297.847656 107.324219 C 297.816406 107.472656 297.78125 107.621094 297.75 107.769531 C 297.632812 108.3125 297.355469 108.359375 297.816406 107.523438 C 297.660156 107.8125 297.605469 108.242188 297.503906 108.554688 C 296.984375 110.132812 296.308594 111.65625 295.519531 113.117188 C 295.429688 113.285156 295.328125 113.449219 295.246094 113.617188 C 294.992188 114.117188 295.765625 112.765625 295.324219 113.472656 C 295.058594 113.898438 294.800781 114.328125 294.523438 114.746094 C 293.96875 115.59375 293.382812 116.414062 292.769531 117.21875 C 291.347656 119.078125 289.785156 120.816406 288.144531 122.480469 C 286.515625 124.125 287.144531 127.40625 288.929688 128.664062 C 291.078125 130.179688 293.375 129.640625 295.117188 127.878906 Z M 295.117188 127.878906 " fill-opacity="1" fill-rule="nonzero"/></g></g></g><g clip-path="url(#6331a65237)"><g clip-path="url(#365273cdd0)"><g clip-path="url(#7655652647)"><path fill="#3d8fd4" d="M 226.695312 188.773438 C 226.925781 189.410156 227.21875 190.03125 227.578125 190.613281 C 227.945312 191.179688 228.375 191.710938 228.84375 192.207031 C 229.078125 192.453125 229.320312 192.691406 229.574219 192.914062 C 229.835938 193.128906 230.109375 193.335938 230.386719 193.527344 C 230.945312 193.910156 231.527344 194.242188 232.128906 194.523438 C 233.351562 195.050781 234.640625 195.34375 235.882812 195.371094 C 237.148438 195.371094 238.359375 195.113281 239.4375 194.585938 C 239.808594 194.40625 240.085938 194.164062 240.285156 193.890625 C 242.535156 192.738281 244.132812 190.628906 244.925781 188.34375 C 245.125 187.773438 245.277344 187.191406 245.371094 186.609375 C 245.46875 186.027344 245.527344 185.425781 245.523438 184.84375 C 245.523438 183.667969 245.277344 182.570312 244.820312 181.488281 C 243.871094 179.453125 242.179688 178.167969 240.027344 177.515625 C 238.984375 177.160156 237.777344 177.011719 236.605469 176.960938 C 236.011719 176.945312 235.402344 176.972656 234.796875 177.050781 C 234.496094 177.085938 234.191406 177.136719 233.890625 177.199219 C 233.59375 177.257812 233.300781 177.328125 233.007812 177.410156 C 230.730469 178.066406 228.683594 179.511719 227.433594 181.535156 C 227.121094 182.039062 226.859375 182.578125 226.652344 183.148438 C 226.457031 183.710938 226.320312 184.304688 226.25 184.917969 C 226.109375 186.140625 226.214844 187.476562 226.695312 188.773438 Z M 226.695312 188.773438 " fill-opacity="1" fill-rule="nonzero"/></g></g></g><g clip-path="url(#4c3878802d)"><g clip-path="url(#0982992c2c)"><g clip-path="url(#a0b6f014e3)"><path fill="#d986ba" d="M 269.339844 190.796875 C 269.101562 190.855469 268.863281 190.925781 268.617188 191.003906 C 267.984375 190.972656 267.375 191.140625 266.796875 191.425781 C 266.226562 191.695312 265.683594 192.113281 265.203125 192.640625 C 265.003906 192.769531 264.808594 192.90625 264.621094 193.050781 C 264.210938 193.363281 263.878906 193.6875 263.609375 194.046875 C 263.339844 194.40625 263.132812 194.796875 262.972656 195.21875 C 262.652344 196.058594 262.535156 197.011719 262.5 198.046875 C 262.472656 198.828125 262.535156 199.644531 262.699219 200.460938 C 262.867188 201.269531 263.140625 202.054688 263.539062 202.800781 C 263.917969 203.609375 264.476562 204.375 265.265625 204.976562 L 265.304688 205.003906 C 265.339844 205.03125 265.378906 205.058594 265.417969 205.085938 C 266.355469 206.351562 267.652344 207.535156 269.160156 208.09375 C 270.65625 208.707031 272.347656 208.691406 273.917969 207.84375 C 274.847656 207.304688 275.628906 206.59375 276.21875 205.792969 C 276.398438 205.632812 276.566406 205.46875 276.71875 205.296875 C 276.871094 205.121094 277.007812 204.933594 277.132812 204.746094 C 277.386719 204.367188 277.585938 203.972656 277.738281 203.5625 C 278.042969 202.742188 278.160156 201.867188 278.144531 200.980469 C 278.105469 199.207031 277.53125 197.375 276.753906 195.808594 C 276.550781 195.398438 276.332031 195.011719 276.101562 194.621094 C 275.867188 194.230469 275.621094 193.855469 275.363281 193.503906 C 274.84375 192.800781 274.277344 192.199219 273.667969 191.722656 C 273.058594 191.226562 272.402344 190.875 271.6875 190.722656 C 270.972656 190.542969 270.203125 190.539062 269.339844 190.796875 Z M 269.339844 190.796875 " fill-opacity="1" fill-rule="nonzero"/></g></g></g><g clip-path="url(#59bbc3877a)"><g clip-path="url(#c1cd1f9d92)"><g clip-path="url(#9b3123124f)"><path fill="#837ab8" d="M 304.101562 200.085938 C 304.457031 200.105469 304.816406 200.105469 305.179688 200.085938 C 305.359375 200.074219 305.539062 200.0625 305.722656 200.042969 C 305.902344 200.019531 306.082031 199.992188 306.257812 199.957031 C 306.976562 199.828125 307.699219 199.625 308.410156 199.367188 C 308.765625 199.242188 309.109375 199.078125 309.449219 198.90625 C 309.789062 198.734375 310.121094 198.546875 310.453125 198.347656 C 310.78125 198.152344 311.101562 197.941406 311.414062 197.71875 C 311.722656 197.488281 312.015625 197.234375 312.304688 196.980469 C 312.875 196.460938 313.414062 195.921875 313.878906 195.324219 C 314.339844 194.71875 314.746094 194.082031 315.085938 193.433594 C 315.433594 192.792969 315.679688 192.097656 315.863281 191.410156 C 316.042969 190.71875 316.152344 190.027344 316.171875 189.339844 C 316.210938 185.933594 313.167969 183.828125 309.992188 182.519531 C 309.070312 180.832031 307.71875 179.597656 306.03125 179.074219 C 302.859375 178.074219 301.21875 179.386719 300.117188 181.605469 C 299.738281 181.785156 299.359375 181.96875 299.019531 182.207031 C 298.675781 182.441406 298.371094 182.722656 298.074219 183.011719 C 297.773438 183.296875 297.503906 183.621094 297.261719 183.972656 C 297.019531 184.324219 296.816406 184.71875 296.621094 185.109375 C 296.238281 185.898438 295.988281 186.820312 295.886719 187.820312 C 295.773438 188.800781 295.820312 189.878906 296.078125 191.015625 C 296.171875 191.429688 296.292969 191.828125 296.433594 192.210938 C 296.730469 194.15625 297.480469 196.050781 298.753906 197.503906 C 299.390625 198.230469 300.15625 198.84375 301.050781 199.300781 C 301.5 199.523438 301.988281 199.726562 302.492188 199.851562 C 303 199.976562 303.535156 200.058594 304.101562 200.085938 Z M 304.101562 200.085938 " fill-opacity="1" fill-rule="nonzero"/></g></g></g><g clip-path="url(#cf9c902d95)"><g clip-path="url(#82d02c7e94)"><g clip-path="url(#e0e6cc2ea0)"><path fill="#837ab8" d="M 249.742188 200.117188 C 250.097656 201.269531 250.890625 201.996094 251.808594 202.40625 C 252.269531 202.609375 252.753906 202.746094 253.25 202.765625 C 253.746094 202.789062 254.242188 202.734375 254.699219 202.609375 C 255.621094 202.359375 256.394531 201.832031 256.820312 201.078125 C 257.25 200.320312 257.320312 199.386719 256.894531 198.296875 C 256.632812 197.628906 256.378906 196.960938 256.140625 196.300781 C 255.902344 195.636719 255.671875 194.988281 255.46875 194.304688 C 255.054688 192.953125 254.679688 191.644531 254.375 190.3125 C 254.128906 189.222656 253.582031 188.535156 252.882812 188.167969 C 252.203125 187.761719 251.371094 187.679688 250.550781 187.855469 C 249.738281 188.023438 248.957031 188.417969 248.394531 189.074219 C 247.839844 189.722656 247.515625 190.613281 247.695312 191.746094 C 247.800781 192.453125 247.9375 193.132812 248.082031 193.824219 C 248.226562 194.519531 248.382812 195.21875 248.550781 195.921875 C 248.636719 196.273438 248.71875 196.628906 248.8125 196.980469 L 249.105469 198.015625 C 249.304688 198.710938 249.519531 199.410156 249.742188 200.117188 Z M 249.742188 200.117188 " fill-opacity="1" fill-rule="nonzero"/></g></g></g><g clip-path="url(#23b2b59219)"><g clip-path="url(#3d4f39fd0e)"><g clip-path="url(#b3a2535af4)"><path fill="#009ba2" d="M 288.664062 204.308594 C 289.179688 204.289062 289.699219 204.167969 290.1875 203.96875 C 290.675781 203.765625 291.132812 203.496094 291.503906 203.132812 C 292.257812 202.421875 292.707031 201.5 292.605469 200.554688 C 292.347656 198.136719 291.886719 195.742188 291.335938 193.371094 C 291.226562 192.910156 290.992188 192.511719 290.6875 192.183594 C 290.386719 191.855469 290.007812 191.597656 289.597656 191.390625 C 289.1875 191.1875 288.75 191.058594 288.324219 191.007812 C 287.898438 190.953125 287.488281 191.003906 287.113281 191.097656 C 286.199219 191.347656 285.605469 191.957031 285.234375 192.699219 C 284.863281 193.441406 284.738281 194.371094 284.828125 195.316406 C 285.003906 197.109375 285.050781 198.921875 285.027344 200.734375 C 285.011719 201.683594 285.34375 202.582031 285.972656 203.238281 C 286.601562 203.890625 287.539062 204.328125 288.664062 204.308594 Z M 288.664062 204.308594 " fill-opacity="1" fill-rule="nonzero"/></g></g></g><g clip-path="url(#b244e84494)"><g clip-path="url(#076660e9f9)"><g clip-path="url(#18a6a3bb19)"><path fill="#cdddf4" d="M 312.816406 177.402344 C 313.382812 178.730469 314.863281 179.566406 316.378906 180.023438 C 317.082031 180.355469 318.058594 180.617188 319.050781 180.648438 C 319.414062 180.976562 319.941406 181.105469 320.519531 180.761719 C 321.042969 180.457031 321.59375 180.074219 322.09375 179.632812 C 322.609375 179.195312 323.019531 178.65625 323.335938 178.097656 C 323.644531 177.53125 323.855469 176.941406 323.839844 176.3125 C 323.824219 175.6875 323.617188 175.050781 323.160156 174.425781 C 322.398438 173.394531 321.21875 172.855469 319.980469 172.59375 C 319.359375 172.464844 318.726562 172.410156 318.117188 172.40625 C 317.503906 172.398438 316.925781 172.453125 316.382812 172.527344 C 315.902344 172.597656 315.597656 172.835938 315.433594 173.148438 C 315.320312 173.175781 315.210938 173.203125 315.105469 173.234375 C 314.242188 173.5 313.421875 174.007812 312.96875 174.726562 C 312.527344 175.457031 312.359375 176.34375 312.816406 177.402344 Z M 312.816406 177.402344 " fill-opacity="1" fill-rule="nonzero"/></g></g></g><g clip-path="url(#a934cce3c0)"><g clip-path="url(#f9254eeab7)"><g clip-path="url(#9ddcb19c78)"><path fill="#3d8fd4" d="M 258.675781 84.613281 C 258.011719 84.476562 257.328125 84.410156 256.648438 84.40625 C 255.96875 84.417969 255.292969 84.511719 254.625 84.652344 C 254.292969 84.722656 253.960938 84.808594 253.636719 84.90625 C 253.3125 85.007812 253 85.140625 252.691406 85.277344 C 252.070312 85.550781 251.480469 85.875 250.929688 86.242188 C 250.378906 86.617188 249.878906 87.058594 249.425781 87.519531 C 248.976562 87.984375 248.570312 88.46875 248.238281 89.003906 C 247.578125 90.082031 247.160156 91.246094 247.046875 92.445312 C 247.007812 92.851562 247.070312 93.21875 247.199219 93.53125 C 247.011719 96.058594 247.980469 98.515625 249.515625 100.386719 C 250.285156 101.324219 251.183594 102.097656 252.1875 102.71875 C 252.6875 103.019531 253.207031 103.273438 253.742188 103.460938 C 254.011719 103.558594 254.28125 103.628906 254.558594 103.703125 C 254.839844 103.777344 255.125 103.832031 255.410156 103.871094 C 257.636719 104.132812 259.613281 103.351562 261.296875 101.867188 C 261.722656 101.511719 262.121094 101.101562 262.5 100.652344 C 262.875 100.191406 263.234375 99.75 263.558594 99.242188 C 264.207031 98.242188 264.730469 97.097656 265.054688 95.945312 C 265.6875 93.652344 265.527344 91.15625 264.460938 89.035156 C 263.929688 87.976562 263.167969 87 262.195312 86.25 C 261.710938 85.871094 261.171875 85.535156 260.582031 85.25 C 260.285156 85.113281 259.976562 84.976562 259.660156 84.875 C 259.34375 84.773438 259.015625 84.683594 258.675781 84.613281 Z M 258.675781 84.613281 " fill-opacity="1" fill-rule="nonzero"/></g></g></g><g clip-path="url(#731a4471ec)"><g clip-path="url(#878103b0ad)"><g clip-path="url(#ee620b9e8e)"><path fill="#d986ba" d="M 235.101562 120.003906 C 235.164062 119.765625 235.214844 119.519531 235.265625 119.269531 C 235.429688 119.003906 235.539062 118.707031 235.636719 118.417969 C 235.730469 118.128906 235.785156 117.820312 235.804688 117.503906 C 235.847656 116.871094 235.738281 116.183594 235.527344 115.507812 C 235.515625 115.273438 235.5 115.042969 235.472656 114.8125 C 235.25 112.816406 233.960938 111.558594 232.210938 110.46875 C 230.890625 109.640625 229.273438 109.046875 227.5625 108.972656 C 226.675781 108.902344 225.753906 109.023438 224.828125 109.402344 L 224.785156 109.425781 C 224.742188 109.441406 224.695312 109.460938 224.652344 109.480469 C 223.84375 109.554688 223.050781 109.75 222.289062 110.046875 C 221.90625 110.191406 221.53125 110.367188 221.171875 110.5625 C 220.816406 110.765625 220.460938 110.980469 220.15625 111.246094 C 219.539062 111.761719 219.007812 112.382812 218.617188 113.097656 C 218.417969 113.449219 218.285156 113.84375 218.183594 114.253906 C 218.085938 114.664062 218.027344 115.09375 218.023438 115.542969 C 218.019531 116.082031 218.058594 116.597656 218.175781 117.109375 C 218.292969 117.621094 218.460938 118.109375 218.667969 118.566406 C 218.878906 119.515625 219.292969 120.316406 219.847656 120.980469 C 220.410156 121.648438 221.121094 122.183594 221.90625 122.601562 C 223.480469 123.441406 225.324219 123.820312 227.101562 123.925781 C 228.015625 123.976562 228.929688 123.957031 229.785156 123.847656 C 230.214844 123.796875 230.621094 123.714844 231.023438 123.621094 C 231.429688 123.527344 231.816406 123.410156 232.175781 123.265625 C 232.902344 122.980469 233.492188 122.570312 234.011719 122.054688 C 234.523438 121.53125 234.855469 120.839844 235.101562 120.003906 Z M 235.101562 120.003906 " fill-opacity="1" fill-rule="nonzero"/></g></g></g><g clip-path="url(#285ece8687)"><g clip-path="url(#827ecb978f)"><g clip-path="url(#b7231d3f52)"><path fill="#837ab8" d="M 210.171875 145.847656 C 210.078125 146 209.988281 146.15625 209.898438 146.3125 C 209.820312 146.472656 209.742188 146.632812 209.671875 146.796875 C 209.523438 147.125 209.394531 147.464844 209.277344 147.8125 C 209.160156 148.160156 209.058594 148.519531 208.972656 148.882812 C 208.929688 149.066406 208.886719 149.25 208.851562 149.433594 C 208.824219 149.617188 208.800781 149.804688 208.777344 149.992188 C 208.691406 150.742188 208.664062 151.507812 208.695312 152.277344 C 208.734375 153.046875 208.867188 153.808594 209.035156 154.558594 C 209.121094 154.933594 209.21875 155.304688 209.335938 155.667969 C 209.464844 156.027344 209.605469 156.382812 209.761719 156.726562 C 210.074219 157.417969 210.414062 158.082031 210.839844 158.683594 C 211.269531 159.285156 211.742188 159.835938 212.253906 160.320312 C 212.511719 160.5625 212.773438 160.792969 213.058594 161 C 213.34375 161.207031 213.640625 161.394531 213.941406 161.566406 C 216.894531 163.214844 220.195312 161.542969 222.878906 159.359375 C 224.785156 159.351562 226.53125 158.746094 227.785156 157.503906 C 228.082031 157.214844 228.320312 156.933594 228.539062 156.648438 C 228.757812 156.363281 228.933594 156.082031 229.074219 155.804688 C 229.355469 155.25 229.472656 154.714844 229.484375 154.183594 C 229.507812 153.648438 229.40625 153.128906 229.195312 152.613281 C 229.144531 152.484375 229.082031 152.355469 229.023438 152.230469 C 228.964844 152.101562 228.902344 151.972656 228.835938 151.84375 C 228.695312 151.589844 228.535156 151.339844 228.355469 151.085938 C 228.460938 149.402344 227.992188 147.777344 226.914062 146.363281 C 226.632812 146.007812 226.351562 145.667969 226.011719 145.34375 C 225.679688 145.023438 225.300781 144.71875 224.886719 144.4375 C 224.472656 144.15625 224.015625 143.898438 223.527344 143.671875 C 223.046875 143.441406 222.527344 143.246094 221.96875 143.089844 C 221.5625 142.976562 221.15625 142.894531 220.753906 142.839844 C 218.910156 142.171875 216.886719 141.929688 214.996094 142.355469 C 214.054688 142.570312 213.132812 142.953125 212.3125 143.527344 C 211.5 144.101562 210.773438 144.871094 210.171875 145.847656 Z M 210.171875 145.847656 " fill-opacity="1" fill-rule="nonzero"/></g></g></g><g clip-path="url(#e6a6aa3333)"><g clip-path="url(#a2e648384d)"><g clip-path="url(#a1f04d279f)"><path fill="#837ab8" d="M 236.933594 98.40625 C 235.785156 98.15625 234.726562 98.4375 233.890625 99.011719 C 233.078125 99.617188 232.492188 100.5 232.222656 101.40625 C 231.976562 102.339844 232.050781 103.296875 232.480469 104.042969 C 232.90625 104.789062 233.691406 105.335938 234.832031 105.503906 C 237.65625 105.9375 240.382812 106.589844 242.972656 107.429688 C 245.058594 108.109375 246.457031 106.996094 247.023438 105.441406 C 247.292969 104.652344 247.355469 103.777344 247.089844 102.960938 C 246.824219 102.148438 246.234375 101.410156 245.171875 100.96875 C 243.878906 100.464844 242.535156 99.984375 241.152344 99.539062 C 239.792969 99.132812 238.378906 98.742188 236.933594 98.40625 Z M 236.933594 98.40625 " fill-opacity="1" fill-rule="nonzero"/></g></g></g><g clip-path="url(#d8c42bb6e8)"><g clip-path="url(#c17f461019)"><g clip-path="url(#bd6b72e87e)"><path fill="#009ba2" d="M 213.882812 130.199219 C 213.644531 130.660156 213.476562 131.171875 213.421875 131.703125 C 213.375 132.230469 213.414062 132.769531 213.535156 133.269531 C 213.65625 133.769531 213.863281 134.230469 214.148438 134.609375 C 214.4375 134.992188 214.816406 135.292969 215.257812 135.476562 C 217.519531 136.421875 219.832031 137.164062 222.171875 137.816406 C 223.085938 138.066406 224.015625 137.765625 224.742188 137.246094 C 224.925781 137.113281 225.09375 136.96875 225.246094 136.8125 C 225.40625 136.65625 225.554688 136.492188 225.683594 136.320312 C 225.9375 135.972656 226.117188 135.601562 226.195312 135.222656 C 226.242188 134.992188 226.257812 134.769531 226.257812 134.554688 C 226.261719 134.339844 226.242188 134.132812 226.203125 133.933594 C 226.117188 133.53125 225.941406 133.160156 225.699219 132.816406 C 225.214844 132.132812 224.449219 131.570312 223.585938 131.191406 C 221.941406 130.476562 220.339844 129.644531 218.777344 128.742188 C 217.957031 128.269531 217.007812 128.121094 216.117188 128.351562 C 215.675781 128.46875 215.230469 128.675781 214.855469 128.984375 C 214.480469 129.292969 214.148438 129.699219 213.882812 130.199219 Z M 213.882812 130.199219 " fill-opacity="1" fill-rule="nonzero"/></g></g></g><g clip-path="url(#9c9d0266f6)"><g clip-path="url(#bf155b6168)"><g clip-path="url(#3874fbb67f)"><path fill="#cdddf4" d="M 226.023438 164.292969 C 224.597656 164.152344 223.152344 165.058594 222.015625 166.171875 C 221.703125 166.402344 221.367188 166.703125 221.050781 167.050781 C 220.738281 167.394531 220.445312 167.789062 220.203125 168.214844 C 219.734375 168.375 219.390625 168.769531 219.398438 169.449219 C 219.386719 170.671875 219.695312 172.09375 220.359375 173.191406 C 221.042969 174.277344 222.132812 175 223.652344 174.804688 C 224.929688 174.632812 225.972656 173.863281 226.792969 172.910156 C 227.625 171.941406 228.242188 170.789062 228.605469 169.777344 C 228.765625 169.328125 228.691406 168.953125 228.503906 168.652344 C 228.539062 168.539062 228.570312 168.425781 228.59375 168.320312 C 228.992188 166.515625 228.292969 164.519531 226.023438 164.292969 Z M 226.023438 164.292969 " fill-opacity="1" fill-rule="nonzero"/></g></g></g><g clip-path="url(#ca81dd4ab3)"><g clip-path="url(#0d9bd371be)"><g clip-path="url(#47040ecb9a)"><path fill="#3d8fd4" d="M 333.902344 164.917969 C 334.371094 164.40625 334.734375 163.832031 335.058594 163.230469 C 335.375 162.625 335.648438 161.988281 335.847656 161.332031 C 336.03125 160.671875 336.15625 159.996094 336.222656 159.316406 C 336.257812 158.976562 336.277344 158.640625 336.285156 158.300781 C 336.277344 157.964844 336.253906 157.625 336.21875 157.292969 C 336.148438 156.625 336.019531 155.972656 335.839844 155.351562 C 335.664062 154.730469 335.386719 154.136719 335.085938 153.585938 C 334.777344 153.035156 334.421875 152.53125 334.015625 152.078125 C 333.621094 151.625 333.136719 151.222656 332.636719 150.886719 C 332.285156 150.65625 331.9375 150.535156 331.601562 150.5 C 329.488281 149.128906 326.871094 148.816406 324.484375 149.273438 C 323.292969 149.503906 322.15625 149.921875 321.167969 150.507812 C 320.167969 151.09375 319.269531 151.84375 318.625 152.773438 C 318.277344 153.226562 318.011719 153.691406 317.820312 154.179688 C 317.71875 154.421875 317.652344 154.667969 317.578125 154.914062 C 317.5 155.164062 317.441406 155.414062 317.402344 155.667969 C 317.3125 156.175781 317.3125 156.703125 317.328125 157.234375 C 317.339844 157.761719 317.410156 158.296875 317.535156 158.84375 C 317.671875 159.390625 317.816406 159.929688 318.015625 160.472656 C 318.214844 161.011719 318.460938 161.550781 318.753906 162.082031 C 319.3125 163.128906 320.015625 164.128906 320.894531 164.988281 C 322.605469 166.664062 324.863281 167.746094 327.21875 167.839844 C 328.398438 167.886719 329.597656 167.691406 330.753906 167.214844 C 331.042969 167.097656 331.332031 166.960938 331.613281 166.808594 C 331.882812 166.648438 332.152344 166.476562 332.414062 166.28125 C 332.9375 165.898438 333.4375 165.441406 333.902344 164.917969 Z M 333.902344 164.917969 " fill-opacity="1" fill-rule="nonzero"/></g></g></g><g clip-path="url(#dcc0226eeb)"><g clip-path="url(#0af2f56fc3)"><g clip-path="url(#5e6ce15365)"><path fill="#d986ba" d="M 314.050781 127.21875 C 314.230469 127.386719 314.414062 127.558594 314.605469 127.722656 C 314.90625 128.277344 315.375 128.710938 315.914062 129.054688 C 316.441406 129.398438 317.082031 129.640625 317.78125 129.777344 C 318 129.878906 318.21875 129.972656 318.4375 130.058594 C 320.300781 130.820312 322 130.289062 323.800781 129.265625 C 325.160156 128.496094 326.484375 127.347656 327.320312 125.898438 C 327.8125 125.152344 328.171875 124.277344 328.273438 123.289062 L 328.277344 123.242188 C 328.28125 123.195312 328.285156 123.144531 328.289062 123.097656 C 328.878906 121.636719 329.203125 119.910156 328.894531 118.335938 C 328.75 117.539062 328.488281 116.769531 328.023438 116.105469 C 327.566406 115.441406 326.976562 114.84375 326.191406 114.40625 C 325.246094 113.894531 324.230469 113.597656 323.242188 113.515625 C 321.371094 112.964844 319.621094 113.433594 318.132812 114.390625 C 316.640625 115.351562 315.378906 116.800781 314.449219 118.285156 C 314.207031 118.671875 313.984375 119.0625 313.78125 119.460938 C 313.578125 119.859375 313.378906 120.269531 313.21875 120.671875 C 312.886719 121.480469 312.660156 122.285156 312.585938 123.046875 C 312.480469 123.828125 312.519531 124.570312 312.761719 125.261719 C 312.988281 125.957031 313.378906 126.621094 314.050781 127.21875 Z M 314.050781 127.21875 " fill-opacity="1" fill-rule="nonzero"/></g></g></g><g clip-path="url(#0b8d2ffb37)"><g clip-path="url(#7511b27742)"><g clip-path="url(#d4780b7cf9)"><path fill="#837ab8" d="M 303.832031 92.738281 C 303.496094 92.117188 303.085938 91.523438 302.613281 90.957031 C 302.132812 90.414062 301.589844 89.914062 301 89.449219 C 300.707031 89.214844 300.402344 88.992188 300.085938 88.78125 C 299.769531 88.578125 299.433594 88.398438 299.097656 88.222656 C 298.421875 87.878906 297.714844 87.578125 296.996094 87.335938 C 296.265625 87.121094 295.519531 86.960938 294.777344 86.863281 C 294.40625 86.8125 294.039062 86.777344 293.671875 86.761719 C 293.296875 86.753906 292.925781 86.765625 292.5625 86.792969 C 291.832031 86.84375 291.121094 86.960938 290.445312 87.140625 C 289.765625 87.332031 289.109375 87.617188 288.507812 87.953125 C 285.578125 89.605469 285.28125 93.296875 285.753906 96.734375 C 284.769531 98.363281 284.382812 100.167969 284.792969 101.894531 C 284.980469 102.707031 285.261719 103.324219 285.589844 103.871094 C 285.921875 104.402344 286.320312 104.796875 286.777344 105.074219 C 286.890625 105.144531 287.011719 105.207031 287.132812 105.261719 C 287.25 105.324219 287.375 105.378906 287.5 105.429688 C 287.75 105.527344 288.015625 105.601562 288.289062 105.648438 C 288.839844 105.75 289.445312 105.734375 290.058594 105.710938 C 290.40625 105.960938 290.777344 106.171875 291.160156 106.335938 C 291.351562 106.421875 291.554688 106.488281 291.75 106.5625 C 291.945312 106.636719 292.144531 106.699219 292.347656 106.75 C 293.15625 106.964844 294.039062 106.988281 294.914062 106.914062 C 295.355469 106.871094 295.804688 106.78125 296.257812 106.652344 C 296.714844 106.515625 297.175781 106.339844 297.621094 106.136719 C 298.519531 105.722656 299.417969 105.121094 300.257812 104.308594 C 300.5625 104.011719 300.835938 103.699219 301.089844 103.378906 C 302.597656 102.113281 303.824219 100.480469 304.398438 98.644531 C 304.6875 97.722656 304.816406 96.75 304.738281 95.75 C 304.699219 95.25 304.609375 94.742188 304.460938 94.230469 C 304.316406 93.726562 304.101562 93.234375 303.832031 92.738281 Z M 303.832031 92.738281 " fill-opacity="1" fill-rule="nonzero"/></g></g></g><g clip-path="url(#a9a2a1b9f1)"><g clip-path="url(#71d331617e)"><g clip-path="url(#4c9cd482ed)"><path fill="#837ab8" d="M 332.179688 139.136719 C 332.949219 138.238281 333.238281 137.164062 333.082031 136.167969 C 332.945312 135.167969 332.476562 134.222656 331.761719 133.570312 C 331.0625 132.910156 330.199219 132.523438 329.339844 132.546875 C 328.480469 132.566406 327.625 133 326.925781 133.925781 C 326.496094 134.496094 326.058594 135.054688 325.621094 135.601562 C 325.179688 136.148438 324.707031 136.6875 324.246094 137.207031 C 323.78125 137.730469 323.316406 138.238281 322.847656 138.734375 C 322.367188 139.230469 321.867188 139.71875 321.378906 140.191406 C 320.980469 140.570312 320.707031 140.964844 320.539062 141.359375 C 320.375 141.753906 320.277344 142.15625 320.289062 142.546875 C 320.300781 142.9375 320.394531 143.320312 320.5625 143.683594 C 320.726562 144.046875 320.933594 144.386719 321.214844 144.691406 C 321.761719 145.300781 322.53125 145.773438 323.378906 145.925781 C 324.226562 146.074219 325.152344 145.90625 326.019531 145.179688 C 327.085938 144.28125 328.179688 143.324219 329.183594 142.316406 C 330.199219 141.308594 331.234375 140.246094 332.179688 139.136719 Z M 332.179688 139.136719 " fill-opacity="1" fill-rule="nonzero"/></g></g></g><g clip-path="url(#0d20906343)"><g clip-path="url(#06da159713)"><g clip-path="url(#eabefb0b32)"><path fill="#009ba2" d="M 315.460938 103.6875 C 315.175781 103.257812 314.800781 102.878906 314.375 102.566406 C 313.953125 102.253906 313.480469 102.011719 312.976562 101.882812 C 311.980469 101.613281 310.960938 101.710938 310.207031 102.292969 C 308.28125 103.769531 306.476562 105.421875 304.742188 107.128906 C 304.40625 107.464844 304.1875 107.867188 304.066406 108.300781 C 303.945312 108.734375 303.925781 109.183594 303.964844 109.644531 C 304.042969 110.5625 304.4375 111.398438 305.015625 111.914062 C 305.707031 112.566406 306.527344 112.761719 307.367188 112.679688 C 308.191406 112.609375 309.046875 112.234375 309.804688 111.660156 C 311.242188 110.574219 312.757812 109.585938 314.316406 108.660156 C 315.136719 108.175781 315.726562 107.421875 315.957031 106.539062 C 316.074219 106.101562 316.101562 105.625 316.023438 105.140625 C 315.945312 104.660156 315.777344 104.148438 315.460938 103.6875 Z M 315.460938 103.6875 " fill-opacity="1" fill-rule="nonzero"/></g></g></g><g clip-path="url(#74885a6ab4)"><g clip-path="url(#1a127d4795)"><g clip-path="url(#bd59f549e3)"><path fill="#cdddf4" d="M 279.894531 96.84375 C 280.761719 95.707031 280.746094 93.996094 280.382812 92.445312 C 280.351562 92.058594 280.273438 91.613281 280.140625 91.164062 C 280.007812 90.71875 279.824219 90.261719 279.589844 89.832031 C 279.695312 89.351562 279.542969 88.851562 278.957031 88.503906 C 278.699219 88.347656 278.417969 88.195312 278.125 88.054688 C 277.976562 87.984375 277.828125 87.914062 277.675781 87.855469 C 277.519531 87.796875 277.363281 87.742188 277.207031 87.695312 C 276.574219 87.496094 275.910156 87.371094 275.269531 87.367188 C 275.109375 87.367188 274.949219 87.371094 274.792969 87.390625 C 274.636719 87.410156 274.484375 87.441406 274.332031 87.480469 C 274.03125 87.558594 273.742188 87.675781 273.476562 87.832031 C 272.941406 88.148438 272.488281 88.632812 272.171875 89.332031 C 271.910156 89.910156 271.808594 90.53125 271.820312 91.152344 C 271.828125 91.769531 271.953125 92.394531 272.144531 93 C 272.535156 94.214844 273.195312 95.34375 273.867188 96.179688 C 274.015625 96.363281 274.183594 96.492188 274.351562 96.570312 C 274.523438 96.652344 274.703125 96.691406 274.878906 96.6875 C 274.957031 96.773438 275.039062 96.855469 275.117188 96.9375 C 276.445312 98.210938 278.515625 98.664062 279.894531 96.84375 Z M 279.894531 96.84375 " fill-opacity="1" fill-rule="nonzero"/></g></g></g><g fill="#344b6d" fill-opacity="1"><g transform="translate(23.471295, 267.820972)"><g><path d="M 28.40625 -9.671875 C 30.039062 -9.671875 31.625 -9.914062 33.15625 -10.40625 C 34.695312 -10.90625 35.828125 -11.382812 36.546875 -11.84375 L 37.625 -12.578125 L 42.171875 -3.46875 C 42.023438 -3.351562 41.816406 -3.203125 41.546875 -3.015625 C 41.285156 -2.828125 40.671875 -2.476562 39.703125 -1.96875 C 38.734375 -1.457031 37.695312 -1.007812 36.59375 -0.625 C 35.5 -0.25 34.054688 0.0859375 32.265625 0.390625 C 30.484375 0.703125 28.644531 0.859375 26.75 0.859375 C 22.382812 0.859375 18.25 -0.210938 14.34375 -2.359375 C 10.4375 -4.503906 7.285156 -7.453125 4.890625 -11.203125 C 2.503906 -14.960938 1.3125 -19.023438 1.3125 -23.390625 C 1.3125 -26.691406 2.007812 -29.859375 3.40625 -32.890625 C 4.8125 -35.929688 6.679688 -38.53125 9.015625 -40.6875 C 11.347656 -42.851562 14.070312 -44.582031 17.1875 -45.875 C 20.300781 -47.164062 23.488281 -47.8125 26.75 -47.8125 C 29.789062 -47.8125 32.585938 -47.453125 35.140625 -46.734375 C 37.703125 -46.015625 39.515625 -45.289062 40.578125 -44.5625 L 42.171875 -43.484375 L 37.625 -34.375 C 37.363281 -34.601562 36.96875 -34.878906 36.4375 -35.203125 C 35.90625 -35.523438 34.84375 -35.953125 33.25 -36.484375 C 31.65625 -37.015625 30.039062 -37.28125 28.40625 -37.28125 C 25.820312 -37.28125 23.503906 -36.863281 21.453125 -36.03125 C 19.410156 -35.195312 17.789062 -34.097656 16.59375 -32.734375 C 15.394531 -31.367188 14.484375 -29.894531 13.859375 -28.3125 C 13.234375 -26.738281 12.921875 -25.140625 12.921875 -23.515625 C 12.921875 -19.941406 14.257812 -16.738281 16.9375 -13.90625 C 19.613281 -11.082031 23.4375 -9.671875 28.40625 -9.671875 Z M 28.40625 -9.671875 "/></g></g></g><g fill="#344b6d" fill-opacity="1"><g transform="translate(99.268995, 218.219011)"><g><path d="M 20.96875 0 L 20.96875 -34.28125 L 33.171875 -34.28125 L 33.171875 -40.96875 L 1.296875 -40.96875 L 1.296875 -34.28125 L 13.5 -34.28125 L 13.5 0 Z M 20.96875 0 "/></g></g></g><g fill="#344b6d" fill-opacity="1"><g transform="translate(130.637851, 218.219011)"><g><path d="M 11.5625 0 L 11.5625 -15.8125 C 11.5625 -21.390625 15.484375 -25.1875 19.765625 -25.1875 C 24.15625 -25.1875 26.9375 -22.6875 26.9375 -16.546875 L 26.9375 0 L 34.21875 0 L 34.21875 -16.6875 C 34.21875 -26.421875 30.09375 -31.90625 21.78125 -31.90625 C 17.015625 -31.90625 13.3125 -29.703125 11.390625 -26.328125 L 11.5625 -29.796875 L 11.5625 -42.421875 L 4.28125 -42.421875 L 4.28125 0 Z M 11.5625 0 "/></g></g></g><g fill="#344b6d" fill-opacity="1"><g transform="translate(165.801474, 218.219011)"><g><path d="M 33.75 -16.03125 C 33.75 -24.5625 27.484375 -31.90625 18.140625 -31.90625 C 8.828125 -31.90625 2.078125 -24.53125 2.078125 -15.484375 C 2.078125 -6.453125 8.828125 0.9375 18.140625 0.9375 C 25.84375 0.9375 31.359375 -4.15625 32.9375 -9.734375 L 24.96875 -9.734375 C 23.921875 -7.109375 21.65625 -5.578125 17.984375 -5.578125 C 13.703125 -5.578125 10.15625 -8.5 9.40625 -13.5625 L 33.59375 -13.5625 C 33.71875 -14.703125 33.75 -15.25 33.75 -16.03125 Z M 9.703125 -19.1875 C 10.9375 -23.5625 14.4375 -25.546875 18.109375 -25.546875 C 22.390625 -25.546875 26 -22.65625 26.296875 -19.1875 Z M 9.703125 -19.1875 "/></g></g></g><g fill="#344b6d" fill-opacity="1"><g transform="translate(63.784541, 263.707897)"><g><path d="M 6.578125 -4.390625 C 3.253906 -8.023438 1.59375 -12.476562 1.59375 -17.75 C 1.59375 -23.019531 3.253906 -27.484375 6.578125 -31.140625 C 9.910156 -34.796875 14.144531 -36.625 19.28125 -36.625 C 24 -36.625 27.882812 -35.144531 30.9375 -32.1875 L 30.9375 -35.578125 L 43.203125 -35.578125 L 43.203125 0 L 31.078125 0 L 31.078125 -4.015625 L 30.9375 -4.015625 C 27.882812 -0.640625 24 1.046875 19.28125 1.046875 C 14.144531 1.046875 9.910156 -0.765625 6.578125 -4.390625 Z M 17.03125 -23.796875 C 15.4375 -22.222656 14.640625 -20.207031 14.640625 -17.75 C 14.640625 -15.300781 15.398438 -13.300781 16.921875 -11.75 C 18.453125 -10.207031 20.460938 -9.4375 22.953125 -9.4375 C 25.359375 -9.4375 27.335938 -10.222656 28.890625 -11.796875 C 30.441406 -13.367188 31.21875 -15.351562 31.21875 -17.75 C 31.21875 -20.207031 30.414062 -22.222656 28.8125 -23.796875 C 27.21875 -25.367188 25.265625 -26.15625 22.953125 -26.15625 C 20.597656 -26.15625 18.625 -25.367188 17.03125 -23.796875 Z M 17.03125 -23.796875 "/></g></g></g><g fill="#344b6d" fill-opacity="1"><g transform="translate(107.677938, 263.707897)"><g><path d="M 4.15625 0 L 4.15625 -35.578125 L 16.4375 -35.578125 L 16.4375 -30.453125 L 16.578125 -30.453125 C 16.671875 -30.628906 16.820312 -30.859375 17.03125 -31.140625 C 17.238281 -31.421875 17.6875 -31.90625 18.375 -32.59375 C 19.070312 -33.289062 19.8125 -33.914062 20.59375 -34.46875 C 21.382812 -35.019531 22.40625 -35.515625 23.65625 -35.953125 C 24.90625 -36.398438 26.175781 -36.625 27.46875 -36.625 C 28.8125 -36.625 30.128906 -36.4375 31.421875 -36.0625 C 32.710938 -35.695312 33.660156 -35.328125 34.265625 -34.953125 L 35.234375 -34.40625 L 30.109375 -24 C 28.578125 -25.289062 26.445312 -25.9375 23.71875 -25.9375 C 22.238281 -25.9375 20.96875 -25.613281 19.90625 -24.96875 C 18.84375 -24.320312 18.09375 -23.535156 17.65625 -22.609375 C 17.21875 -21.679688 16.90625 -20.894531 16.71875 -20.25 C 16.53125 -19.601562 16.4375 -19.097656 16.4375 -18.734375 L 16.4375 0 Z M 4.15625 0 "/></g></g></g><g fill="#344b6d" fill-opacity="1"><g transform="translate(138.742851, 263.707897)"><g><path d="M 40.15625 -16.09375 L 14.359375 -16.09375 C 14.359375 -13.59375 15.164062 -11.738281 16.78125 -10.53125 C 18.40625 -9.332031 20.164062 -8.734375 22.0625 -8.734375 C 24.039062 -8.734375 25.609375 -9 26.765625 -9.53125 C 27.921875 -10.0625 29.238281 -11.113281 30.71875 -12.6875 L 39.609375 -8.25 C 35.910156 -2.050781 29.757812 1.046875 21.15625 1.046875 C 15.789062 1.046875 11.1875 -0.789062 7.34375 -4.46875 C 3.507812 -8.144531 1.59375 -12.570312 1.59375 -17.75 C 1.59375 -22.9375 3.507812 -27.378906 7.34375 -31.078125 C 11.1875 -34.773438 15.789062 -36.625 21.15625 -36.625 C 26.789062 -36.625 31.378906 -34.992188 34.921875 -31.734375 C 38.460938 -28.472656 40.234375 -23.8125 40.234375 -17.75 C 40.234375 -16.914062 40.207031 -16.363281 40.15625 -16.09375 Z M 14.703125 -22.890625 L 28.234375 -22.890625 C 27.953125 -24.734375 27.222656 -26.148438 26.046875 -27.140625 C 24.867188 -28.140625 23.351562 -28.640625 21.5 -28.640625 C 19.46875 -28.640625 17.847656 -28.109375 16.640625 -27.046875 C 15.441406 -25.984375 14.796875 -24.597656 14.703125 -22.890625 Z M 14.703125 -22.890625 "/></g></g></g><g fill="#344b6d" fill-opacity="1"><g transform="translate(177.088805, 263.707897)"><g><path d="M 6.578125 -4.390625 C 3.253906 -8.023438 1.59375 -12.476562 1.59375 -17.75 C 1.59375 -23.019531 3.253906 -27.484375 6.578125 -31.140625 C 9.910156 -34.796875 14.144531 -36.625 19.28125 -36.625 C 24 -36.625 27.882812 -35.144531 30.9375 -32.1875 L 30.9375 -59.65625 L 43.203125 -59.65625 L 43.203125 0 L 31.078125 0 L 31.078125 -4.015625 L 30.9375 -4.015625 C 27.882812 -0.640625 24 1.046875 19.28125 1.046875 C 14.144531 1.046875 9.910156 -0.765625 6.578125 -4.390625 Z M 17.03125 -23.796875 C 15.4375 -22.222656 14.640625 -20.207031 14.640625 -17.75 C 14.640625 -15.300781 15.398438 -13.300781 16.921875 -11.75 C 18.453125 -10.207031 20.460938 -9.4375 22.953125 -9.4375 C 25.359375 -9.4375 27.335938 -10.222656 28.890625 -11.796875 C 30.441406 -13.367188 31.21875 -15.351562 31.21875 -17.75 C 31.21875 -20.207031 30.414062 -22.222656 28.8125 -23.796875 C 27.21875 -25.367188 25.265625 -26.15625 22.953125 -26.15625 C 20.597656 -26.15625 18.625 -25.367188 17.03125 -23.796875 Z M 17.03125 -23.796875 "/></g></g></g><g fill="#344b6d" fill-opacity="1"><g transform="translate(220.982202, 263.707897)"><g><path d="M 40.15625 -16.09375 L 14.359375 -16.09375 C 14.359375 -13.59375 15.164062 -11.738281 16.78125 -10.53125 C 18.40625 -9.332031 20.164062 -8.734375 22.0625 -8.734375 C 24.039062 -8.734375 25.609375 -9 26.765625 -9.53125 C 27.921875 -10.0625 29.238281 -11.113281 30.71875 -12.6875 L 39.609375 -8.25 C 35.910156 -2.050781 29.757812 1.046875 21.15625 1.046875 C 15.789062 1.046875 11.1875 -0.789062 7.34375 -4.46875 C 3.507812 -8.144531 1.59375 -12.570312 1.59375 -17.75 C 1.59375 -22.9375 3.507812 -27.378906 7.34375 -31.078125 C 11.1875 -34.773438 15.789062 -36.625 21.15625 -36.625 C 26.789062 -36.625 31.378906 -34.992188 34.921875 -31.734375 C 38.460938 -28.472656 40.234375 -23.8125 40.234375 -17.75 C 40.234375 -16.914062 40.207031 -16.363281 40.15625 -16.09375 Z M 14.703125 -22.890625 L 28.234375 -22.890625 C 27.953125 -24.734375 27.222656 -26.148438 26.046875 -27.140625 C 24.867188 -28.140625 23.351562 -28.640625 21.5 -28.640625 C 19.46875 -28.640625 17.847656 -28.109375 16.640625 -27.046875 C 15.441406 -25.984375 14.796875 -24.597656 14.703125 -22.890625 Z M 14.703125 -22.890625 "/></g></g></g><g fill="#344b6d" fill-opacity="1"><g transform="translate(259.328164, 263.707897)"><g><path d="M 4.15625 0 L 4.15625 -35.578125 L 16.4375 -35.578125 L 16.4375 -31.828125 L 16.578125 -31.828125 C 19.765625 -35.023438 23.160156 -36.625 26.765625 -36.625 C 29.359375 -36.625 31.785156 -36.09375 34.046875 -35.03125 C 36.316406 -33.96875 38.03125 -32.328125 39.1875 -30.109375 C 42.789062 -34.453125 46.722656 -36.625 50.984375 -36.625 C 54.773438 -36.625 58.03125 -35.554688 60.75 -33.421875 C 63.476562 -31.296875 64.84375 -27.96875 64.84375 -23.4375 L 64.84375 0 L 52.578125 0 L 52.578125 -20.109375 C 52.578125 -22.003906 52.054688 -23.585938 51.015625 -24.859375 C 49.972656 -26.128906 48.410156 -26.765625 46.328125 -26.765625 C 44.523438 -26.765625 43.148438 -26.222656 42.203125 -25.140625 C 41.253906 -24.054688 40.734375 -22.75 40.640625 -21.21875 L 40.640625 0 L 28.375 0 L 28.375 -20.109375 C 28.375 -22.003906 27.851562 -23.585938 26.8125 -24.859375 C 25.769531 -26.128906 24.207031 -26.765625 22.125 -26.765625 C 20.226562 -26.765625 18.804688 -26.175781 17.859375 -25 C 16.910156 -23.820312 16.4375 -22.425781 16.4375 -20.8125 L 16.4375 0 Z M 4.15625 0 "/></g></g></g><g fill="#344b6d" fill-opacity="1"><g transform="translate(324.163213, 263.707897)"><g><path d="M 31.140625 -35.578125 L 45.296875 -35.578125 L 17.34375 18.03125 L 3.1875 18.03125 L 15.46875 -5.546875 L -1.390625 -35.578125 L 12.765625 -35.578125 L 22.6875 -17.34375 Z M 31.140625 -35.578125 "/></g></g></g></svg>