<svg xmlns="http://www.w3.org/2000/svg" xmlns:xlink="http://www.w3.org/1999/xlink" width="500" zoomAndPan="magnify" viewBox="0 0 375 374.999991" height="500" preserveAspectRatio="xMidYMid meet" version="1.0"><defs><clipPath id="ba30eb7c71"><path d="M 50 52 L 317 52 L 317 320 L 50 320 Z M 50 52 " clip-rule="nonzero"/></clipPath><clipPath id="9861f2e5d7"><path d="M 105.960938 0 L 369.558594 108.363281 L 261.195312 371.960938 L -2.402344 263.597656 Z M 105.960938 0 " clip-rule="nonzero"/></clipPath><clipPath id="aad6dba4ae"><path d="M 105.960938 0 L 369.558594 108.363281 L 261.195312 371.960938 L -2.402344 263.597656 Z M 105.960938 0 " clip-rule="nonzero"/></clipPath><clipPath id="7a87b62c1f"><path d="M 76 261 L 121 261 L 121 305 L 76 305 Z M 76 261 " clip-rule="nonzero"/></clipPath><clipPath id="3ece183b5c"><path d="M 105.503906 1.117188 L 375.34375 112.046875 L 267.265625 374.949219 L -2.574219 264.019531 Z M 105.503906 1.117188 " clip-rule="nonzero"/></clipPath><clipPath id="8f511deeae"><path d="M 105.503906 1.117188 L 375.34375 112.046875 L 267.265625 374.949219 L -2.574219 264.019531 Z M 105.503906 1.117188 " clip-rule="nonzero"/></clipPath><clipPath id="c713da502f"><path d="M 159 293 L 196 293 L 196 335 L 159 335 Z M 159 293 " clip-rule="nonzero"/></clipPath><clipPath id="623bac4de6"><path d="M 105.503906 1.117188 L 375.34375 112.046875 L 267.265625 374.949219 L -2.574219 264.019531 Z M 105.503906 1.117188 " clip-rule="nonzero"/></clipPath><clipPath id="9f60c78ac5"><path d="M 105.503906 1.117188 L 375.34375 112.046875 L 267.265625 374.949219 L -2.574219 264.019531 Z M 105.503906 1.117188 " clip-rule="nonzero"/></clipPath><clipPath id="0ca9b48958"><path d="M 236 265 L 283 265 L 283 315 L 236 315 Z M 236 265 " clip-rule="nonzero"/></clipPath><clipPath id="ee0f8c4937"><path d="M 105.503906 1.117188 L 375.34375 112.046875 L 267.265625 374.949219 L -2.574219 264.019531 Z M 105.503906 1.117188 " clip-rule="nonzero"/></clipPath><clipPath id="be0cdbffcf"><path d="M 105.503906 1.117188 L 375.34375 112.046875 L 267.265625 374.949219 L -2.574219 264.019531 Z M 105.503906 1.117188 " clip-rule="nonzero"/></clipPath><clipPath id="47ed9c3433"><path d="M 125 286 L 148 286 L 148 322 L 125 322 Z M 125 286 " clip-rule="nonzero"/></clipPath><clipPath id="e55f05b806"><path d="M 105.503906 1.117188 L 375.34375 112.046875 L 267.265625 374.949219 L -2.574219 264.019531 Z M 105.503906 1.117188 " clip-rule="nonzero"/></clipPath><clipPath id="34f5d5df90"><path d="M 105.503906 1.117188 L 375.34375 112.046875 L 267.265625 374.949219 L -2.574219 264.019531 Z M 105.503906 1.117188 " clip-rule="nonzero"/></clipPath><clipPath id="f411762b6e"><path d="M 210 294 L 229 294 L 229 325 L 210 325 Z M 210 294 " clip-rule="nonzero"/></clipPath><clipPath id="e12dedb9eb"><path d="M 105.503906 1.117188 L 375.34375 112.046875 L 267.265625 374.949219 L -2.574219 264.019531 Z M 105.503906 1.117188 " clip-rule="nonzero"/></clipPath><clipPath id="94b888309b"><path d="M 105.503906 1.117188 L 375.34375 112.046875 L 267.265625 374.949219 L -2.574219 264.019531 Z M 105.503906 1.117188 " clip-rule="nonzero"/></clipPath><clipPath id="775af55767"><path d="M 274 251 L 301 251 L 301 272 L 274 272 Z M 274 251 " clip-rule="nonzero"/></clipPath><clipPath id="f6720c5775"><path d="M 105.503906 1.117188 L 375.34375 112.046875 L 267.265625 374.949219 L -2.574219 264.019531 Z M 105.503906 1.117188 " clip-rule="nonzero"/></clipPath><clipPath id="34e2fac973"><path d="M 105.503906 1.117188 L 375.34375 112.046875 L 267.265625 374.949219 L -2.574219 264.019531 Z M 105.503906 1.117188 " clip-rule="nonzero"/></clipPath><clipPath id="b2ce128a6c"><path d="M 124 49 L 167 49 L 167 95 L 124 95 Z M 124 49 " clip-rule="nonzero"/></clipPath><clipPath id="01d9f226a2"><path d="M 105.503906 1.117188 L 375.34375 112.046875 L 267.265625 374.949219 L -2.574219 264.019531 Z M 105.503906 1.117188 " clip-rule="nonzero"/></clipPath><clipPath id="6f3224fb32"><path d="M 105.503906 1.117188 L 375.34375 112.046875 L 267.265625 374.949219 L -2.574219 264.019531 Z M 105.503906 1.117188 " clip-rule="nonzero"/></clipPath><clipPath id="71b325a769"><path d="M 57 105 L 99 105 L 99 141 L 57 141 Z M 57 105 " clip-rule="nonzero"/></clipPath><clipPath id="7e22fec312"><path d="M 105.503906 1.117188 L 375.34375 112.046875 L 267.265625 374.949219 L -2.574219 264.019531 Z M 105.503906 1.117188 " clip-rule="nonzero"/></clipPath><clipPath id="5156157f02"><path d="M 105.503906 1.117188 L 375.34375 112.046875 L 267.265625 374.949219 L -2.574219 264.019531 Z M 105.503906 1.117188 " clip-rule="nonzero"/></clipPath><clipPath id="63861e3894"><path d="M 35 181 L 84 181 L 84 229 L 35 229 Z M 35 181 " clip-rule="nonzero"/></clipPath><clipPath id="620225dcc6"><path d="M 105.503906 1.117188 L 375.34375 112.046875 L 267.265625 374.949219 L -2.574219 264.019531 Z M 105.503906 1.117188 " clip-rule="nonzero"/></clipPath><clipPath id="8c8c764a37"><path d="M 105.503906 1.117188 L 375.34375 112.046875 L 267.265625 374.949219 L -2.574219 264.019531 Z M 105.503906 1.117188 " clip-rule="nonzero"/></clipPath><clipPath id="15e524128f"><path d="M 89 81 L 125 81 L 125 103 L 89 103 Z M 89 81 " clip-rule="nonzero"/></clipPath><clipPath id="b03d64ddbd"><path d="M 105.503906 1.117188 L 375.34375 112.046875 L 267.265625 374.949219 L -2.574219 264.019531 Z M 105.503906 1.117188 " clip-rule="nonzero"/></clipPath><clipPath id="b0b6db7a11"><path d="M 105.503906 1.117188 L 375.34375 112.046875 L 267.265625 374.949219 L -2.574219 264.019531 Z M 105.503906 1.117188 " clip-rule="nonzero"/></clipPath><clipPath id="27f222dc92"><path d="M 46 149 L 77 149 L 77 173 L 46 173 Z M 46 149 " clip-rule="nonzero"/></clipPath><clipPath id="d3e9c7884c"><path d="M 105.503906 1.117188 L 375.34375 112.046875 L 267.265625 374.949219 L -2.574219 264.019531 Z M 105.503906 1.117188 " clip-rule="nonzero"/></clipPath><clipPath id="d31906a652"><path d="M 105.503906 1.117188 L 375.34375 112.046875 L 267.265625 374.949219 L -2.574219 264.019531 Z M 105.503906 1.117188 " clip-rule="nonzero"/></clipPath><clipPath id="62017c1c7d"><path d="M 60 232 L 82 232 L 82 257 L 60 257 Z M 60 232 " clip-rule="nonzero"/></clipPath><clipPath id="65038e0ea7"><path d="M 105.503906 1.117188 L 375.34375 112.046875 L 267.265625 374.949219 L -2.574219 264.019531 Z M 105.503906 1.117188 " clip-rule="nonzero"/></clipPath><clipPath id="9a79259d77"><path d="M 105.503906 1.117188 L 375.34375 112.046875 L 267.265625 374.949219 L -2.574219 264.019531 Z M 105.503906 1.117188 " clip-rule="nonzero"/></clipPath><clipPath id="f4c797a115"><path d="M 285 197 L 329 197 L 329 241 L 285 241 Z M 285 197 " clip-rule="nonzero"/></clipPath><clipPath id="120c3dbd33"><path d="M 105.503906 1.117188 L 375.34375 112.046875 L 267.265625 374.949219 L -2.574219 264.019531 Z M 105.503906 1.117188 " clip-rule="nonzero"/></clipPath><clipPath id="98d07c00d3"><path d="M 105.503906 1.117188 L 375.34375 112.046875 L 267.265625 374.949219 L -2.574219 264.019531 Z M 105.503906 1.117188 " clip-rule="nonzero"/></clipPath><clipPath id="2b0b49864b"><path d="M 274 115 L 313 115 L 313 155 L 274 155 Z M 274 115 " clip-rule="nonzero"/></clipPath><clipPath id="23ee1b5c75"><path d="M 105.503906 1.117188 L 375.34375 112.046875 L 267.265625 374.949219 L -2.574219 264.019531 Z M 105.503906 1.117188 " clip-rule="nonzero"/></clipPath><clipPath id="55f2f0b44f"><path d="M 105.503906 1.117188 L 375.34375 112.046875 L 267.265625 374.949219 L -2.574219 264.019531 Z M 105.503906 1.117188 " clip-rule="nonzero"/></clipPath><clipPath id="c061c5cadb"><path d="M 210 54 L 257 54 L 257 102 L 210 102 Z M 210 54 " clip-rule="nonzero"/></clipPath><clipPath id="4d9b4b3276"><path d="M 105.503906 1.117188 L 375.34375 112.046875 L 267.265625 374.949219 L -2.574219 264.019531 Z M 105.503906 1.117188 " clip-rule="nonzero"/></clipPath><clipPath id="aa885f30ed"><path d="M 105.503906 1.117188 L 375.34375 112.046875 L 267.265625 374.949219 L -2.574219 264.019531 Z M 105.503906 1.117188 " clip-rule="nonzero"/></clipPath><clipPath id="3dab5711e6"><path d="M 292 159 L 322 159 L 322 191 L 292 191 Z M 292 159 " clip-rule="nonzero"/></clipPath><clipPath id="de878e8640"><path d="M 105.503906 1.117188 L 375.34375 112.046875 L 267.265625 374.949219 L -2.574219 264.019531 Z M 105.503906 1.117188 " clip-rule="nonzero"/></clipPath><clipPath id="6d070fb529"><path d="M 105.503906 1.117188 L 375.34375 112.046875 L 267.265625 374.949219 L -2.574219 264.019531 Z M 105.503906 1.117188 " clip-rule="nonzero"/></clipPath><clipPath id="1af80ad1fa"><path d="M 254 89 L 283 89 L 283 115 L 254 115 Z M 254 89 " clip-rule="nonzero"/></clipPath><clipPath id="2cafabfcbc"><path d="M 105.503906 1.117188 L 375.34375 112.046875 L 267.265625 374.949219 L -2.574219 264.019531 Z M 105.503906 1.117188 " clip-rule="nonzero"/></clipPath><clipPath id="4068b0b097"><path d="M 105.503906 1.117188 L 375.34375 112.046875 L 267.265625 374.949219 L -2.574219 264.019531 Z M 105.503906 1.117188 " clip-rule="nonzero"/></clipPath><clipPath id="72327b3de3"><path d="M 180 56 L 202 56 L 202 81 L 180 81 Z M 180 56 " clip-rule="nonzero"/></clipPath><clipPath id="7e92a95a4f"><path d="M 105.503906 1.117188 L 375.34375 112.046875 L 267.265625 374.949219 L -2.574219 264.019531 Z M 105.503906 1.117188 " clip-rule="nonzero"/></clipPath><clipPath id="4875dee218"><path d="M 105.503906 1.117188 L 375.34375 112.046875 L 267.265625 374.949219 L -2.574219 264.019531 Z M 105.503906 1.117188 " clip-rule="nonzero"/></clipPath></defs><rect x="-37.5" width="450" fill="#ffffff" y="-37.499999" height="449.999989" fill-opacity="1"/><rect x="-37.5" width="450" fill="#ffffff" y="-37.499999" height="449.999989" fill-opacity="1"/><g clip-path="url(#ba30eb7c71)"><g clip-path="url(#9861f2e5d7)"><g clip-path="url(#aad6dba4ae)"><path fill="#72cbf2" d="M 234.390625 149.128906 C 246.933594 136.441406 257.738281 120.960938 261.015625 103.113281 C 263.277344 90.816406 260.761719 77.179688 252.707031 67.375 C 245.59375 58.71875 234.746094 52.960938 223.4375 52.859375 C 209.992188 52.738281 198.09375 58.804688 189.476562 69.050781 C 176.902344 84 173.363281 105.097656 173.355469 124.039062 C 180.058594 124.855469 186.757812 125.667969 193.460938 126.484375 C 193.34375 107.917969 190.703125 88.847656 180.09375 73.121094 C 172.964844 62.550781 161.453125 54.535156 148.589844 53.21875 C 136.882812 52.023438 125.234375 56.140625 116.898438 64.414062 C 107.625 73.613281 103.960938 86.453125 105.09375 99.300781 C 106.894531 119.746094 120.359375 137.171875 134.324219 151.164062 C 138.460938 145.824219 142.59375 140.488281 146.726562 135.152344 C 134.039062 122.605469 118.558594 111.804688 100.710938 108.523438 C 88.410156 106.265625 74.777344 108.78125 64.972656 116.835938 C 56.316406 123.945312 50.558594 134.796875 50.457031 146.105469 C 50.335938 159.546875 56.402344 171.449219 66.644531 180.0625 C 81.597656 192.636719 102.695312 196.179688 121.636719 196.1875 C 122.449219 189.484375 123.265625 182.785156 124.082031 176.082031 C 105.515625 176.199219 86.445312 178.839844 70.71875 189.449219 C 60.148438 196.578125 52.132812 208.085938 50.816406 220.949219 C 49.621094 232.65625 53.738281 244.308594 62.011719 252.644531 C 71.210938 261.917969 84.050781 265.578125 96.898438 264.449219 C 117.34375 262.648438 134.769531 249.183594 148.761719 235.214844 C 143.421875 231.082031 138.085938 226.949219 132.75 222.816406 C 120.203125 235.503906 109.402344 250.984375 106.121094 268.832031 C 103.863281 281.128906 106.378906 294.765625 114.433594 304.570312 C 121.542969 313.226562 132.394531 318.984375 143.703125 319.085938 C 157.144531 319.203125 169.046875 313.140625 177.660156 302.894531 C 190.234375 287.945312 193.777344 266.847656 193.78125 247.90625 C 187.082031 247.089844 180.378906 246.277344 173.679688 245.460938 C 173.792969 264.027344 176.4375 283.097656 187.046875 298.824219 C 194.175781 309.394531 205.683594 317.410156 218.546875 318.722656 C 230.253906 319.921875 241.90625 315.800781 250.242188 307.53125 C 259.515625 298.332031 263.175781 285.492188 262.046875 272.644531 C 260.246094 252.199219 246.78125 234.773438 232.8125 220.78125 C 228.679688 226.117188 224.546875 231.457031 220.414062 236.792969 C 233.101562 249.335938 248.578125 260.140625 266.429688 263.417969 C 278.726562 265.679688 292.359375 263.164062 302.167969 255.109375 C 310.824219 247.996094 316.578125 237.148438 316.679688 225.839844 C 316.800781 212.394531 310.738281 200.496094 300.492188 191.878906 C 285.539062 179.304688 264.445312 175.765625 245.503906 175.757812 C 244.6875 182.460938 243.871094 189.160156 243.058594 195.863281 C 261.625 195.746094 280.695312 193.105469 296.421875 182.496094 C 306.988281 175.367188 315.007812 163.859375 316.320312 150.992188 C 317.519531 139.285156 313.398438 127.636719 305.128906 119.300781 C 295.929688 110.027344 283.089844 106.363281 270.242188 107.496094 C 249.796875 109.296875 232.367188 122.761719 218.378906 136.726562 C 214.621094 140.480469 216.105469 148.058594 220.183594 150.933594 C 225.144531 154.433594 230.363281 153.148438 234.390625 149.128906 C 233.28125 150.234375 235.488281 148.085938 235.785156 147.808594 C 236.613281 147.027344 237.449219 146.257812 238.296875 145.5 C 240.019531 143.960938 241.785156 142.46875 243.597656 141.035156 C 246.769531 138.527344 250.089844 136.265625 253.519531 134.132812 C 255.046875 133.183594 252.214844 134.78125 254.257812 133.726562 C 255.019531 133.332031 255.773438 132.921875 256.542969 132.539062 C 258.109375 131.761719 259.707031 131.042969 261.328125 130.394531 C 262.753906 129.824219 264.203125 129.351562 265.65625 128.859375 C 267.796875 128.128906 264.171875 129.132812 265.863281 128.78125 C 266.652344 128.617188 267.429688 128.40625 268.21875 128.25 C 269.539062 127.984375 270.871094 127.777344 272.210938 127.632812 C 272.855469 127.5625 273.5 127.507812 274.144531 127.46875 C 274.417969 127.453125 274.695312 127.453125 274.964844 127.425781 C 276.863281 127.222656 273.128906 127.320312 274.214844 127.417969 C 276.679688 127.636719 279.058594 127.753906 281.503906 128.199219 C 283.597656 128.582031 280.566406 127.878906 280.976562 128.035156 C 281.488281 128.226562 282.03125 128.351562 282.550781 128.527344 C 283.640625 128.898438 284.710938 129.332031 285.753906 129.824219 C 286.226562 130.046875 286.6875 130.3125 287.164062 130.535156 C 288.59375 131.1875 284.78125 128.957031 286.546875 130.183594 C 287.449219 130.8125 288.371094 131.394531 289.234375 132.078125 C 289.84375 132.566406 290.78125 133.832031 291.5 134.078125 C 290.738281 133.816406 289.691406 132.074219 290.980469 133.605469 C 291.34375 134.039062 291.722656 134.457031 292.078125 134.902344 C 292.691406 135.679688 293.238281 136.496094 293.796875 137.308594 C 294.964844 139.015625 293.179688 137.105469 293.472656 136.695312 C 293.421875 136.765625 294.1875 138.074219 294.242188 138.191406 C 294.667969 139.074219 295.042969 139.980469 295.375 140.902344 C 295.515625 141.296875 295.613281 141.71875 295.777344 142.101562 C 296.167969 143.019531 295.214844 139.421875 295.6875 141.839844 C 295.863281 142.742188 296.046875 143.636719 296.164062 144.546875 C 296.234375 145.109375 296.269531 145.671875 296.328125 146.238281 C 296.351562 146.449219 296.34375 146.664062 296.363281 146.875 C 296.523438 148.484375 295.898438 145.914062 296.371094 145.75 C 296.285156 145.777344 295.800781 151.230469 295.703125 151.792969 C 295.304688 154.117188 296.296875 150.070312 295.839844 151.324219 C 295.6875 151.746094 295.574219 152.1875 295.425781 152.613281 C 295.027344 153.773438 294.554688 154.90625 294.019531 156.011719 C 293.816406 156.4375 293.578125 156.84375 293.378906 157.269531 C 292.714844 158.679688 294.84375 155.035156 293.648438 156.78125 C 292.949219 157.804688 292.277344 158.835938 291.507812 159.808594 C 290.757812 160.757812 289.925781 161.621094 289.132812 162.53125 C 288.078125 163.738281 290.917969 160.933594 289.269531 162.367188 C 288.710938 162.847656 288.171875 163.347656 287.601562 163.816406 C 286.335938 164.859375 285.011719 165.828125 283.640625 166.726562 C 282.964844 167.171875 282.257812 167.574219 281.578125 168.011719 C 283.421875 166.828125 282.140625 167.679688 281.054688 168.234375 C 277.765625 169.917969 274.3125 171.269531 270.785156 172.359375 C 270.308594 172.507812 269.824219 172.636719 269.347656 172.789062 C 270.082031 172.558594 270.765625 172.433594 269.621094 172.707031 C 268.589844 172.953125 267.566406 173.210938 266.53125 173.433594 C 264.199219 173.941406 261.847656 174.347656 259.484375 174.675781 C 257.082031 175.011719 254.667969 175.257812 252.25 175.4375 C 250.972656 175.53125 249.691406 175.605469 248.410156 175.660156 C 247.914062 175.679688 247.421875 175.699219 246.929688 175.714844 C 246.917969 175.714844 243.804688 175.769531 245.503906 175.757812 C 240.039062 175.792969 234.953125 178.667969 234.230469 184.589844 C 233.625 189.511719 237.558594 195.859375 243.058594 195.863281 C 251.941406 195.867188 260.695312 196.707031 269.359375 198.683594 C 271.132812 199.089844 268.882812 198.527344 268.675781 198.496094 C 269.078125 198.558594 269.539062 198.726562 269.9375 198.847656 C 270.757812 199.09375 271.574219 199.335938 272.386719 199.601562 C 274.121094 200.167969 275.835938 200.804688 277.519531 201.515625 C 278.917969 202.105469 280.296875 202.746094 281.648438 203.445312 C 281.972656 203.613281 282.292969 203.796875 282.617188 203.960938 C 284.109375 204.699219 281.710938 203.5 281.675781 203.398438 C 281.808594 203.792969 283.511719 204.519531 283.902344 204.777344 C 285.019531 205.511719 286.105469 206.292969 287.152344 207.125 C 288.171875 207.933594 289.230469 209.355469 290.359375 209.945312 C 289.15625 209.316406 288.851562 208.351562 290.089844 209.722656 C 290.488281 210.160156 290.875 210.609375 291.253906 211.066406 C 292.074219 212.066406 292.808594 213.117188 293.539062 214.183594 C 294.304688 215.304688 294.023438 216.144531 293.324219 213.71875 C 293.464844 214.199219 293.863281 214.710938 294.089844 215.160156 C 294.625 216.234375 295.097656 217.332031 295.503906 218.460938 C 295.683594 218.949219 295.816406 219.453125 296 219.941406 C 296.507812 221.308594 295.417969 217.195312 295.816406 219.304688 C 296.027344 220.429688 296.273438 221.53125 296.40625 222.667969 C 296.464844 223.164062 296.492188 223.664062 296.542969 224.160156 C 296.671875 225.476562 296.011719 226.011719 296.578125 223.394531 C 296.355469 224.421875 296.511719 225.644531 296.390625 226.703125 C 296.28125 227.675781 296.078125 228.625 295.914062 229.589844 C 295.558594 231.710938 296.65625 227.328125 296.160156 228.730469 C 295.960938 229.300781 295.8125 229.890625 295.609375 230.460938 C 295.285156 231.375 294.917969 232.269531 294.503906 233.148438 C 294.296875 233.585938 294.0625 234.011719 293.851562 234.445312 C 292.890625 236.453125 295.394531 232.152344 294.109375 233.984375 C 292.953125 235.625 291.230469 237.167969 290.222656 238.851562 C 290.800781 237.886719 292.117188 237.128906 290.734375 238.28125 C 290.351562 238.601562 289.980469 238.933594 289.589844 239.246094 C 288.746094 239.921875 287.859375 240.511719 286.96875 241.121094 C 284.976562 242.480469 288.324219 240.488281 287.382812 240.898438 C 286.910156 241.105469 286.457031 241.382812 285.988281 241.605469 C 284.96875 242.089844 283.921875 242.515625 282.855469 242.886719 C 282.558594 242.992188 281.261719 243.222656 281.105469 243.441406 C 281.15625 243.367188 283.75 242.867188 282.398438 243.074219 C 282.128906 243.117188 281.855469 243.210938 281.585938 243.261719 C 280.386719 243.488281 279.199219 243.714844 277.984375 243.847656 C 277.398438 243.910156 276.808594 243.960938 276.21875 243.996094 C 274.722656 244.085938 273.90625 243.4375 276.34375 244.039062 C 275.128906 243.738281 273.585938 243.945312 272.324219 243.816406 C 270.742188 243.648438 269.167969 243.398438 267.613281 243.066406 C 267.273438 242.996094 266.933594 242.914062 266.59375 242.839844 C 265.34375 242.570312 265.234375 241.9375 267.152344 242.996094 C 266.496094 242.632812 265.507812 242.515625 264.785156 242.277344 C 261.160156 241.085938 257.664062 239.527344 254.308594 237.71875 C 253.925781 237.511719 253.550781 237.285156 253.164062 237.089844 C 252.011719 236.511719 255.121094 238.289062 253.492188 237.273438 C 252.515625 236.664062 251.53125 236.070312 250.566406 235.4375 C 248.628906 234.164062 246.738281 232.8125 244.890625 231.402344 C 240.625 228.140625 236.628906 224.554688 232.8125 220.78125 C 229.035156 217.046875 221.496094 218.488281 218.609375 222.585938 C 215.109375 227.546875 216.394531 232.765625 220.414062 236.792969 C 219.304688 235.683594 221.457031 237.890625 221.734375 238.1875 C 222.515625 239.015625 223.28125 239.851562 224.039062 240.699219 C 225.578125 242.421875 227.070312 244.1875 228.503906 246 C 231.015625 249.171875 233.273438 252.492188 235.410156 255.921875 C 236.359375 257.453125 234.761719 254.617188 235.816406 256.660156 C 236.210938 257.425781 236.621094 258.175781 237.003906 258.945312 C 237.78125 260.511719 238.496094 262.109375 239.148438 263.730469 C 239.714844 265.15625 240.191406 266.605469 240.683594 268.058594 C 241.410156 270.199219 240.410156 266.574219 240.761719 268.265625 C 240.921875 269.054688 241.136719 269.832031 241.292969 270.621094 C 241.558594 271.941406 241.765625 273.273438 241.910156 274.613281 C 241.980469 275.257812 242.035156 275.902344 242.074219 276.550781 C 242.089844 276.820312 242.089844 277.097656 242.117188 277.367188 C 242.316406 279.265625 242.21875 275.53125 242.125 276.617188 C 241.90625 279.082031 241.789062 281.460938 241.34375 283.90625 C 240.960938 286 241.660156 282.96875 241.507812 283.378906 C 241.3125 283.890625 241.191406 284.433594 241.015625 284.953125 C 240.640625 286.042969 240.210938 287.113281 239.71875 288.15625 C 239.492188 288.632812 239.226562 289.089844 239.007812 289.566406 C 238.351562 290.996094 240.585938 287.183594 239.359375 288.949219 C 238.730469 289.851562 238.148438 290.773438 237.460938 291.636719 C 236.976562 292.246094 235.710938 293.183594 235.464844 293.902344 C 235.726562 293.140625 237.464844 292.09375 235.9375 293.382812 C 235.503906 293.75 235.082031 294.125 234.640625 294.480469 C 233.863281 295.097656 233.046875 295.640625 232.230469 296.199219 C 230.527344 297.367188 232.4375 295.582031 232.847656 295.878906 C 232.773438 295.824219 231.46875 296.589844 231.351562 296.648438 C 230.464844 297.070312 229.558594 297.449219 228.636719 297.777344 C 228.246094 297.917969 227.824219 298.015625 227.441406 298.179688 C 226.523438 298.570312 230.121094 297.617188 227.703125 298.089844 C 226.800781 298.265625 225.90625 298.449219 224.996094 298.566406 C 224.433594 298.636719 223.867188 298.671875 223.304688 298.730469 C 223.09375 298.753906 222.878906 298.746094 222.664062 298.765625 C 221.058594 298.925781 223.628906 298.300781 223.792969 298.773438 C 223.761719 298.6875 218.3125 298.203125 217.75 298.105469 C 215.425781 297.707031 219.472656 298.699219 218.21875 298.242188 C 217.796875 298.089844 217.355469 297.976562 216.929688 297.828125 C 215.769531 297.429688 214.632812 296.957031 213.527344 296.425781 C 213.105469 296.21875 212.695312 295.980469 212.269531 295.78125 C 210.859375 295.117188 214.507812 297.246094 212.761719 296.050781 C 211.738281 295.351562 210.707031 294.679688 209.730469 293.910156 C 208.78125 293.160156 207.921875 292.328125 207.011719 291.535156 C 205.804688 290.480469 208.609375 293.320312 207.175781 291.671875 C 206.691406 291.113281 206.195312 290.574219 205.726562 290.003906 C 204.683594 288.738281 203.714844 287.414062 202.8125 286.042969 C 202.367188 285.367188 201.96875 284.660156 201.53125 283.980469 C 202.714844 285.824219 201.863281 284.542969 201.304688 283.457031 C 199.625 280.167969 198.269531 276.714844 197.183594 273.1875 C 197.035156 272.710938 196.902344 272.226562 196.753906 271.75 C 196.984375 272.484375 197.109375 273.167969 196.835938 272.023438 C 196.589844 270.992188 196.332031 269.96875 196.105469 268.933594 C 195.601562 266.601562 195.195312 264.25 194.867188 261.886719 C 194.53125 259.484375 194.28125 257.070312 194.105469 254.652344 C 194.011719 253.375 193.9375 252.09375 193.882812 250.8125 C 193.863281 250.316406 193.84375 249.824219 193.828125 249.332031 C 193.828125 249.320312 193.773438 246.207031 193.78125 247.90625 C 193.75 242.441406 190.875 237.355469 184.953125 236.632812 C 180.03125 236.027344 173.683594 239.960938 173.679688 245.460938 C 173.675781 254.34375 172.835938 263.097656 170.859375 271.761719 C 170.453125 273.535156 171.015625 271.285156 171.046875 271.078125 C 170.984375 271.480469 170.8125 271.941406 170.695312 272.339844 C 170.445312 273.160156 170.207031 273.976562 169.941406 274.789062 C 169.371094 276.523438 168.738281 278.238281 168.027344 279.921875 C 167.4375 281.320312 166.792969 282.699219 166.097656 284.050781 C 165.929688 284.375 165.742188 284.695312 165.582031 285.019531 C 164.839844 286.511719 166.042969 284.113281 166.144531 284.078125 C 165.75 284.210938 165.023438 285.914062 164.765625 286.304688 C 164.027344 287.421875 163.246094 288.507812 162.417969 289.558594 C 161.609375 290.574219 160.1875 291.636719 159.597656 292.761719 C 160.226562 291.558594 161.191406 291.253906 159.820312 292.492188 C 159.382812 292.890625 158.933594 293.277344 158.476562 293.65625 C 157.476562 294.476562 156.425781 295.210938 155.359375 295.941406 C 154.238281 296.710938 153.398438 296.425781 155.824219 295.726562 C 155.339844 295.867188 154.832031 296.269531 154.378906 296.492188 C 153.308594 297.027344 152.207031 297.5 151.082031 297.90625 C 150.59375 298.085938 150.085938 298.21875 149.601562 298.402344 C 148.234375 298.910156 152.347656 297.820312 150.234375 298.21875 C 149.113281 298.429688 148.011719 298.675781 146.875 298.808594 C 146.375 298.867188 145.878906 298.894531 145.382812 298.945312 C 144.066406 299.074219 143.53125 298.414062 146.148438 298.980469 C 145.121094 298.757812 143.898438 298.914062 142.835938 298.792969 C 141.863281 298.683594 140.917969 298.480469 139.953125 298.316406 C 137.828125 297.960938 142.214844 299.058594 140.8125 298.5625 C 140.242188 298.363281 139.652344 298.214844 139.082031 298.011719 C 138.167969 297.6875 137.269531 297.320312 136.394531 296.90625 C 135.957031 296.699219 135.53125 296.464844 135.09375 296.253906 C 133.089844 295.292969 137.390625 297.796875 135.558594 296.511719 C 133.914062 295.359375 132.371094 293.632812 130.6875 292.625 C 131.65625 293.207031 132.414062 294.519531 131.257812 293.140625 C 130.941406 292.753906 130.605469 292.382812 130.292969 291.992188 C 129.621094 291.152344 129.03125 290.261719 128.421875 289.371094 C 127.0625 287.378906 129.054688 290.726562 128.640625 289.785156 C 128.433594 289.3125 128.160156 288.859375 127.9375 288.390625 C 127.453125 287.371094 127.023438 286.324219 126.652344 285.257812 C 126.550781 284.960938 126.316406 283.664062 126.101562 283.507812 C 126.171875 283.558594 126.675781 286.152344 126.46875 284.804688 C 126.425781 284.53125 126.332031 284.257812 126.277344 283.988281 C 126.054688 282.789062 125.828125 281.601562 125.695312 280.386719 C 125.632812 279.800781 125.582031 279.210938 125.546875 278.621094 C 125.457031 277.125 126.105469 276.308594 125.503906 278.746094 C 125.800781 277.535156 125.59375 275.988281 125.726562 274.726562 C 125.890625 273.144531 126.144531 271.574219 126.472656 270.015625 C 126.546875 269.675781 126.628906 269.335938 126.703125 268.996094 C 126.96875 267.75 127.605469 267.636719 126.542969 269.558594 C 126.910156 268.898438 127.027344 267.910156 127.265625 267.1875 C 128.457031 263.5625 130.015625 260.066406 131.824219 256.710938 C 132.027344 256.328125 132.257812 255.953125 132.453125 255.566406 C 133.03125 254.414062 131.253906 257.523438 132.265625 255.894531 C 132.875 254.917969 133.472656 253.933594 134.105469 252.972656 C 135.378906 251.03125 136.730469 249.140625 138.140625 247.296875 C 141.398438 243.03125 144.988281 239.03125 148.761719 235.214844 C 152.492188 231.441406 151.054688 223.898438 146.957031 221.011719 C 141.992188 217.511719 136.777344 218.796875 132.75 222.816406 C 133.859375 221.707031 131.652344 223.859375 131.355469 224.136719 C 130.527344 224.917969 129.691406 225.683594 128.84375 226.441406 C 127.121094 227.984375 125.355469 229.476562 123.542969 230.90625 C 120.367188 233.417969 117.050781 235.675781 113.617188 237.8125 C 112.089844 238.761719 114.925781 237.164062 112.878906 238.21875 C 112.117188 238.613281 111.363281 239.023438 110.597656 239.40625 C 109.03125 240.183594 107.433594 240.902344 105.808594 241.550781 C 104.386719 242.121094 102.9375 242.59375 101.484375 243.085938 C 99.34375 243.8125 102.96875 242.8125 101.273438 243.164062 C 100.488281 243.328125 99.710938 243.539062 98.921875 243.695312 C 97.601562 243.960938 96.269531 244.167969 94.929688 244.3125 C 94.285156 244.382812 93.640625 244.4375 92.992188 244.476562 C 92.722656 244.492188 92.445312 244.492188 92.175781 244.519531 C 90.277344 244.71875 94.011719 244.625 92.925781 244.527344 C 90.460938 244.308594 88.082031 244.191406 85.632812 243.746094 C 83.542969 243.363281 86.574219 244.0625 86.164062 243.910156 C 85.652344 243.714844 85.105469 243.59375 84.589844 243.417969 C 83.5 243.042969 82.429688 242.613281 81.386719 242.121094 C 80.910156 241.898438 80.453125 241.628906 79.976562 241.410156 C 78.546875 240.753906 82.355469 242.988281 80.59375 241.761719 C 79.691406 241.132812 78.769531 240.550781 77.90625 239.867188 C 77.292969 239.378906 76.359375 238.113281 75.640625 237.867188 C 76.398438 238.128906 77.445312 239.867188 76.160156 238.339844 C 75.792969 237.90625 75.414062 237.484375 75.0625 237.042969 C 74.445312 236.265625 73.902344 235.449219 73.339844 234.632812 C 72.175781 232.929688 73.960938 234.839844 73.664062 235.25 C 73.714844 235.179688 72.949219 233.871094 72.894531 233.753906 C 72.472656 232.871094 72.09375 231.964844 71.761719 231.039062 C 71.621094 230.648438 71.527344 230.226562 71.363281 229.84375 C 70.972656 228.925781 71.921875 232.523438 71.449219 230.105469 C 71.273438 229.203125 71.089844 228.308594 70.976562 227.398438 C 70.902344 226.835938 70.867188 226.269531 70.8125 225.707031 C 70.789062 225.496094 70.796875 225.28125 70.773438 225.066406 C 70.617188 223.460938 71.242188 226.03125 70.769531 226.195312 C 70.855469 226.164062 71.339844 220.714844 71.4375 220.152344 C 71.832031 217.828125 70.839844 221.875 71.300781 220.621094 C 71.453125 220.199219 71.566406 219.757812 71.710938 219.332031 C 72.113281 218.171875 72.582031 217.035156 73.117188 215.929688 C 73.324219 215.507812 73.5625 215.097656 73.761719 214.671875 C 74.425781 213.261719 72.296875 216.910156 73.492188 215.164062 C 74.191406 214.140625 74.859375 213.109375 75.628906 212.132812 C 76.378906 211.183594 77.214844 210.324219 78.007812 209.414062 C 79.0625 208.207031 76.21875 211.011719 77.871094 209.578125 C 78.425781 209.097656 78.96875 208.597656 79.539062 208.128906 C 80.800781 207.085938 82.125 206.117188 83.496094 205.214844 C 84.175781 204.769531 84.878906 204.371094 85.5625 203.933594 C 83.71875 205.117188 85 204.265625 86.085938 203.707031 C 89.375 202.027344 92.828125 200.675781 96.355469 199.585938 C 96.832031 199.4375 97.316406 199.304688 97.792969 199.15625 C 97.058594 199.386719 96.371094 199.511719 97.519531 199.238281 C 98.550781 198.992188 99.574219 198.734375 100.609375 198.507812 C 102.941406 198.003906 105.292969 197.597656 107.652344 197.269531 C 110.054688 196.933594 112.46875 196.683594 114.886719 196.507812 C 116.167969 196.414062 117.449219 196.339844 118.730469 196.285156 C 119.222656 196.265625 119.714844 196.246094 120.210938 196.230469 C 120.21875 196.230469 123.332031 196.175781 121.636719 196.1875 C 127.097656 196.152344 132.183594 193.277344 132.910156 187.355469 C 133.511719 182.433594 129.582031 176.085938 124.082031 176.082031 C 115.199219 176.078125 106.445312 175.238281 97.78125 173.261719 C 96.003906 172.855469 98.257812 173.417969 98.464844 173.449219 C 98.058594 173.386719 97.597656 173.21875 97.199219 173.097656 C 96.382812 172.847656 95.5625 172.609375 94.753906 172.34375 C 93.015625 171.773438 91.304688 171.140625 89.621094 170.429688 C 88.21875 169.839844 86.839844 169.199219 85.492188 168.5 C 85.167969 168.332031 84.847656 168.148438 84.519531 167.984375 C 83.03125 167.242188 85.429688 168.445312 85.460938 168.546875 C 85.332031 168.152344 83.628906 167.425781 83.234375 167.167969 C 82.117188 166.429688 81.03125 165.648438 79.984375 164.820312 C 78.964844 164.011719 77.90625 162.589844 76.777344 162 C 77.980469 162.628906 78.289062 163.59375 77.046875 162.222656 C 76.652344 161.785156 76.261719 161.335938 75.886719 160.878906 C 75.066406 159.878906 74.332031 158.828125 73.601562 157.761719 C 72.832031 156.640625 73.113281 155.800781 73.816406 158.226562 C 73.675781 157.742188 73.273438 157.234375 73.050781 156.78125 C 72.515625 155.710938 72.042969 154.609375 71.632812 153.484375 C 71.457031 152.996094 71.324219 152.488281 71.140625 152.003906 C 70.628906 150.636719 71.71875 154.75 71.324219 152.636719 C 71.113281 151.515625 70.863281 150.414062 70.734375 149.277344 C 70.675781 148.78125 70.644531 148.28125 70.597656 147.785156 C 70.46875 146.46875 71.128906 145.933594 70.5625 148.550781 C 70.785156 147.523438 70.625 146.300781 70.746094 145.242188 C 70.859375 144.265625 71.0625 143.320312 71.222656 142.355469 C 71.578125 140.234375 70.484375 144.617188 70.976562 143.214844 C 71.179688 142.644531 71.328125 142.054688 71.53125 141.484375 C 71.851562 140.570312 72.222656 139.671875 72.636719 138.796875 C 72.839844 138.359375 73.078125 137.933594 73.289062 137.496094 C 74.25 135.492188 71.746094 139.792969 73.03125 137.960938 C 74.183594 136.316406 75.90625 134.773438 76.917969 133.09375 C 76.335938 134.058594 75.019531 134.816406 76.402344 133.664062 C 76.785156 133.34375 77.160156 133.007812 77.546875 132.695312 C 78.390625 132.023438 79.28125 131.433594 80.171875 130.824219 C 82.160156 129.464844 78.8125 131.457031 79.757812 131.046875 C 80.230469 130.839844 80.683594 130.5625 81.148438 130.339844 C 82.167969 129.855469 83.21875 129.425781 84.285156 129.054688 C 84.582031 128.953125 85.878906 128.71875 86.035156 128.503906 C 85.980469 128.574219 83.386719 129.078125 84.738281 128.871094 C 85.011719 128.828125 85.285156 128.734375 85.554688 128.683594 C 86.753906 128.457031 87.941406 128.230469 89.15625 128.097656 C 89.742188 128.035156 90.332031 127.984375 90.921875 127.949219 C 92.414062 127.859375 93.234375 128.507812 90.792969 127.90625 C 92.007812 128.203125 93.554688 128 94.816406 128.128906 C 96.398438 128.292969 97.96875 128.546875 99.523438 128.878906 C 99.867188 128.949219 100.203125 129.03125 100.542969 129.105469 C 101.792969 129.371094 101.902344 130.007812 99.984375 128.945312 C 100.644531 129.3125 101.632812 129.429688 102.355469 129.667969 C 105.976562 130.859375 109.476562 132.417969 112.832031 134.226562 C 113.214844 134.429688 113.585938 134.660156 113.976562 134.855469 C 115.128906 135.433594 112.015625 133.65625 113.644531 134.671875 C 114.625 135.277344 115.609375 135.875 116.570312 136.507812 C 118.511719 137.78125 120.402344 139.132812 122.246094 140.542969 C 126.511719 143.800781 130.507812 147.390625 134.324219 151.164062 C 138.101562 154.898438 145.644531 153.457031 148.53125 149.359375 C 152.027344 144.394531 150.746094 139.179688 146.726562 135.152344 C 147.832031 136.261719 145.683594 134.054688 145.402344 133.757812 C 144.625 132.929688 143.855469 132.09375 143.097656 131.246094 C 141.558594 129.523438 140.066406 127.757812 138.632812 125.945312 C 136.125 122.769531 133.863281 119.453125 131.730469 116.019531 C 130.777344 114.492188 132.378906 117.328125 131.324219 115.28125 C 130.929688 114.519531 130.519531 113.769531 130.136719 113 C 129.359375 111.433594 128.640625 109.835938 127.992188 108.214844 C 127.421875 106.789062 126.949219 105.339844 126.457031 103.886719 C 125.726562 101.746094 126.730469 105.371094 126.378906 103.675781 C 126.214844 102.890625 126.003906 102.113281 125.847656 101.324219 C 125.582031 100.003906 125.375 98.671875 125.230469 97.332031 C 125.160156 96.6875 125.105469 96.042969 125.066406 95.394531 C 125.050781 95.125 125.050781 94.847656 125.023438 94.578125 C 124.820312 92.679688 124.917969 96.414062 125.015625 95.328125 C 125.234375 92.863281 125.351562 90.484375 125.796875 88.039062 C 126.179688 85.945312 125.476562 88.976562 125.632812 88.566406 C 125.824219 88.054688 125.945312 87.511719 126.125 86.992188 C 126.496094 85.902344 126.929688 84.832031 127.421875 83.789062 C 127.644531 83.3125 127.910156 82.855469 128.128906 82.378906 C 128.785156 80.949219 126.550781 84.757812 127.78125 82.996094 C 128.410156 82.09375 128.992188 81.171875 129.675781 80.308594 C 130.164062 79.695312 131.429688 78.761719 131.675781 78.042969 C 131.414062 78.804688 129.671875 79.851562 131.199219 78.5625 C 131.636719 78.195312 132.054688 77.820312 132.5 77.464844 C 133.277344 76.847656 134.089844 76.304688 134.90625 75.746094 C 136.609375 74.578125 134.703125 76.363281 134.292969 76.066406 C 134.363281 76.117188 135.671875 75.355469 135.789062 75.296875 C 136.671875 74.875 137.578125 74.496094 138.5 74.164062 C 138.894531 74.023438 139.316406 73.929688 139.699219 73.765625 C 140.617188 73.375 137.019531 74.324219 139.4375 73.855469 C 140.339844 73.675781 141.230469 73.492188 142.144531 73.378906 C 142.707031 73.304688 143.269531 73.273438 143.835938 73.214844 C 144.046875 73.191406 144.261719 73.199219 144.472656 73.179688 C 146.082031 73.019531 143.511719 73.644531 143.347656 73.171875 C 143.375 73.257812 148.828125 73.742188 149.390625 73.839844 C 151.714844 74.234375 147.667969 73.246094 148.917969 73.703125 C 149.34375 73.855469 149.78125 73.96875 150.207031 74.113281 C 151.367188 74.515625 152.503906 74.984375 153.609375 75.519531 C 154.035156 75.726562 154.441406 75.964844 154.867188 76.164062 C 156.277344 76.828125 152.632812 74.699219 154.378906 75.894531 C 155.402344 76.59375 156.433594 77.265625 157.40625 78.035156 C 158.355469 78.78125 159.21875 79.617188 160.128906 80.410156 C 161.335938 81.464844 158.527344 78.625 159.960938 80.273438 C 160.445312 80.828125 160.941406 81.371094 161.414062 81.941406 C 162.457031 83.203125 163.425781 84.53125 164.324219 85.898438 C 164.769531 86.578125 165.171875 87.285156 165.609375 87.964844 C 164.425781 86.121094 165.277344 87.402344 165.832031 88.488281 C 167.515625 91.777344 168.867188 95.230469 169.957031 98.757812 C 170.105469 99.234375 170.234375 99.71875 170.386719 100.195312 C 170.152344 99.460938 170.03125 98.773438 170.304688 99.921875 C 170.550781 100.953125 170.808594 101.976562 171.03125 103.011719 C 171.539062 105.34375 171.945312 107.695312 172.273438 110.054688 C 172.609375 112.457031 172.855469 114.871094 173.035156 117.292969 C 173.128906 118.570312 173.203125 119.851562 173.257812 121.132812 C 173.277344 121.625 173.296875 122.117188 173.3125 122.613281 C 173.3125 122.621094 173.367188 125.734375 173.355469 124.039062 C 173.390625 129.5 176.265625 134.589844 182.183594 135.3125 C 187.109375 135.914062 193.457031 131.984375 193.460938 126.484375 C 193.464844 117.601562 194.304688 108.847656 196.28125 100.183594 C 196.683594 98.40625 196.125 100.660156 196.089844 100.867188 C 196.152344 100.464844 196.324219 100 196.445312 99.601562 C 196.691406 98.785156 196.933594 97.96875 197.199219 97.15625 C 197.765625 95.417969 198.402344 93.707031 199.109375 92.023438 C 199.703125 90.625 200.34375 89.242188 201.042969 87.894531 C 201.210938 87.570312 201.394531 87.25 201.558594 86.921875 C 202.296875 85.433594 201.097656 87.832031 200.996094 87.867188 C 201.390625 87.734375 202.117188 86.03125 202.375 85.636719 C 203.109375 84.523438 203.890625 83.433594 204.722656 82.386719 C 205.53125 81.371094 206.953125 80.308594 207.542969 79.179688 C 206.914062 80.382812 205.949219 80.691406 207.320312 79.449219 C 207.757812 79.054688 208.207031 78.664062 208.664062 78.289062 C 209.664062 77.46875 210.714844 76.734375 211.78125 76.003906 C 212.902344 75.234375 213.742188 75.519531 211.316406 76.21875 C 211.796875 76.078125 212.308594 75.675781 212.757812 75.453125 C 213.832031 74.917969 214.929688 74.445312 216.054688 74.039062 C 216.546875 73.859375 217.050781 73.726562 217.539062 73.542969 C 218.90625 73.035156 214.792969 74.125 216.902344 73.726562 C 218.027344 73.515625 219.128906 73.269531 220.265625 73.136719 C 220.761719 73.078125 221.261719 73.050781 221.757812 73 C 223.074219 72.871094 223.609375 73.53125 220.992188 72.964844 C 222.019531 73.1875 223.242188 73.03125 224.300781 73.148438 C 225.273438 73.261719 226.222656 73.464844 227.1875 73.625 C 229.308594 73.980469 224.925781 72.886719 226.324219 73.382812 C 226.898438 73.582031 227.488281 73.730469 228.058594 73.933594 C 228.972656 74.257812 229.867188 74.625 230.746094 75.039062 C 231.183594 75.246094 231.609375 75.480469 232.042969 75.691406 C 234.046875 76.652344 229.746094 74.148438 231.578125 75.433594 C 233.222656 76.585938 234.765625 78.308594 236.449219 79.320312 C 235.484375 78.738281 234.726562 77.425781 235.878906 78.804688 C 236.199219 79.1875 236.53125 79.5625 236.84375 79.953125 C 237.519531 80.792969 238.109375 81.683594 238.71875 82.574219 C 240.078125 84.566406 238.085938 81.214844 238.496094 82.160156 C 238.703125 82.632812 238.980469 83.085938 239.203125 83.550781 C 239.6875 84.574219 240.113281 85.621094 240.484375 86.6875 C 240.589844 86.984375 240.820312 88.28125 241.039062 88.4375 C 240.964844 88.382812 240.464844 85.789062 240.671875 87.140625 C 240.714844 87.414062 240.808594 87.6875 240.859375 87.957031 C 241.085938 89.15625 241.3125 90.34375 241.445312 91.558594 C 241.507812 92.144531 241.558594 92.734375 241.59375 93.324219 C 241.683594 94.820312 241.035156 95.636719 241.636719 93.195312 C 241.335938 94.410156 241.542969 95.957031 241.410156 97.21875 C 241.246094 98.800781 240.992188 100.371094 240.664062 101.929688 C 240.59375 102.269531 240.511719 102.605469 240.4375 102.949219 C 240.167969 104.195312 239.535156 104.304688 240.59375 102.386719 C 240.230469 103.046875 240.113281 104.035156 239.875 104.757812 C 238.683594 108.382812 237.125 111.878906 235.316406 115.234375 C 235.109375 115.617188 234.882812 115.992188 234.6875 116.378906 C 234.109375 117.53125 235.886719 114.417969 234.871094 116.046875 C 234.261719 117.027344 233.664062 118.011719 233.035156 118.972656 C 231.761719 120.914062 230.410156 122.804688 229 124.648438 C 225.738281 128.914062 222.152344 132.910156 218.378906 136.726562 C 214.644531 140.503906 216.085938 148.046875 220.183594 150.933594 C 225.121094 154.414062 230.390625 153.175781 234.390625 149.128906 Z M 234.390625 149.128906 " fill-opacity="1" fill-rule="nonzero"/></g></g></g><g clip-path="url(#7a87b62c1f)"><g clip-path="url(#3ece183b5c)"><g clip-path="url(#8f511deeae)"><path fill="#3d8fd4" d="M 77.296875 288.941406 C 77.828125 290.410156 78.496094 291.835938 79.320312 293.167969 C 80.171875 294.464844 81.148438 295.695312 82.226562 296.828125 C 82.761719 297.394531 83.324219 297.9375 83.90625 298.453125 C 84.511719 298.949219 85.132812 299.417969 85.773438 299.855469 C 87.050781 300.738281 88.394531 301.507812 89.769531 302.148438 C 92.582031 303.355469 95.535156 304.035156 98.390625 304.09375 C 101.292969 304.09375 104.074219 303.503906 106.554688 302.292969 C 107.40625 301.875 108.039062 301.324219 108.5 300.699219 C 113.667969 298.046875 117.332031 293.203125 119.160156 287.960938 C 119.617188 286.648438 119.957031 285.3125 120.179688 283.976562 C 120.40625 282.640625 120.539062 281.261719 120.527344 279.925781 C 120.53125 277.21875 119.960938 274.703125 118.910156 272.21875 C 116.738281 267.546875 112.851562 264.59375 107.90625 263.09375 C 105.511719 262.277344 102.746094 261.933594 100.050781 261.824219 C 98.6875 261.785156 97.292969 261.851562 95.902344 262.023438 C 95.203125 262.113281 94.507812 262.226562 93.816406 262.367188 C 93.132812 262.507812 92.460938 262.664062 91.792969 262.855469 C 86.5625 264.363281 81.863281 267.679688 78.992188 272.320312 C 78.277344 273.480469 77.671875 274.71875 77.199219 276.03125 C 76.746094 277.324219 76.433594 278.679688 76.269531 280.089844 C 75.949219 282.902344 76.191406 285.972656 77.296875 288.941406 Z M 77.296875 288.941406 " fill-opacity="1" fill-rule="nonzero"/></g></g></g><g clip-path="url(#c713da502f)"><g clip-path="url(#623bac4de6)"><g clip-path="url(#9f60c78ac5)"><path fill="#d986ba" d="M 175.21875 293.589844 C 174.671875 293.726562 174.117188 293.886719 173.558594 294.070312 C 172.105469 293.992188 170.699219 294.378906 169.378906 295.035156 C 168.0625 295.65625 166.820312 296.613281 165.714844 297.820312 C 165.257812 298.121094 164.808594 298.433594 164.375 298.765625 C 163.4375 299.488281 162.679688 300.226562 162.058594 301.050781 C 161.441406 301.878906 160.960938 302.777344 160.597656 303.742188 C 159.863281 305.671875 159.585938 307.863281 159.507812 310.234375 C 159.449219 312.03125 159.585938 313.910156 159.964844 315.78125 C 160.347656 317.640625 160.980469 319.445312 161.890625 321.15625 C 162.765625 323.011719 164.042969 324.769531 165.855469 326.148438 L 165.945312 326.210938 C 166.03125 326.273438 166.121094 326.339844 166.207031 326.402344 C 168.359375 329.304688 171.34375 332.023438 174.800781 333.304688 C 178.234375 334.710938 182.125 334.675781 185.726562 332.738281 C 187.859375 331.5 189.660156 329.863281 191.011719 328.023438 C 191.425781 327.65625 191.808594 327.277344 192.15625 326.882812 C 192.507812 326.476562 192.824219 326.050781 193.113281 325.617188 C 193.6875 324.753906 194.144531 323.84375 194.496094 322.902344 C 195.199219 321.019531 195.472656 319.015625 195.429688 316.976562 C 195.34375 312.902344 194.019531 308.695312 192.238281 305.101562 C 191.773438 304.160156 191.273438 303.269531 190.738281 302.371094 C 190.203125 301.476562 189.636719 300.617188 189.042969 299.808594 C 187.855469 298.191406 186.554688 296.8125 185.15625 295.71875 C 183.75 294.578125 182.246094 293.769531 180.605469 293.421875 C 178.96875 293.007812 177.199219 292.996094 175.21875 293.589844 Z M 175.21875 293.589844 " fill-opacity="1" fill-rule="nonzero"/></g></g></g><g clip-path="url(#0ca9b48958)"><g clip-path="url(#ee0f8c4937)"><g clip-path="url(#be0cdbffcf)"><path fill="#837ab8" d="M 255.035156 314.921875 C 255.851562 314.964844 256.675781 314.960938 257.503906 314.917969 C 257.917969 314.894531 258.335938 314.863281 258.753906 314.824219 C 259.164062 314.769531 259.578125 314.703125 259.988281 314.625 C 261.636719 314.324219 263.292969 313.863281 264.921875 313.265625 C 265.746094 312.980469 266.53125 312.605469 267.308594 312.210938 C 268.089844 311.816406 268.859375 311.390625 269.613281 310.933594 C 270.367188 310.476562 271.105469 309.992188 271.828125 309.480469 C 272.535156 308.949219 273.210938 308.375 273.867188 307.789062 C 275.175781 306.601562 276.417969 305.359375 277.488281 303.984375 C 278.542969 302.59375 279.472656 301.136719 280.253906 299.648438 C 281.054688 298.179688 281.617188 296.574219 282.039062 294.996094 C 282.457031 293.414062 282.699219 291.824219 282.75 290.246094 C 282.839844 282.421875 275.847656 277.589844 268.554688 274.582031 C 266.441406 270.714844 263.335938 267.878906 259.464844 266.675781 C 252.179688 264.378906 248.410156 267.394531 245.886719 272.484375 C 245.011719 272.894531 244.140625 273.320312 243.363281 273.871094 C 242.574219 274.402344 241.871094 275.050781 241.191406 275.714844 C 240.503906 276.375 239.882812 277.109375 239.328125 277.921875 C 238.769531 278.726562 238.300781 279.636719 237.851562 280.527344 C 236.976562 282.347656 236.402344 284.460938 236.167969 286.757812 C 235.910156 289.007812 236.015625 291.484375 236.605469 294.097656 C 236.824219 295.046875 237.101562 295.960938 237.429688 296.835938 C 238.105469 301.304688 239.832031 305.65625 242.753906 308.988281 C 244.210938 310.65625 245.96875 312.070312 248.03125 313.117188 C 249.058594 313.628906 250.179688 314.09375 251.335938 314.378906 C 252.5 314.671875 253.734375 314.859375 255.035156 314.921875 Z M 255.035156 314.921875 " fill-opacity="1" fill-rule="nonzero"/></g></g></g><g clip-path="url(#47ed9c3433)"><g clip-path="url(#e55f05b806)"><g clip-path="url(#34f5d5df90)"><path fill="#837ab8" d="M 130.21875 314.992188 C 131.035156 317.640625 132.855469 319.304688 134.960938 320.25 C 136.015625 320.710938 137.128906 321.027344 138.269531 321.074219 C 139.410156 321.128906 140.542969 321.003906 141.597656 320.714844 C 143.710938 320.136719 145.488281 318.929688 146.46875 317.195312 C 147.457031 315.460938 147.617188 313.3125 146.640625 310.8125 C 146.03125 309.273438 145.457031 307.746094 144.90625 306.226562 C 144.359375 304.707031 143.832031 303.214844 143.363281 301.648438 C 142.417969 298.542969 141.558594 295.539062 140.851562 292.476562 C 140.289062 289.980469 139.03125 288.394531 137.425781 287.554688 C 135.867188 286.625 133.957031 286.433594 132.074219 286.839844 C 130.210938 287.226562 128.414062 288.132812 127.125 289.636719 C 125.84375 291.128906 125.101562 293.171875 125.511719 295.769531 C 125.757812 297.394531 126.070312 298.953125 126.402344 300.546875 C 126.734375 302.136719 127.09375 303.742188 127.480469 305.359375 C 127.671875 306.164062 127.867188 306.984375 128.082031 307.785156 L 128.75 310.171875 C 129.214844 311.765625 129.703125 313.371094 130.21875 314.992188 Z M 130.21875 314.992188 " fill-opacity="1" fill-rule="nonzero"/></g></g></g><g clip-path="url(#f411762b6e)"><g clip-path="url(#e12dedb9eb)"><g clip-path="url(#94b888309b)"><path fill="#009ba2" d="M 219.589844 324.613281 C 220.769531 324.574219 221.964844 324.292969 223.085938 323.832031 C 224.207031 323.367188 225.257812 322.753906 226.109375 321.917969 C 227.832031 320.285156 228.867188 318.171875 228.632812 316 C 228.046875 310.449219 226.988281 304.949219 225.71875 299.5 C 225.46875 298.441406 224.9375 297.527344 224.238281 296.773438 C 223.539062 296.023438 222.671875 295.429688 221.730469 294.953125 C 220.789062 294.488281 219.785156 294.191406 218.808594 294.078125 C 217.828125 293.953125 216.890625 294.066406 216.027344 294.28125 C 213.925781 294.851562 212.5625 296.253906 211.710938 297.960938 C 210.863281 299.664062 210.566406 301.796875 210.777344 303.96875 C 211.179688 308.085938 211.292969 312.246094 211.230469 316.40625 C 211.199219 318.59375 211.960938 320.648438 213.40625 322.160156 C 214.847656 323.65625 217 324.660156 219.589844 324.613281 Z M 219.589844 324.613281 " fill-opacity="1" fill-rule="nonzero"/></g></g></g><g clip-path="url(#775af55767)"><g clip-path="url(#f6720c5775)"><g clip-path="url(#34e2fac973)"><path fill="#cdddf4" d="M 275.042969 262.835938 C 276.34375 265.882812 279.746094 267.808594 283.222656 268.855469 C 284.839844 269.617188 287.078125 270.21875 289.363281 270.289062 C 290.191406 271.042969 291.40625 271.339844 292.734375 270.546875 C 293.9375 269.847656 295.195312 268.972656 296.347656 267.953125 C 297.53125 266.953125 298.46875 265.71875 299.203125 264.433594 C 299.910156 263.136719 300.394531 261.773438 300.355469 260.335938 C 300.316406 258.894531 299.847656 257.433594 298.792969 256 C 297.046875 253.632812 294.335938 252.390625 291.492188 251.796875 C 290.070312 251.5 288.609375 251.367188 287.210938 251.359375 C 285.808594 251.347656 284.484375 251.46875 283.234375 251.644531 C 282.128906 251.808594 281.425781 252.347656 281.054688 253.070312 C 280.796875 253.128906 280.542969 253.191406 280.300781 253.261719 C 278.316406 253.875 276.433594 255.039062 275.390625 256.691406 C 274.382812 258.371094 273.992188 260.402344 275.042969 262.835938 Z M 275.042969 262.835938 " fill-opacity="1" fill-rule="nonzero"/></g></g></g><g clip-path="url(#b2ce128a6c)"><g clip-path="url(#01d9f226a2)"><g clip-path="url(#6f3224fb32)"><path fill="#3d8fd4" d="M 150.726562 49.78125 C 149.203125 49.464844 147.636719 49.308594 146.070312 49.296875 C 144.511719 49.328125 142.957031 49.539062 141.425781 49.863281 C 140.664062 50.027344 139.90625 50.222656 139.160156 50.449219 C 138.414062 50.683594 137.695312 50.988281 136.984375 51.300781 C 135.5625 51.933594 134.203125 52.679688 132.9375 53.519531 C 131.675781 54.375 130.53125 55.394531 129.488281 56.449219 C 128.457031 57.519531 127.523438 58.625 126.761719 59.859375 C 125.242188 62.332031 124.289062 65.011719 124.027344 67.757812 C 123.933594 68.695312 124.078125 69.535156 124.375 70.257812 C 123.941406 76.058594 126.167969 81.695312 129.695312 85.992188 C 131.460938 88.152344 133.523438 89.925781 135.828125 91.347656 C 136.976562 92.042969 138.171875 92.621094 139.402344 93.054688 C 140.019531 93.277344 140.632812 93.441406 141.277344 93.609375 C 141.921875 93.777344 142.574219 93.90625 143.234375 93.996094 C 148.34375 94.59375 152.882812 92.804688 156.75 89.398438 C 157.722656 88.574219 158.644531 87.640625 159.507812 86.609375 C 160.367188 85.550781 161.195312 84.53125 161.9375 83.367188 C 163.425781 81.070312 164.628906 78.445312 165.378906 75.792969 C 166.832031 70.535156 166.460938 64.796875 164.007812 59.929688 C 162.789062 57.5 161.042969 55.253906 158.8125 53.535156 C 157.699219 52.660156 156.457031 51.890625 155.105469 51.242188 C 154.425781 50.921875 153.71875 50.613281 152.988281 50.375 C 152.261719 50.140625 151.507812 49.941406 150.726562 49.78125 Z M 150.726562 49.78125 " fill-opacity="1" fill-rule="nonzero"/></g></g></g><g clip-path="url(#71b325a769)"><g clip-path="url(#7e22fec312)"><g clip-path="url(#5156157f02)"><path fill="#d986ba" d="M 96.597656 131.035156 C 96.742188 130.496094 96.863281 129.929688 96.972656 129.355469 C 97.351562 128.742188 97.601562 128.066406 97.824219 127.398438 C 98.042969 126.730469 98.167969 126.027344 98.214844 125.296875 C 98.308594 123.84375 98.0625 122.269531 97.570312 120.71875 C 97.546875 120.179688 97.511719 119.644531 97.449219 119.117188 C 96.941406 114.53125 93.980469 111.644531 89.964844 109.148438 C 86.929688 107.246094 83.214844 105.875 79.289062 105.710938 C 77.25 105.546875 75.132812 105.824219 73.007812 106.699219 L 72.910156 106.746094 C 72.808594 106.785156 72.703125 106.828125 72.601562 106.871094 C 70.746094 107.046875 68.929688 107.492188 67.175781 108.171875 C 66.296875 108.511719 65.4375 108.90625 64.613281 109.363281 C 63.792969 109.820312 62.980469 110.320312 62.285156 110.925781 C 60.863281 112.117188 59.644531 113.539062 58.75 115.179688 C 58.289062 115.988281 57.988281 116.894531 57.753906 117.832031 C 57.527344 118.773438 57.398438 119.765625 57.382812 120.796875 C 57.378906 122.03125 57.464844 123.214844 57.734375 124.390625 C 58.003906 125.5625 58.386719 126.6875 58.863281 127.738281 C 59.347656 129.917969 60.296875 131.753906 61.570312 133.277344 C 62.863281 134.8125 64.5 136.042969 66.296875 137.003906 C 69.910156 138.933594 74.152344 139.800781 78.226562 140.046875 C 80.332031 140.164062 82.429688 140.113281 84.394531 139.867188 C 85.382812 139.746094 86.308594 139.558594 87.238281 139.34375 C 88.171875 139.132812 89.058594 138.863281 89.882812 138.53125 C 91.546875 137.875 92.90625 136.929688 94.097656 135.746094 C 95.269531 134.546875 96.035156 132.960938 96.597656 131.035156 Z M 96.597656 131.035156 " fill-opacity="1" fill-rule="nonzero"/></g></g></g><g clip-path="url(#63861e3894)"><g clip-path="url(#620225dcc6)"><g clip-path="url(#8c8c764a37)"><path fill="#837ab8" d="M 39.355469 190.378906 C 39.140625 190.726562 38.929688 191.085938 38.730469 191.449219 C 38.546875 191.8125 38.371094 192.183594 38.203125 192.5625 C 37.871094 193.316406 37.570312 194.09375 37.300781 194.894531 C 37.035156 195.695312 36.800781 196.515625 36.601562 197.351562 C 36.5 197.769531 36.410156 198.191406 36.328125 198.617188 C 36.261719 199.039062 36.203125 199.46875 36.152344 199.898438 C 35.957031 201.617188 35.894531 203.378906 35.960938 205.144531 C 36.054688 206.910156 36.359375 208.660156 36.746094 210.382812 C 36.949219 211.242188 37.164062 212.09375 37.441406 212.925781 C 37.734375 213.753906 38.058594 214.566406 38.410156 215.363281 C 39.128906 216.949219 39.90625 218.46875 40.886719 219.851562 C 41.871094 221.230469 42.960938 222.496094 44.136719 223.613281 C 44.730469 224.171875 45.332031 224.695312 45.980469 225.175781 C 46.636719 225.648438 47.316406 226.082031 48.015625 226.472656 C 54.792969 230.261719 62.375 226.421875 68.535156 221.40625 C 72.910156 221.386719 76.917969 219.992188 79.800781 217.148438 C 80.476562 216.484375 81.03125 215.832031 81.527344 215.179688 C 82.03125 214.527344 82.4375 213.882812 82.757812 213.246094 C 83.40625 211.972656 83.671875 210.738281 83.695312 209.519531 C 83.757812 208.296875 83.519531 207.09375 83.039062 205.914062 C 82.921875 205.621094 82.78125 205.328125 82.640625 205.035156 C 82.511719 204.738281 82.367188 204.445312 82.207031 204.152344 C 81.890625 203.566406 81.523438 202.988281 81.105469 202.414062 C 81.351562 198.542969 80.277344 194.816406 77.800781 191.558594 C 77.152344 190.746094 76.503906 189.964844 75.730469 189.226562 C 74.960938 188.484375 74.097656 187.785156 73.144531 187.140625 C 72.195312 186.496094 71.144531 185.902344 70.023438 185.378906 C 68.921875 184.859375 67.726562 184.410156 66.445312 184.046875 C 65.507812 183.785156 64.578125 183.597656 63.648438 183.46875 C 59.421875 181.9375 54.777344 181.382812 50.4375 182.367188 C 48.273438 182.855469 46.152344 183.730469 44.265625 185.050781 C 42.40625 186.371094 40.734375 188.136719 39.355469 190.378906 Z M 39.355469 190.378906 " fill-opacity="1" fill-rule="nonzero"/></g></g></g><g clip-path="url(#15e524128f)"><g clip-path="url(#b03d64ddbd)"><g clip-path="url(#b0b6db7a11)"><path fill="#837ab8" d="M 100.804688 81.445312 C 98.164062 80.871094 95.734375 81.523438 93.816406 82.835938 C 91.953125 84.222656 90.601562 86.253906 89.992188 88.339844 C 89.421875 90.480469 89.59375 92.671875 90.578125 94.386719 C 91.5625 96.105469 93.359375 97.363281 95.976562 97.75 C 102.464844 98.738281 108.722656 100.234375 114.671875 102.167969 C 119.460938 103.722656 122.671875 101.167969 123.976562 97.605469 C 124.585938 95.785156 124.738281 93.777344 124.128906 91.90625 C 123.519531 90.042969 122.15625 88.339844 119.71875 87.332031 C 116.75 86.175781 113.667969 85.066406 110.492188 84.050781 C 107.367188 83.113281 104.121094 82.21875 100.804688 81.445312 Z M 100.804688 81.445312 " fill-opacity="1" fill-rule="nonzero"/></g></g></g><g clip-path="url(#27f222dc92)"><g clip-path="url(#d3e9c7884c)"><g clip-path="url(#d31906a652)"><path fill="#009ba2" d="M 47.878906 154.453125 C 47.332031 155.507812 46.945312 156.6875 46.820312 157.898438 C 46.710938 159.113281 46.800781 160.351562 47.078125 161.496094 C 47.359375 162.644531 47.832031 163.703125 48.484375 164.574219 C 49.144531 165.449219 50.023438 166.144531 51.03125 166.566406 C 56.230469 168.738281 61.535156 170.441406 66.910156 171.933594 C 69.007812 172.511719 71.144531 171.828125 72.8125 170.628906 C 73.230469 170.328125 73.617188 169.992188 73.96875 169.632812 C 74.335938 169.277344 74.675781 168.898438 74.96875 168.503906 C 75.558594 167.710938 75.96875 166.851562 76.144531 165.984375 C 76.253906 165.457031 76.289062 164.941406 76.289062 164.445312 C 76.300781 163.953125 76.257812 163.480469 76.160156 163.019531 C 75.96875 162.101562 75.570312 161.246094 75.011719 160.460938 C 73.898438 158.890625 72.140625 157.59375 70.160156 156.730469 C 66.378906 155.089844 62.703125 153.175781 59.113281 151.105469 C 57.226562 150.015625 55.054688 149.679688 53.007812 150.210938 C 51.992188 150.476562 50.972656 150.945312 50.109375 151.660156 C 49.25 152.371094 48.488281 153.304688 47.878906 154.453125 Z M 47.878906 154.453125 " fill-opacity="1" fill-rule="nonzero"/></g></g></g><g clip-path="url(#62017c1c7d)"><g clip-path="url(#65038e0ea7)"><g clip-path="url(#9a79259d77)"><path fill="#cdddf4" d="M 75.757812 232.738281 C 72.484375 232.410156 69.15625 234.488281 66.554688 237.050781 C 65.832031 237.578125 65.0625 238.265625 64.332031 239.066406 C 63.617188 239.859375 62.945312 240.765625 62.386719 241.738281 C 61.316406 242.109375 60.519531 243.011719 60.539062 244.570312 C 60.519531 247.382812 61.226562 250.640625 62.742188 253.167969 C 64.320312 255.660156 66.820312 257.316406 70.304688 256.871094 C 73.238281 256.476562 75.632812 254.710938 77.515625 252.515625 C 79.425781 250.300781 80.851562 247.648438 81.679688 245.332031 C 82.050781 244.292969 81.875 243.433594 81.453125 242.742188 C 81.527344 242.484375 81.597656 242.226562 81.65625 241.980469 C 82.566406 237.839844 80.960938 233.257812 75.757812 232.738281 Z M 75.757812 232.738281 " fill-opacity="1" fill-rule="nonzero"/></g></g></g><g clip-path="url(#f4c797a115)"><g clip-path="url(#120c3dbd33)"><g clip-path="url(#98d07c00d3)"><path fill="#3d8fd4" d="M 323.460938 234.167969 C 324.535156 232.996094 325.367188 231.675781 326.113281 230.289062 C 326.84375 228.902344 327.472656 227.441406 327.929688 225.9375 C 328.347656 224.417969 328.632812 222.863281 328.789062 221.308594 C 328.867188 220.53125 328.914062 219.753906 328.929688 218.980469 C 328.914062 218.199219 328.859375 217.425781 328.777344 216.660156 C 328.613281 215.128906 328.324219 213.632812 327.910156 212.207031 C 327.5 210.78125 326.867188 209.410156 326.175781 208.152344 C 325.46875 206.886719 324.652344 205.722656 323.726562 204.683594 C 322.816406 203.644531 321.703125 202.726562 320.550781 201.953125 C 319.75 201.421875 318.949219 201.148438 318.175781 201.0625 C 313.324219 197.914062 307.320312 197.195312 301.839844 198.246094 C 299.097656 198.773438 296.488281 199.734375 294.222656 201.082031 C 291.925781 202.429688 289.863281 204.144531 288.378906 206.285156 C 287.582031 207.320312 286.972656 208.394531 286.53125 209.507812 C 286.304688 210.0625 286.144531 210.632812 285.976562 211.203125 C 285.800781 211.769531 285.667969 212.347656 285.570312 212.933594 C 285.367188 214.097656 285.367188 215.308594 285.40625 216.523438 C 285.429688 217.734375 285.59375 218.96875 285.882812 220.21875 C 286.195312 221.476562 286.523438 222.714844 286.980469 223.957031 C 287.4375 225.199219 288.003906 226.441406 288.675781 227.65625 C 289.960938 230.066406 291.570312 232.355469 293.589844 234.328125 C 297.519531 238.175781 302.707031 240.660156 308.117188 240.878906 C 310.820312 240.988281 313.578125 240.535156 316.234375 239.441406 C 316.898438 239.171875 317.554688 238.859375 318.203125 238.507812 C 318.828125 238.144531 319.441406 237.746094 320.042969 237.304688 C 321.242188 236.421875 322.390625 235.375 323.460938 234.167969 Z M 323.460938 234.167969 " fill-opacity="1" fill-rule="nonzero"/></g></g></g><g clip-path="url(#2b0b49864b)"><g clip-path="url(#23ee1b5c75)"><g clip-path="url(#55f2f0b44f)"><path fill="#d986ba" d="M 277.878906 147.605469 C 278.289062 147.992188 278.707031 148.382812 279.15625 148.761719 C 279.847656 150.039062 280.917969 151.03125 282.152344 151.820312 C 283.371094 152.613281 284.839844 153.167969 286.445312 153.480469 C 286.941406 153.710938 287.445312 153.929688 287.949219 154.125 C 292.226562 155.878906 296.132812 154.65625 300.265625 152.300781 C 303.386719 150.539062 306.421875 147.902344 308.351562 144.570312 C 309.476562 142.859375 310.300781 140.851562 310.539062 138.578125 L 310.542969 138.46875 C 310.550781 138.363281 310.5625 138.253906 310.570312 138.144531 C 311.925781 134.789062 312.667969 130.828125 311.960938 127.203125 C 311.632812 125.382812 311.027344 123.613281 309.960938 122.089844 C 308.910156 120.558594 307.558594 119.1875 305.75 118.1875 C 303.582031 117.007812 301.253906 116.328125 298.980469 116.136719 C 294.691406 114.878906 290.664062 115.957031 287.25 118.152344 C 283.824219 120.355469 280.929688 123.6875 278.792969 127.089844 C 278.238281 127.976562 277.722656 128.882812 277.257812 129.792969 C 276.789062 130.707031 276.339844 131.648438 275.964844 132.574219 C 275.207031 134.433594 274.6875 136.277344 274.511719 138.027344 C 274.269531 139.820312 274.363281 141.527344 274.917969 143.109375 C 275.441406 144.707031 276.335938 146.230469 277.878906 147.605469 Z M 277.878906 147.605469 " fill-opacity="1" fill-rule="nonzero"/></g></g></g><g clip-path="url(#c061c5cadb)"><g clip-path="url(#4d9b4b3276)"><g clip-path="url(#aa885f30ed)"><path fill="#837ab8" d="M 254.414062 68.429688 C 253.640625 67.007812 252.695312 65.640625 251.617188 64.347656 C 250.515625 63.101562 249.265625 61.949219 247.914062 60.878906 C 247.238281 60.34375 246.535156 59.835938 245.8125 59.351562 C 245.082031 58.882812 244.320312 58.46875 243.542969 58.066406 C 241.992188 57.269531 240.371094 56.582031 238.71875 56.027344 C 237.039062 55.535156 235.328125 55.167969 233.625 54.941406 C 232.773438 54.828125 231.925781 54.742188 231.082031 54.707031 C 230.226562 54.695312 229.375 54.71875 228.535156 54.777344 C 226.859375 54.898438 225.226562 55.164062 223.671875 55.582031 C 222.113281 56.015625 220.609375 56.675781 219.226562 57.445312 C 212.5 61.242188 211.820312 69.714844 212.90625 77.609375 C 210.648438 81.347656 209.753906 85.496094 210.695312 89.453125 C 211.128906 91.320312 211.769531 92.742188 212.523438 93.992188 C 213.289062 95.214844 214.207031 96.121094 215.257812 96.757812 C 215.519531 96.917969 215.789062 97.0625 216.066406 97.1875 C 216.34375 97.328125 216.621094 97.460938 216.910156 97.574219 C 217.488281 97.800781 218.09375 97.964844 218.726562 98.078125 C 219.992188 98.308594 221.382812 98.277344 222.789062 98.214844 C 223.589844 98.792969 224.4375 99.273438 225.320312 99.660156 C 225.761719 99.855469 226.222656 100.003906 226.671875 100.175781 C 227.117188 100.34375 227.574219 100.488281 228.042969 100.609375 C 229.898438 101.101562 231.925781 101.152344 233.933594 100.984375 C 234.949219 100.882812 235.980469 100.679688 237.027344 100.378906 C 238.074219 100.070312 239.128906 99.664062 240.152344 99.203125 C 242.214844 98.246094 244.28125 96.863281 246.203125 94.996094 C 246.902344 94.316406 247.539062 93.605469 248.117188 92.863281 C 251.582031 89.960938 254.394531 86.214844 255.71875 81.992188 C 256.378906 79.878906 256.671875 77.648438 256.492188 75.347656 C 256.402344 74.199219 256.195312 73.035156 255.863281 71.859375 C 255.523438 70.699219 255.03125 69.570312 254.414062 68.429688 Z M 254.414062 68.429688 " fill-opacity="1" fill-rule="nonzero"/></g></g></g><g clip-path="url(#3dab5711e6)"><g clip-path="url(#de878e8640)"><g clip-path="url(#6d070fb529)"><path fill="#837ab8" d="M 319.5 174.96875 C 321.269531 172.910156 321.933594 170.445312 321.578125 168.152344 C 321.257812 165.855469 320.183594 163.691406 318.542969 162.191406 C 316.941406 160.675781 314.957031 159.78125 312.984375 159.835938 C 311.011719 159.886719 309.046875 160.878906 307.441406 163.003906 C 306.453125 164.316406 305.453125 165.601562 304.449219 166.851562 C 303.433594 168.105469 302.34375 169.34375 301.289062 170.542969 C 300.222656 171.742188 299.148438 172.910156 298.074219 174.046875 C 296.976562 175.191406 295.828125 176.308594 294.699219 177.390625 C 293.789062 178.261719 293.160156 179.167969 292.78125 180.074219 C 292.398438 180.984375 292.179688 181.90625 292.207031 182.804688 C 292.226562 183.703125 292.449219 184.582031 292.835938 185.410156 C 293.210938 186.242188 293.6875 187.027344 294.324219 187.730469 C 295.585938 189.128906 297.351562 190.207031 299.296875 190.558594 C 301.242188 190.902344 303.371094 190.511719 305.363281 188.84375 C 307.8125 186.78125 310.324219 184.585938 312.621094 182.273438 C 314.960938 179.960938 317.332031 177.515625 319.5 174.96875 Z M 319.5 174.96875 " fill-opacity="1" fill-rule="nonzero"/></g></g></g><g clip-path="url(#1af80ad1fa)"><g clip-path="url(#2cafabfcbc)"><g clip-path="url(#4068b0b097)"><path fill="#009ba2" d="M 281.117188 93.578125 C 280.464844 92.589844 279.601562 91.714844 278.628906 91 C 277.652344 90.277344 276.566406 89.722656 275.410156 89.429688 C 273.121094 88.8125 270.78125 89.035156 269.050781 90.371094 C 264.628906 93.765625 260.484375 97.554688 256.507812 101.476562 C 255.730469 102.242188 255.234375 103.175781 254.957031 104.164062 C 254.675781 105.160156 254.632812 106.195312 254.714844 107.253906 C 254.902344 109.355469 255.804688 111.28125 257.132812 112.464844 C 258.71875 113.957031 260.605469 114.410156 262.53125 114.222656 C 264.421875 114.058594 266.390625 113.195312 268.132812 111.878906 C 271.429688 109.386719 274.914062 107.117188 278.488281 104.992188 C 280.367188 103.875 281.722656 102.152344 282.257812 100.125 C 282.523438 99.113281 282.582031 98.027344 282.410156 96.910156 C 282.226562 95.804688 281.839844 94.636719 281.117188 93.578125 Z M 281.117188 93.578125 " fill-opacity="1" fill-rule="nonzero"/></g></g></g><g clip-path="url(#72327b3de3)"><g clip-path="url(#7e92a95a4f)"><g clip-path="url(#4875dee218)"><path fill="#cdddf4" d="M 199.449219 77.863281 C 201.441406 75.246094 201.402344 71.320312 200.574219 67.761719 C 200.5 66.871094 200.316406 65.851562 200.015625 64.816406 C 199.710938 63.796875 199.292969 62.75 198.75 61.761719 C 198.996094 60.65625 198.640625 59.507812 197.300781 58.710938 C 196.703125 58.351562 196.058594 58.003906 195.386719 57.679688 C 195.046875 57.519531 194.703125 57.359375 194.351562 57.21875 C 194 57.085938 193.640625 56.964844 193.277344 56.851562 C 191.824219 56.398438 190.296875 56.109375 188.828125 56.101562 C 188.460938 56.097656 188.09375 56.113281 187.734375 56.148438 C 187.378906 56.199219 187.023438 56.269531 186.675781 56.359375 C 185.984375 56.542969 185.324219 56.804688 184.710938 57.167969 C 183.480469 57.890625 182.445312 59.003906 181.71875 60.613281 C 181.121094 61.941406 180.882812 63.367188 180.910156 64.792969 C 180.933594 66.210938 181.214844 67.640625 181.65625 69.035156 C 182.550781 71.820312 184.066406 74.417969 185.609375 76.332031 C 185.953125 76.757812 186.332031 77.050781 186.726562 77.226562 C 187.121094 77.417969 187.527344 77.507812 187.933594 77.496094 C 188.117188 77.699219 188.296875 77.890625 188.480469 78.070312 C 191.535156 81 196.285156 82.042969 199.449219 77.863281 Z M 199.449219 77.863281 " fill-opacity="1" fill-rule="nonzero"/></g></g></g></svg>